<?xml version="1.0" encoding="UTF-8"?>
<svg width="76px" height="56px" viewBox="0 0 76 56" version="1.1" xmlns="http://www.w3.org/2000/svg" xmlns:xlink="http://www.w3.org/1999/xlink">
    <!-- Generator: Sketch 50.2 (55047) - http://www.bohemiancoding.com/sketch -->
    <title>icn/solution/bass</title>
    <desc>Created with Sketch.</desc>
    <defs></defs>
    <g id="icn/solution/bass" stroke="none" stroke-width="1" fill="none" fill-rule="evenodd">
        <g id="Group" transform="translate(12.000000, 1.000000)" fill="#FFFFFF" stroke="#002077" stroke-linecap="round" stroke-linejoin="round" stroke-width="1.5">
            <path d="M51.0139368,26.5849897 C51.0563507,40.8542187 39.6429288,52.571171 25.5861682,52.604772 C11.5417214,52.638373 0.157031442,40.9550217 0.157031442,26.5849897 C0.157031442,12.2135576 11.5417214,0.565207336 25.5861682,0.565207336 C39.6292469,0.565207336 50.971523,12.2135576 51.0139368,26.5849897 Z" id="Stroke-3"></path>
        </g>
        <path d="M24,32.928 L24,22.176 L27.328,22.176 C29.84,22.176 30.832,23.2 30.832,24.896 C30.832,25.968 30.368,26.8 29.072,27.216 L29.072,27.28 C30.416,27.536 31.28,28.32 31.28,29.872 C31.28,31.648 30.064,32.928 27.6,32.928 L24,32.928 Z M25.408,31.744 L27.52,31.744 C29.024,31.744 29.808,31.104 29.808,29.808 C29.808,28.448 28.944,27.936 27.424,27.936 L25.408,27.936 L25.408,31.744 Z M25.408,26.8 L27.088,26.8 C28.384,26.8 29.36,26.416 29.36,25.088 C29.36,23.76 28.608,23.392 27.216,23.392 L25.408,23.392 L25.408,26.8 Z M34.608,33.072 C33.184,33.072 32.144,32.352 32.144,30.816 C32.144,29.44 33.04,28.688 34.544,28.496 L36.656,28.24 L36.656,27.504 C36.656,26.288 36.128,26 34.704,26 C33.92,26 33.28,26.128 32.8,26.224 L32.8,25.248 C33.52,24.976 34.272,24.816 35.232,24.816 C36.992,24.816 38,25.568 38,27.168 L38,32.928 L36.912,32.928 L36.768,32.256 L36.688,32.256 C36.288,32.704 35.664,33.072 34.608,33.072 Z M34.944,32.016 C35.648,32.016 36.304,31.792 36.656,31.472 L36.656,29.28 L34.896,29.456 C33.984,29.552 33.552,29.92 33.552,30.784 C33.552,31.616 34.112,32.016 34.944,32.016 Z M41.68,33.072 C40.256,33.072 39.216,32.352 39.216,30.816 C39.216,29.44 40.112,28.688 41.616,28.496 L43.728,28.24 L43.728,27.504 C43.728,26.288 43.2,26 41.776,26 C40.992,26 40.352,26.128 39.872,26.224 L39.872,25.248 C40.592,24.976 41.344,24.816 42.304,24.816 C44.064,24.816 45.072,25.568 45.072,27.168 L45.072,32.928 L43.984,32.928 L43.84,32.256 L43.76,32.256 C43.36,32.704 42.736,33.072 41.68,33.072 Z M42.016,32.016 C42.72,32.016 43.376,31.792 43.728,31.472 L43.728,29.28 L41.968,29.456 C41.056,29.552 40.624,29.92 40.624,30.784 C40.624,31.616 41.184,32.016 42.016,32.016 Z M49.344,33.12 C47.984,33.12 46.976,32.816 46.256,32.416 L46.256,31.216 C47.088,31.648 48.128,31.92 49.264,31.92 C50.832,31.92 51.52,31.2 51.52,30.064 C51.52,29.056 51.072,28.624 49.824,28.192 L48.704,27.824 C47.264,27.344 46.384,26.56 46.384,24.896 C46.384,23.2 47.536,22 49.792,22 C51.088,22 51.824,22.288 52.416,22.592 L52.416,23.776 C51.776,23.488 50.912,23.2 49.744,23.2 C48.512,23.2 47.808,23.776 47.808,24.768 C47.808,25.744 48.128,26.176 49.28,26.56 L50.384,26.928 C51.968,27.44 52.96,28.16 52.96,29.952 C52.96,31.856 51.856,33.12 49.344,33.12 Z" id="BaaS" stroke="#002077" stroke-width="0.2" fill="#002077"></path>
    </g>
</svg>