<?xml version="1.0" encoding="UTF-8"?>
<svg width="76px" height="56px" viewBox="0 0 76 56" version="1.1" xmlns="http://www.w3.org/2000/svg" xmlns:xlink="http://www.w3.org/1999/xlink">
    <!-- Generator: Sketch 50.2 (55047) - http://www.bohemiancoding.com/sketch -->
    <title>icn/solution/bass-white</title>
    <desc>Created with Sketch.</desc>
    <defs></defs>
    <g id="icn/solution/bass-white" stroke="none" stroke-width="1" fill="none" fill-rule="evenodd">
        <g id="Group" transform="translate(12.000000, 1.000000)" stroke="#FFFFFF" stroke-linecap="round" stroke-linejoin="round" stroke-width="1.5">
            <path d="M51.0139368,26.5849897 C51.0563507,40.8542187 39.6429288,52.571171 25.5861682,52.604772 C11.5417214,52.638373 0.157031442,40.9550217 0.157031442,26.5849897 C0.157031442,12.2135576 11.5417214,0.565207336 25.5861682,0.565207336 C39.6292469,0.565207336 50.971523,12.2135576 51.0139368,26.5849897 Z" id="Stroke-3"></path>
        </g>
        <path d="M23.868,33.328 L23.868,22.368 L27.452,22.368 C29.996,22.368 31.036,23.392 31.036,25.12 C31.036,26.256 30.556,27.088 29.228,27.504 L29.228,27.584 C30.604,27.84 31.5,28.624 31.5,30.208 C31.5,32.016 30.252,33.328 27.74,33.328 L23.868,33.328 Z M25.516,32.016 L27.548,32.016 C29.004,32.016 29.756,31.376 29.756,30.112 C29.756,28.8 28.956,28.272 27.468,28.272 L25.516,28.272 L25.516,32.016 Z M25.516,27.072 L27.164,27.072 C28.412,27.072 29.356,26.656 29.356,25.36 C29.356,24.08 28.636,23.68 27.26,23.68 L25.516,23.68 L25.516,27.072 Z M35.26,33.472 C33.788,33.472 32.732,32.736 32.732,31.152 C32.732,29.696 33.692,28.976 35.276,28.768 L37.324,28.528 L37.324,27.824 C37.324,26.608 36.812,26.336 35.372,26.336 C34.572,26.336 33.9,26.464 33.404,26.576 L33.404,25.472 C34.156,25.168 34.988,25.008 35.996,25.008 C37.836,25.008 38.908,25.776 38.908,27.424 L38.908,33.328 L37.612,33.328 L37.468,32.64 L37.372,32.64 C36.988,33.12 36.316,33.472 35.26,33.472 Z M35.676,32.32 C36.348,32.32 37.004,32.096 37.324,31.792 L37.324,29.616 L35.628,29.792 C34.764,29.888 34.332,30.24 34.332,31.088 C34.332,31.92 34.86,32.32 35.676,32.32 Z M42.988,33.472 C41.516,33.472 40.46,32.736 40.46,31.152 C40.46,29.696 41.42,28.976 43.004,28.768 L45.052,28.528 L45.052,27.824 C45.052,26.608 44.54,26.336 43.1,26.336 C42.3,26.336 41.628,26.464 41.132,26.576 L41.132,25.472 C41.884,25.168 42.716,25.008 43.724,25.008 C45.564,25.008 46.636,25.776 46.636,27.424 L46.636,33.328 L45.34,33.328 L45.196,32.64 L45.1,32.64 C44.716,33.12 44.044,33.472 42.988,33.472 Z M43.404,32.32 C44.076,32.32 44.732,32.096 45.052,31.792 L45.052,29.616 L43.356,29.792 C42.492,29.888 42.06,30.24 42.06,31.088 C42.06,31.92 42.588,32.32 43.404,32.32 Z M50.844,33.456 C49.788,33.456 48.844,33.28 48.188,32.88 L48.188,31.696 C48.86,31.952 49.468,32.208 50.62,32.208 C51.788,32.208 52.3,31.808 52.3,31.12 C52.3,30.496 51.996,30.192 51.004,29.968 L50.252,29.76 C49.036,29.472 48.204,28.88 48.204,27.44 C48.204,25.984 49.132,25.008 51.116,25.008 C52.236,25.008 52.924,25.248 53.404,25.488 L53.404,26.704 C52.972,26.528 52.14,26.304 51.244,26.304 C50.22,26.304 49.708,26.608 49.708,27.312 C49.708,27.936 50.028,28.176 50.844,28.4 L51.612,28.592 C53.212,28.976 53.852,29.552 53.852,31.008 C53.852,32.624 52.7,33.456 50.844,33.456 Z" id="Baas" fill="#FFFFFF"></path>
    </g>
</svg>