<?xml version="1.0" encoding="UTF-8"?>
<svg width="213px" height="164px" viewBox="0 0 213 164" version="1.1" xmlns="http://www.w3.org/2000/svg" xmlns:xlink="http://www.w3.org/1999/xlink">
    <!-- Generator: Sketch 50.2 (55047) - http://www.bohemiancoding.com/sketch -->
    <title>service-big1 copy 2</title>
    <desc>Created with Sketch.</desc>
    <defs>
        <linearGradient x1="15.7441762%" y1="84.5577893%" x2="89.418027%" y2="18.1581539%" id="linearGradient-1">
            <stop stop-color="#DAEAEE" offset="0%"></stop>
            <stop stop-color="#E5E0FB" offset="100%"></stop>
        </linearGradient>
    </defs>
    <g id="service-big1-copy-2" stroke="none" stroke-width="1" fill="none" fill-rule="evenodd">
        <g id="Group-6" transform="translate(16.000000, 9.000000)">
            <circle id="Oval" fill="url(#linearGradient-1)" cx="88" cy="77" r="77"></circle>
            <circle id="Oval-2-Copy-5" fill="#D8D8D8" cx="159" cy="23" r="1"></circle>
            <circle id="Oval-2-Copy" fill="#E5E0FB" cx="146" cy="143" r="2"></circle>
            <circle id="Oval-2-Copy-3" fill="#589BA6" cx="43" cy="25" r="1"></circle>
            <circle id="Oval-2-Copy-4" fill="#BDB2EE" cx="172" cy="104" r="2"></circle>
            <circle id="Oval-2-Copy-2" fill="#DADCDF" cx="1.5" cy="91.5" r="1.5"></circle>
        </g>
        <path d="M159.398035,83.843 C159.398035,113.132 135.654035,136.876 106.364035,136.876 C77.075035,136.876 53.331035,113.132 53.331035,83.843 C53.331035,54.553 77.075035,30.809 106.364035,30.809 C135.654035,30.809 159.398035,54.553 159.398035,83.843 Z" id="Stroke-1" stroke="#C4CACE" stroke-width="1.206" stroke-linejoin="round" stroke-dasharray="4.482,4.482"></path>
        <path d="M125.934235,83.9387 C125.791235,113.2277 116.916235,136.9287 106.112235,136.8767 C95.307235,136.8237 86.438235,113.0357 86.807235,83.7487 C87.185235,53.6447 95.985235,30.2017 106.628235,30.8107 C117.415235,31.4287 126.077235,54.6497 125.934235,83.9387 Z" id="Stroke-3" stroke="#C4CACE" stroke-width="1.206" stroke-linejoin="round" stroke-dasharray="4.482,4.482"></path>
        <path d="M114.377535,65.9875 C141.103535,77.9695 159.186535,95.6755 154.765535,105.5355 C150.345535,115.3945 125.002535,113.8795 98.369535,101.6905 C70.993535,89.1625 53.116535,71.6285 57.981535,62.1425 C62.911535,52.5285 87.650535,54.0045 114.377535,65.9875 Z" id="Stroke-5" stroke="#C4CACE" stroke-width="1.206" stroke-linejoin="round" stroke-dasharray="4.482,4.482"></path>
        <path d="M95.511335,67.5617 C119.873335,51.3027 144.486335,45.4087 150.483335,54.3957 C156.481335,63.3827 141.718335,84.0377 117.231335,100.1077 C92.061335,116.6257 67.704335,122.4377 62.259335,113.2737 C56.740335,103.9847 71.148335,83.8207 95.511335,67.5617 Z" id="Stroke-7" stroke="#C4CACE" stroke-width="1.206" stroke-linejoin="round" stroke-dasharray="4.482,4.482"></path>
        <path d="M94.459535,21.635 C94.459535,21.635 94.027535,13 102.662535,13 C109.570535,13 110.865535,18.613 110.865535,18.613 C110.865535,18.613 113.887535,16.023 117.341535,18.181 C120.791535,20.337 119.934535,23.354 119.932535,23.362 C120.795535,22.93 122.758535,23.885 122.963535,23.991 C124.984535,25.033 126.370535,27.448 125.695535,29.708 C125.136535,31.582 123.359535,33.649 121.271535,33.723 C120.792535,33.74 120.308535,33.723 119.828535,33.723 L114.621535,33.723 L100.797535,33.723 C98.418535,33.723 95.970535,33.893 93.596535,33.723 C90.679535,33.515 88.057535,31.456 87.617535,28.487 C87.208535,25.728 88.636535,23.244 91.218535,22.239 C92.238535,21.84 93.363535,21.635 94.459535,21.635" id="Fill-9" fill="#FFFFFF"></path>
        <path d="M94.459535,21.635 C94.459535,21.635 94.027535,13 102.662535,13 C109.570535,13 110.865535,18.613 110.865535,18.613 C110.865535,18.613 113.887535,16.023 117.341535,18.181 C120.791535,20.337 119.934535,23.354 119.932535,23.362 C120.795535,22.93 122.758535,23.885 122.963535,23.991 C124.984535,25.033 126.370535,27.448 125.695535,29.708 C125.136535,31.582 123.359535,33.649 121.271535,33.723 C120.792535,33.74 120.308535,33.723 119.828535,33.723 L114.621535,33.723 L100.797535,33.723 C98.418535,33.723 95.970535,33.893 93.596535,33.723 C90.679535,33.515 88.057535,31.456 87.617535,28.487 C87.208535,25.728 88.636535,23.244 91.218535,22.239 C92.238535,21.84 93.363535,21.635 94.459535,21.635 Z" id="Stroke-11" stroke="#002077" stroke-width="2.5" stroke-linejoin="round"></path>
        <path d="M39.912235,53.1799 C39.912235,53.1799 39.480235,44.5449 48.115235,44.5449 C55.022235,44.5449 56.318235,50.1589 56.318235,50.1589 C56.318235,50.1589 59.340235,47.5679 62.794235,49.7269 C66.243235,51.8819 65.387235,54.8999 65.384235,54.9079 C66.247235,54.4759 68.210235,55.4309 68.416235,55.5359 C70.437235,56.5789 71.822235,58.9929 71.148235,61.2539 C70.588235,63.1269 68.812235,65.1949 66.724235,65.2689 C66.245235,65.2859 65.761235,65.2689 65.281235,65.2689 L60.074235,65.2689 L46.249235,65.2689 C43.871235,65.2689 41.423235,65.4389 39.049235,65.2689 C36.132235,65.0599 33.510235,63.0009 33.069235,60.0329 C32.660235,57.2729 34.089235,54.7899 36.670235,53.7839 C37.691235,53.3859 38.815235,53.1799 39.912235,53.1799" id="Fill-15" fill="#FFFFFF"></path>
        <path d="M39.912235,53.1799 C39.912235,53.1799 39.480235,44.5449 48.115235,44.5449 C55.022235,44.5449 56.318235,50.1589 56.318235,50.1589 C56.318235,50.1589 59.340235,47.5679 62.794235,49.7269 C66.243235,51.8819 65.387235,54.8999 65.384235,54.9079 C66.247235,54.4759 68.210235,55.4309 68.416235,55.5359 C70.437235,56.5789 71.822235,58.9929 71.148235,61.2539 C70.588235,63.1269 68.812235,65.1949 66.724235,65.2689 C66.245235,65.2859 65.761235,65.2689 65.281235,65.2689 L60.074235,65.2689 L46.249235,65.2689 C43.871235,65.2689 41.423235,65.4389 39.049235,65.2689 C36.132235,65.0599 33.510235,63.0009 33.069235,60.0329 C32.660235,57.2729 34.089235,54.7899 36.670235,53.7839 C37.691235,53.3859 38.815235,53.1799 39.912235,53.1799 Z" id="Stroke-17" stroke="#002077" stroke-width="2.5" stroke-linejoin="round"></path>
        <path d="M41.458135,52.9729 C41.897135,52.5339 41.458135,46.3849 48.484135,46.3849" id="Fill-19" fill="#D4F4E9"></path>
        <path d="M39.912235,115.4065 C39.912235,115.4065 39.480235,106.7715 48.115235,106.7715 C55.022235,106.7715 56.318235,112.3845 56.318235,112.3845 C56.318235,112.3845 59.340235,109.7935 62.794235,111.9525 C66.243235,114.1085 65.387235,117.1255 65.384235,117.1335 C66.247235,116.7015 68.210235,117.6565 68.416235,117.7625 C70.437235,118.8045 71.822235,121.2195 71.148235,123.4795 C70.588235,125.3535 68.812235,127.4205 66.724235,127.4945 C66.245235,127.5115 65.761235,127.4945 65.281235,127.4945 L60.074235,127.4945 L46.249235,127.4945 C43.871235,127.4945 41.423235,127.6645 39.049235,127.4945 C36.132235,127.2865 33.510235,125.2275 33.069235,122.2585 C32.660235,119.4995 34.089235,117.0155 36.670235,116.0105 C37.691235,115.6115 38.815235,115.4065 39.912235,115.4065" id="Fill-21" fill="#FFFFFF"></path>
        <path d="M39.912235,115.4065 C39.912235,115.4065 39.480235,106.7715 48.115235,106.7715 C55.022235,106.7715 56.318235,112.3845 56.318235,112.3845 C56.318235,112.3845 59.340235,109.7935 62.794235,111.9525 C66.243235,114.1085 65.387235,117.1255 65.384235,117.1335 C66.247235,116.7015 68.210235,117.6565 68.416235,117.7625 C70.437235,118.8045 71.822235,121.2195 71.148235,123.4795 C70.588235,125.3535 68.812235,127.4205 66.724235,127.4945 C66.245235,127.5115 65.761235,127.4945 65.281235,127.4945 L60.074235,127.4945 L46.249235,127.4945 C43.871235,127.4945 41.423235,127.6645 39.049235,127.4945 C36.132235,127.2865 33.510235,125.2275 33.069235,122.2585 C32.660235,119.4995 34.089235,117.0155 36.670235,116.0105 C37.691235,115.6115 38.815235,115.4065 39.912235,115.4065 Z" id="Stroke-23" stroke="#002077" stroke-width="2.5" stroke-linejoin="round"></path>
        <path d="M41.458135,115.1985 C41.897135,114.7595 41.458135,108.6115 48.484135,108.6115" id="Fill-25" fill="#D0DEF4"></path>
        <path d="M94.459535,137.9123 C94.459535,137.9123 94.027535,129.2773 102.662535,129.2773 C109.570535,129.2773 110.865535,134.8903 110.865535,134.8903 C110.865535,134.8903 113.887535,132.3003 117.341535,134.4583 C120.791535,136.6143 119.934535,139.6313 119.932535,139.6393 C120.795535,139.2073 122.758535,140.1623 122.963535,140.2683 C124.984535,141.3103 126.370535,143.7253 125.695535,145.9853 C125.136535,147.8593 123.359535,149.9263 121.271535,150.0013 C120.792535,150.0173 120.308535,150.0013 119.828535,150.0013 L114.621535,150.0013 L100.797535,150.0013 C98.418535,150.0013 95.970535,150.1703 93.596535,150.0013 C90.679535,149.7923 88.057535,147.7333 87.617535,144.7643 C87.208535,142.0053 88.636535,139.5213 91.218535,138.5163 C92.238535,138.1173 93.363535,137.9123 94.459535,137.9123" id="Fill-27" fill="#FFFFFF"></path>
        <path d="M94.459535,137.9123 C94.459535,137.9123 94.027535,129.2773 102.662535,129.2773 C109.570535,129.2773 110.865535,134.8903 110.865535,134.8903 C110.865535,134.8903 113.887535,132.3003 117.341535,134.4583 C120.791535,136.6143 119.934535,139.6313 119.932535,139.6393 C120.795535,139.2073 122.758535,140.1623 122.963535,140.2683 C124.984535,141.3103 126.370535,143.7253 125.695535,145.9853 C125.136535,147.8593 123.359535,149.9263 121.271535,150.0013 C120.792535,150.0173 120.308535,150.0013 119.828535,150.0013 L114.621535,150.0013 L100.797535,150.0013 C98.418535,150.0013 95.970535,150.1703 93.596535,150.0013 C90.679535,149.7923 88.057535,147.7333 87.617535,144.7643 C87.208535,142.0053 88.636535,139.5213 91.218535,138.5163 C92.238535,138.1173 93.363535,137.9123 94.459535,137.9123 Z" id="Stroke-29" stroke="#002077" stroke-width="2.5" stroke-linejoin="round"></path>
        <path d="M96.005935,137.7043 C96.444935,137.2663 96.005935,131.1173 103.031935,131.1173" id="Fill-31" fill="#D4F4E9"></path>
        <path d="M149.471735,115.4065 C149.471735,115.4065 149.039735,106.7715 157.674735,106.7715 C164.582735,106.7715 165.877735,112.3845 165.877735,112.3845 C165.877735,112.3845 168.899735,109.7935 172.353735,111.9525 C175.803735,114.1085 174.946735,117.1255 174.944735,117.1335 C175.807735,116.7015 177.769735,117.6565 177.975735,117.7625 C179.996735,118.8045 181.382735,121.2195 180.707735,123.4795 C180.148735,125.3535 178.371735,127.4205 176.283735,127.4945 C175.804735,127.5115 175.320735,127.4945 174.840735,127.4945 L169.633735,127.4945 L155.809735,127.4945 C153.430735,127.4945 150.982735,127.6645 148.608735,127.4945 C145.691735,127.2865 143.069735,125.2275 142.629735,122.2585 C142.220735,119.4995 143.648735,117.0155 146.229735,116.0105 C147.250735,115.6115 148.375735,115.4065 149.471735,115.4065" id="Fill-33" fill="#FFFFFF"></path>
        <path d="M149.471735,115.4065 C149.471735,115.4065 149.039735,106.7715 157.674735,106.7715 C164.582735,106.7715 165.877735,112.3845 165.877735,112.3845 C165.877735,112.3845 168.899735,109.7935 172.353735,111.9525 C175.803735,114.1085 174.946735,117.1255 174.944735,117.1335 C175.807735,116.7015 177.769735,117.6565 177.975735,117.7625 C179.996735,118.8045 181.382735,121.2195 180.707735,123.4795 C180.148735,125.3535 178.371735,127.4205 176.283735,127.4945 C175.804735,127.5115 175.320735,127.4945 174.840735,127.4945 L169.633735,127.4945 L155.809735,127.4945 C153.430735,127.4945 150.982735,127.6645 148.608735,127.4945 C145.691735,127.2865 143.069735,125.2275 142.629735,122.2585 C142.220735,119.4995 143.648735,117.0155 146.229735,116.0105 C147.250735,115.6115 148.375735,115.4065 149.471735,115.4065 Z" id="Stroke-35" stroke="#002077" stroke-width="2.5" stroke-linejoin="round"></path>
        <path d="M151.018135,115.1985 C151.457135,114.7595 151.018135,108.6115 158.044135,108.6115" id="Fill-37" fill="#D4F4E9"></path>
        <path d="M149.471735,53.1799 C149.471735,53.1799 149.039735,44.5449 157.674735,44.5449 C164.582735,44.5449 165.877735,50.1589 165.877735,50.1589 C165.877735,50.1589 168.899735,47.5679 172.353735,49.7269 C175.803735,51.8819 174.946735,54.8999 174.944735,54.9079 C175.807735,54.4759 177.769735,55.4309 177.975735,55.5359 C179.996735,56.5789 181.382735,58.9929 180.707735,61.2539 C180.148735,63.1269 178.371735,65.1949 176.283735,65.2689 C175.804735,65.2859 175.320735,65.2689 174.840735,65.2689 L169.633735,65.2689 L155.809735,65.2689 C153.430735,65.2689 150.982735,65.4389 148.608735,65.2689 C145.691735,65.0599 143.069735,63.0009 142.629735,60.0329 C142.220735,57.2729 143.648735,54.7899 146.229735,53.7839 C147.250735,53.3859 148.375735,53.1799 149.471735,53.1799" id="Fill-39" fill="#FFFFFF"></path>
        <path d="M149.471735,53.1799 C149.471735,53.1799 149.039735,44.5449 157.674735,44.5449 C164.582735,44.5449 165.877735,50.1589 165.877735,50.1589 C165.877735,50.1589 168.899735,47.5679 172.353735,49.7269 C175.803735,51.8819 174.946735,54.8999 174.944735,54.9079 C175.807735,54.4759 177.769735,55.4309 177.975735,55.5359 C179.996735,56.5789 181.382735,58.9929 180.707735,61.2539 C180.148735,63.1269 178.371735,65.1949 176.283735,65.2689 C175.804735,65.2859 175.320735,65.2689 174.840735,65.2689 L169.633735,65.2689 L155.809735,65.2689 C153.430735,65.2689 150.982735,65.4389 148.608735,65.2689 C145.691735,65.0599 143.069735,63.0009 142.629735,60.0329 C142.220735,57.2729 143.648735,54.7899 146.229735,53.7839 C147.250735,53.3859 148.375735,53.1799 149.471735,53.1799 Z" id="Stroke-41" stroke="#002077" stroke-width="2.5" stroke-linejoin="round"></path>
        <path d="M151.018135,52.9729 C151.457135,52.5339 151.018135,46.3849 158.044135,46.3849" id="Fill-43" fill="#D4F4E9"></path>
        <path d="M97.284735,79.841 L92.297735,79.841 C91.417735,79.841 90.697735,79.12 90.697735,78.24 L90.697735,74.574 C90.697735,73.694 91.417735,72.974 92.297735,72.974 L97.284735,72.974 C98.164735,72.974 98.884735,73.694 98.884735,74.574 L98.884735,78.24 C98.884735,79.12 98.164735,79.841 97.284735,79.841" id="Fill-45" fill="#23CFA2"></path>
        <path d="M97.284735,79.841 L92.297735,79.841 C91.417735,79.841 90.697735,79.12 90.697735,78.24 L90.697735,74.574 C90.697735,73.694 91.417735,72.974 92.297735,72.974 L97.284735,72.974 C98.164735,72.974 98.884735,73.694 98.884735,74.574 L98.884735,78.24 C98.884735,79.12 98.164735,79.841 97.284735,79.841 Z" id="Stroke-47" stroke="#002077" stroke-width="1.876" stroke-linejoin="round"></path>
        <path d="M109.433735,79.841 L104.446735,79.841 C103.566735,79.841 102.846735,79.12 102.846735,78.24 L102.846735,74.574 C102.846735,73.694 103.566735,72.974 104.446735,72.974 L109.433735,72.974 C110.313735,72.974 111.033735,73.694 111.033735,74.574 L111.033735,78.24 C111.033735,79.12 110.313735,79.841 109.433735,79.841" id="Fill-49" fill="#23CFA2"></path>
        <path d="M109.433735,79.841 L104.446735,79.841 C103.566735,79.841 102.846735,79.12 102.846735,78.24 L102.846735,74.574 C102.846735,73.694 103.566735,72.974 104.446735,72.974 L109.433735,72.974 C110.313735,72.974 111.033735,73.694 111.033735,74.574 L111.033735,78.24 C111.033735,79.12 110.313735,79.841 109.433735,79.841 Z" id="Stroke-51" stroke="#002077" stroke-width="1.876" stroke-linejoin="round"></path>
        <path d="M121.582635,79.841 L116.595635,79.841 C115.715635,79.841 114.995635,79.12 114.995635,78.24 L114.995635,74.574 C114.995635,73.694 115.715635,72.974 116.595635,72.974 L121.582635,72.974 C122.462635,72.974 123.182635,73.694 123.182635,74.574 L123.182635,78.24 C123.182635,79.12 122.462635,79.841 121.582635,79.841" id="Fill-53" fill="#23CFA2"></path>
        <path d="M121.582635,79.841 L116.595635,79.841 C115.715635,79.841 114.995635,79.12 114.995635,78.24 L114.995635,74.574 C114.995635,73.694 115.715635,72.974 116.595635,72.974 L121.582635,72.974 C122.462635,72.974 123.182635,73.694 123.182635,74.574 L123.182635,78.24 C123.182635,79.12 122.462635,79.841 121.582635,79.841 Z" id="Stroke-55" stroke="#002077" stroke-width="1.876" stroke-linejoin="round"></path>
        <path d="M124.265235,94.1028 L89.615235,94.1028 C88.177235,94.1028 87.000235,92.9258 87.000235,91.4878 L87.000235,80.8718 C87.000235,79.4328 88.177235,78.2558 89.615235,78.2558 L124.265235,78.2558 C125.703235,78.2558 126.880235,79.4328 126.880235,80.8718 L126.880235,91.4878 C126.880235,92.9258 125.703235,94.1028 124.265235,94.1028" id="Fill-57" fill="#FFFFFF"></path>
        <path d="M124.265235,94.1028 L89.615235,94.1028 C88.177235,94.1028 87.000235,92.9258 87.000235,91.4878 L87.000235,80.8718 C87.000235,79.4328 88.177235,78.2558 89.615235,78.2558 L124.265235,78.2558 C125.703235,78.2558 126.880235,79.4328 126.880235,80.8718 L126.880235,91.4878 C126.880235,92.9258 125.703235,94.1028 124.265235,94.1028 Z" id="Stroke-59" stroke="#002077" stroke-width="1.876" stroke-linejoin="round"></path>
        <path d="M124.265235,78.2561 L123.180235,78.2561 C123.180235,78.2501 123.182235,78.2461 123.182235,78.2401 L123.182235,74.5741 C123.182235,73.6941 122.462235,72.9741 121.582235,72.9741 L116.596235,72.9741 C115.715235,72.9741 114.995235,73.6941 114.995235,74.5741 L114.995235,78.2401 C114.995235,78.2461 114.998235,78.2501 114.998235,78.2561 L111.031235,78.2561 C111.031235,78.2501 111.034235,78.2461 111.034235,78.2401 L111.034235,74.5741 C111.034235,73.6941 110.313235,72.9741 109.433235,72.9741 L104.447235,72.9741 C103.566235,72.9741 102.847235,73.6941 102.847235,74.5741 L102.847235,78.2401 C102.847235,78.2461 102.849235,78.2501 102.849235,78.2561 L98.882235,78.2561 C98.882235,78.2501 98.885235,78.2461 98.885235,78.2401 L98.885235,74.5741 C98.885235,73.6941 98.164235,72.9741 97.285235,72.9741 L92.298235,72.9741 C91.418235,72.9741 90.698235,73.6941 90.698235,74.5741 L90.698235,78.2401 C90.698235,78.2461 90.701235,78.2501 90.701235,78.2561 L89.615235,78.2561 C88.177235,78.2561 87.000235,79.4331 87.000235,80.8711 L87.000235,91.4871 C87.000235,92.9251 88.177235,94.1031 89.615235,94.1031 L124.265235,94.1031 C125.703235,94.1031 126.880235,92.9251 126.880235,91.4871 L126.880235,80.8711 C126.880235,79.4331 125.703235,78.2561 124.265235,78.2561 Z" id="Stroke-61" stroke="#002077" stroke-width="3.127"></path>
        <path d="M97.284735,79.841 L92.297735,79.841 C91.417735,79.841 90.697735,79.12 90.697735,78.24 L90.697735,74.574 C90.697735,73.694 91.417735,72.974 92.297735,72.974 L97.284735,72.974 C98.164735,72.974 98.884735,73.694 98.884735,74.574 L98.884735,78.24 C98.884735,79.12 98.164735,79.841 97.284735,79.841" id="Fill-63" fill="#668EDD"></path>
        <path d="M97.284735,79.841 L92.297735,79.841 C91.417735,79.841 90.697735,79.12 90.697735,78.24 L90.697735,74.574 C90.697735,73.694 91.417735,72.974 92.297735,72.974 L97.284735,72.974 C98.164735,72.974 98.884735,73.694 98.884735,74.574 L98.884735,78.24 C98.884735,79.12 98.164735,79.841 97.284735,79.841 Z" id="Stroke-65" stroke="#002077" stroke-width="1.876" stroke-linejoin="round"></path>
        <path d="M109.433735,79.841 L104.446735,79.841 C103.566735,79.841 102.846735,79.12 102.846735,78.24 L102.846735,74.574 C102.846735,73.694 103.566735,72.974 104.446735,72.974 L109.433735,72.974 C110.313735,72.974 111.033735,73.694 111.033735,74.574 L111.033735,78.24 C111.033735,79.12 110.313735,79.841 109.433735,79.841" id="Fill-67" fill="#668EDD"></path>
        <path d="M109.433735,79.841 L104.446735,79.841 C103.566735,79.841 102.846735,79.12 102.846735,78.24 L102.846735,74.574 C102.846735,73.694 103.566735,72.974 104.446735,72.974 L109.433735,72.974 C110.313735,72.974 111.033735,73.694 111.033735,74.574 L111.033735,78.24 C111.033735,79.12 110.313735,79.841 109.433735,79.841 Z" id="Stroke-69" stroke="#002077" stroke-width="1.876" stroke-linejoin="round"></path>
        <path d="M121.582635,79.841 L116.595635,79.841 C115.715635,79.841 114.995635,79.12 114.995635,78.24 L114.995635,74.574 C114.995635,73.694 115.715635,72.974 116.595635,72.974 L121.582635,72.974 C122.462635,72.974 123.182635,73.694 123.182635,74.574 L123.182635,78.24 C123.182635,79.12 122.462635,79.841 121.582635,79.841" id="Fill-71" fill="#668EDD"></path>
        <path d="M121.582635,79.841 L116.595635,79.841 C115.715635,79.841 114.995635,79.12 114.995635,78.24 L114.995635,74.574 C114.995635,73.694 115.715635,72.974 116.595635,72.974 L121.582635,72.974 C122.462635,72.974 123.182635,73.694 123.182635,74.574 L123.182635,78.24 C123.182635,79.12 122.462635,79.841 121.582635,79.841 Z" id="Stroke-73" stroke="#002077" stroke-width="1.876" stroke-linejoin="round"></path>
        <path d="M124.265235,94.1028 L89.615235,94.1028 C88.177235,94.1028 87.000235,92.9258 87.000235,91.4878 L87.000235,80.8718 C87.000235,79.4328 88.177235,78.2558 89.615235,78.2558 L124.265235,78.2558 C125.703235,78.2558 126.880235,79.4328 126.880235,80.8718 L126.880235,91.4878 C126.880235,92.9258 125.703235,94.1028 124.265235,94.1028" id="Fill-75" fill="#D0DEF4"></path>
        <path d="M124.265235,94.1028 L89.615235,94.1028 C88.177235,94.1028 87.000235,92.9258 87.000235,91.4878 L87.000235,80.8718 C87.000235,79.4328 88.177235,78.2558 89.615235,78.2558 L124.265235,78.2558 C125.703235,78.2558 126.880235,79.4328 126.880235,80.8718 L126.880235,91.4878 C126.880235,92.9258 125.703235,94.1028 124.265235,94.1028 Z" id="Stroke-77" stroke="#002077" stroke-width="1.876" stroke-linejoin="round"></path>
    </g>
</svg>