<?xml version="1.0" encoding="UTF-8"?>
<svg width="76px" height="56px" viewBox="0 0 76 56" version="1.1" xmlns="http://www.w3.org/2000/svg" xmlns:xlink="http://www.w3.org/1999/xlink">
    <!-- Generator: Sketch 50.2 (55047) - http://www.bohemiancoding.com/sketch -->
    <title>icn/solution/chain</title>
    <desc>Created with Sketch.</desc>
    <defs></defs>
    <g id="icn/solution/chain" stroke="none" stroke-width="1" fill="none" fill-rule="evenodd">
        <g id="Group-2" transform="translate(7.000000, 2.000000)">
            <g id="Group" transform="translate(29.000000, 0.000000)">
                <path d="M19,32 L19,20 L19,32 Z" id="Fill-1" stroke="#002077" stroke-width="1.5"></path>
                <path d="M20,20 L20,21" id="Stroke-2" stroke="#002077" stroke-width="1.5"></path>
                <path d="M18,18 L6,30" id="Fill-3" fill="#FFFFFF"></path>
                <path d="M18,18 L6,30" id="Stroke-4" stroke="#002077" stroke-width="1.5"></path>
                <path d="M22,18 L31,27" id="Fill-6" fill="#FFFFFF"></path>
                <path d="M22,18 L31,27" id="Stroke-7" stroke="#002077" stroke-width="1.5"></path>
                <path d="M33,4 L23,13" id="Fill-9" fill="#FFFFFF"></path>
                <path d="M33,4 L23,13" id="Stroke-10" stroke="#002077" stroke-width="1.5"></path>
                <g id="Group-14" transform="translate(10.000000, 7.000000)">
                    <path d="M0.232823021,0.215461897 L6.88753731,6.87017619" id="Fill-12" fill="#FFFFFF"></path>
                    <path d="M0.232823021,0.215461897 L6.88753731,6.87017619" id="Stroke-13" stroke="#002077" stroke-width="1.5"></path>
                </g>
                <path d="M24,16.5005195 C24,18.9855708 21.9858033,21 19.5,21 C17.0152355,21 15,18.9855708 15,16.5005195 C15,14.0144292 17.0152355,12 19.5,12 C21.9858033,12 24,14.0144292 24,16.5005195" id="Fill-15" fill="#FFFFFF"></path>
                <path d="M24,16.5005195 C24,18.9855708 21.9858033,21 19.5,21 C17.0152355,21 15,18.9855708 15,16.5005195 C15,14.0144292 17.0152355,12 19.5,12 C21.9858033,12 24,14.0144292 24,16.5005195 Z" id="Stroke-17" stroke="#002077" stroke-width="1.5"></path>
                <path d="M22,34.4994911 C22,36.432456 20.4326839,38 18.5,38 C16.5673161,38 15,36.432456 15,34.4994911 C15,32.567544 16.5673161,31 18.5,31 C20.4326839,31 22,32.567544 22,34.4994911" id="Fill-19" fill="#FFFFFF"></path>
                <path d="M22,34.4994911 C22,36.432456 20.4326839,38 18.5,38 C16.5673161,38 15,36.432456 15,34.4994911 C15,32.567544 16.5673161,31 18.5,31 C20.4326839,31 22,32.567544 22,34.4994911 Z" id="Stroke-21" stroke="#002077" stroke-width="1.5"></path>
                <path d="M38,3.49949106 C38,5.43245601 36.4326839,7 34.5,7 C32.5673161,7 31,5.43245601 31,3.49949106 C31,1.5665261 32.5673161,0 34.5,0 C36.4326839,0 38,1.5665261 38,3.49949106" id="Fill-23" fill="#FFFFFF"></path>
                <path d="M38,3.49949106 C38,5.43245601 36.4326839,7 34.5,7 C32.5673161,7 31,5.43245601 31,3.49949106 C31,1.5665261 32.5673161,0 34.5,0 C36.4326839,0 38,1.5665261 38,3.49949106 Z" id="Stroke-25" stroke="#002077" stroke-width="1.5"></path>
                <path d="M7,32.5005089 C7,34.4334739 5.43268392,36 3.5,36 C1.56731608,36 0,34.4334739 0,32.5005089 C0,30.567544 1.56731608,29 3.5,29 C5.43268392,29 7,30.567544 7,32.5005089" id="Fill-27" fill="#FFFFFF"></path>
                <path d="M7,32.5005089 C7,34.4334739 5.43268392,36 3.5,36 C1.56731608,36 0,34.4334739 0,32.5005089 C0,30.567544 1.56731608,29 3.5,29 C5.43268392,29 7,30.567544 7,32.5005089 Z" id="Stroke-29" stroke="#002077" stroke-width="1.5"></path>
                <path d="M11,6.5 C11,7.88066826 9.88040105,9 8.4994032,9 C7.11959895,9 6,7.88066826 6,6.5 C6,5.12052506 7.11959895,4 8.4994032,4 C9.88040105,4 11,5.12052506 11,6.5" id="Fill-31" fill="#FFFFFF"></path>
                <path d="M11,6.5 C11,7.88066826 9.88040105,9 8.4994032,9 C7.11959895,9 6,7.88066826 6,6.5 C6,5.12052506 7.11959895,4 8.4994032,4 C9.88040105,4 11,5.12052506 11,6.5 Z" id="Stroke-33" stroke="#002077" stroke-width="1.5"></path>
                <path d="M34,28.5 C34,29.8794749 32.8804011,31 31.4994032,31 C30.1195989,31 29,29.8794749 29,28.5 C29,27.1193317 30.1195989,26 31.4994032,26 C32.8804011,26 34,27.1193317 34,28.5" id="Fill-35" fill="#FFFFFF"></path>
                <path d="M34,28.5 C34,29.8794749 32.8804011,31 31.4994032,31 C30.1195989,31 29,29.8794749 29,28.5 C29,27.1193317 30.1195989,26 31.4994032,26 C32.8804011,26 34,27.1193317 34,28.5 Z" id="Stroke-37" stroke="#002077" stroke-width="1.5"></path>
            </g>
            <g id="Group-3" transform="translate(0.000000, 2.000000)" stroke="#002077" stroke-width="1.5">
                <path d="M47.7770961,36.5339647 C46.934368,32.8943061 43.7869415,30.0268911 40.2344468,29.1780662 C36.9950652,28.4046533 33.7772173,27.5219221 30.5518036,26.6900503 C28.3675781,26.1270899 26.1839345,25.563545 24.000291,25 C21.8160655,25.563545 19.63184,26.1270899 17.4476144,26.6900503 C14.2227827,27.5219221 11.0049348,28.4046533 7.7655532,29.1780662 C4.2130585,30.0268911 1.06563201,32.8943061 0.22290391,36.5339647 C0.0733313125,37.1793523 0,37.841693 0,38.5046183 L0,50 L24.000291,50 L48,50 L48,38.5046183 C48,37.841693 47.9266687,37.1793523 47.7770961,36.5339647" id="Fill-3" fill="#FFFFFF"></path>
                <g id="Group-4" transform="translate(18.500000, 25.000000)" fill="#FFFFFF" stroke-linejoin="round">
                    <polygon id="Fill-21" points="0.276120101 0 0 6 6 1.07551402"></polygon>
                    <polygon id="Fill-25" points="11.7238799 0 12 6 6 1.07551402"></polygon>
                </g>
                <path d="M25,26 C18.949791,26 14,21.2155984 14,15.3688299 L14,10.6311701 C14,4.78382457 18.949791,0 25,0 C31.050209,0 36,4.78382457 36,10.6311701 L36,15.3688299 C36,21.2155984 31.050209,26 25,26" id="Fill-29" fill="#FFFFFF"></path>
                <g id="Group-5" transform="translate(23.500000, 34.000000)" stroke-linecap="round" stroke-linejoin="round">
                    <path d="M1,1 L1,0" id="Stroke-45"></path>
                    <path d="M1,15.0769231 L1,4.45150975" id="Stroke-41"></path>
                </g>
                <path d="M14,13 C14,13 26.3362645,11.8238616 30.5158226,9 C30.5158226,9 33.1256581,11.8238616 36,12.8828097" id="Stroke-47" stroke-linejoin="round"></path>
            </g>
        </g>
    </g>
</svg>