<?xml version="1.0" encoding="UTF-8"?>
<svg width="76px" height="56px" viewBox="0 0 76 56" version="1.1" xmlns="http://www.w3.org/2000/svg" xmlns:xlink="http://www.w3.org/1999/xlink">
    <!-- Generator: Sketch 50.2 (55047) - http://www.bohemiancoding.com/sketch -->
    <title>icn/solution/chain-white</title>
    <desc>Created with Sketch.</desc>
    <defs></defs>
    <g id="icn/solution/chain-white" stroke="none" stroke-width="1" fill="none" fill-rule="evenodd">
        <path d="M39,47 L39,30 L39,47 Z" id="Fill-1" stroke="#FFFFFF" stroke-width="1.5"></path>
        <path d="M41,30 L41,31" id="Stroke-2" stroke="#FFFFFF" stroke-width="1.5"></path>
        <path d="M37,27 L21,43" id="Fill-3" fill="#FFFFFF"></path>
        <path d="M37,27 L21,43" id="Stroke-4" stroke="#FFFFFF" stroke-width="1.5"></path>
        <path d="M43,27 L55,39" id="Fill-6" fill="#FFFFFF"></path>
        <path d="M43,27 L55,39" id="Stroke-7" stroke="#FFFFFF" stroke-width="1.5"></path>
        <path d="M58,8 L45,21" id="Fill-9" fill="#FFFFFF"></path>
        <path d="M58,8 L45,21" id="Stroke-10" stroke="#FFFFFF" stroke-width="1.5"></path>
        <path d="M26.2993439,11.2770224 L34.8554051,19.8330837" id="Fill-12" fill="#FFFFFF"></path>
        <path d="M26.2993439,11.2770224 L34.8554051,19.8330837" id="Stroke-13" stroke="#FFFFFF" stroke-width="1.5"></path>
        <path d="M46,24.5007503 C46,28.090269 43.0906048,31 39.5,31 C35.9108957,31 33,28.090269 33,24.5007503 C33,20.909731 35.9108957,18 39.5,18 C43.0906048,18 46,20.909731 46,24.5007503" id="Fill-15" fill="#387483"></path>
        <path d="M46,24.5007503 C46,28.090269 43.0906048,31 39.5,31 C35.9108957,31 33,28.090269 33,24.5007503 C33,20.909731 35.9108957,18 39.5,18 C43.0906048,18 46,20.909731 46,24.5007503 Z" id="Stroke-17" stroke="#FFFFFF" stroke-width="1.5"></path>
        <path d="M44,48.9992729 C44,51.7606514 41.760977,54 39,54 C36.239023,54 34,51.7606514 34,48.9992729 C34,46.2393486 36.239023,44 39,44 C41.760977,44 44,46.2393486 44,48.9992729" id="Fill-19" fill="#387483"></path>
        <path d="M44,48.9992729 C44,51.7606514 41.760977,54 39,54 C36.239023,54 34,51.7606514 34,48.9992729 C34,46.2393486 36.239023,44 39,44 C41.760977,44 44,46.2393486 44,48.9992729 Z" id="Stroke-21" stroke="#FFFFFF" stroke-width="1.5"></path>
        <path d="M65,6.99927294 C65,9.76065145 62.760977,12 60,12 C57.239023,12 55,9.76065145 55,6.99927294 C55,4.23789443 57.239023,2 60,2 C62.760977,2 65,4.23789443 65,6.99927294" id="Fill-23" fill="#387483"></path>
        <path d="M65,6.99927294 C65,9.76065145 62.760977,12 60,12 C57.239023,12 55,9.76065145 55,6.99927294 C55,4.23789443 57.239023,2 60,2 C62.760977,2 65,4.23789443 65,6.99927294 Z" id="Stroke-25" stroke="#FFFFFF" stroke-width="1.5"></path>
        <path d="M23,47.0007271 C23,49.7621056 20.760977,52 18,52 C15.239023,52 13,49.7621056 13,47.0007271 C13,44.2393486 15.239023,42 18,42 C20.760977,42 23,44.2393486 23,47.0007271" id="Fill-27" fill="#387483"></path>
        <path d="M23,47.0007271 C23,49.7621056 20.760977,52 18,52 C15.239023,52 13,49.7621056 13,47.0007271 C13,44.2393486 15.239023,42 18,42 C20.760977,42 23,44.2393486 23,47.0007271 Z" id="Stroke-29" stroke="#FFFFFF" stroke-width="1.5"></path>
        <path d="M28,10.5 C28,12.4329356 26.4325615,14 24.4991645,14 C22.5674385,14 21,12.4329356 21,10.5 C21,8.56873508 22.5674385,7 24.4991645,7 C26.4325615,7 28,8.56873508 28,10.5" id="Fill-31" fill="#387483"></path>
        <path d="M28,10.5 C28,12.4329356 26.4325615,14 24.4991645,14 C22.5674385,14 21,12.4329356 21,10.5 C21,8.56873508 22.5674385,7 24.4991645,7 C26.4325615,7 28,8.56873508 28,10.5 Z" id="Stroke-33" stroke="#FFFFFF" stroke-width="1.5"></path>
        <path d="M59,41.5 C59,43.4312649 57.4325615,45 55.4991645,45 C53.5674385,45 52,43.4312649 52,41.5 C52,39.5670644 53.5674385,38 55.4991645,38 C57.4325615,38 59,39.5670644 59,41.5" id="Fill-35" fill="#387483"></path>
        <path d="M59,41.5 C59,43.4312649 57.4325615,45 55.4991645,45 C53.5674385,45 52,43.4312649 52,41.5 C52,39.5670644 53.5674385,38 55.4991645,38 C57.4325615,38 59,39.5670644 59,41.5 Z" id="Stroke-37" stroke="#FFFFFF" stroke-width="1.5"></path>
    </g>
</svg>