<?xml version="1.0" encoding="UTF-8"?>
<svg width="213px" height="164px" viewBox="0 0 213 164" version="1.1" xmlns="http://www.w3.org/2000/svg" xmlns:xlink="http://www.w3.org/1999/xlink">
    <!-- Generator: Sketch 50.2 (55047) - http://www.bohemiancoding.com/sketch -->
    <title>service-big1 copy 3</title>
    <desc>Created with Sketch.</desc>
    <defs>
        <linearGradient x1="15.7441762%" y1="84.5577893%" x2="89.418027%" y2="18.1581539%" id="linearGradient-1">
            <stop stop-color="#DAEAEE" offset="0%"></stop>
            <stop stop-color="#E5E0FB" offset="100%"></stop>
        </linearGradient>
    </defs>
    <g id="service-big1-copy-3" stroke="none" stroke-width="1" fill="none" fill-rule="evenodd">
        <g id="Group-6" transform="translate(18.000000, 10.000000)">
            <circle id="Oval" fill="url(#linearGradient-1)" cx="88" cy="77" r="77"></circle>
            <circle id="Oval-2" fill="#D8D8D8" cx="28" cy="16" r="1"></circle>
            <circle id="Oval-2-Copy-5" fill="#D8D8D8" cx="173" cy="86" r="1"></circle>
            <circle id="Oval-2-Copy" fill="#8FD4DF" cx="1.5" cy="46.5" r="1.5"></circle>
            <circle id="Oval-2-Copy-6" fill="#8FBEDF" cx="29" cy="136" r="1"></circle>
            <circle id="Oval-2-Copy-3" fill="#EDEFF2" cx="163" cy="19" r="2"></circle>
            <circle id="Oval-2-Copy-4" fill="#C0C0C0" cx="185" cy="54" r="2"></circle>
            <circle id="Oval-2-Copy-2" fill="#42177F" cx="1.5" cy="91.5" r="1.5"></circle>
        </g>
        <g id="Group" transform="translate(23.000000, 24.000000)">
            <path d="M48,40 L16,40" id="Stroke-1" stroke="#002077" stroke-width="1.638" stroke-linejoin="round"></path>
            <polyline id="Stroke-2" stroke="#668EDD" stroke-width="1.638" stroke-linejoin="round" points="24 26 31.6362403 26 31.6362403 41 45 41"></polyline>
            <polyline id="Stroke-3" stroke="#668EDD" stroke-width="1.638" stroke-linejoin="round" points="9 59 18.3755829 59 18.3755829 50 39 50"></polyline>
            <path d="M135,28 L135,45" id="Stroke-4" stroke="#002077" stroke-width="1.638" stroke-linejoin="round"></path>
            <polyline id="Stroke-5" stroke="#668EDD" stroke-width="1.638" stroke-linejoin="round" points="129 45 143.505568 45 143.505568 54 151 54"></polyline>
            <polyline id="Stroke-6" stroke="#002077" stroke-width="1.638" stroke-linejoin="round" points="113 34 113 11.4120794 128 11.4120794 128 2"></polyline>
            <path d="M146,35 L135,35" id="Stroke-8" stroke="#002077" stroke-width="1.638" stroke-linejoin="round"></path>
            <path d="M29,18 L42,18" id="Stroke-9" stroke="#002077" stroke-width="1.638" stroke-linejoin="round"></path>
            <polyline id="Stroke-10" stroke="#668EDD" stroke-width="1.638" stroke-linejoin="round" points="42 9 42 25.7994694 50 25.7994694 50 37"></polyline>
            <polyline id="Stroke-11" stroke="#002077" stroke-width="1.638" stroke-linejoin="round" points="65 84 65 108 50 108"></polyline>
            <g id="Group-46">
                <polyline id="Stroke-12" stroke="#002077" stroke-width="1.638" stroke-linejoin="round" points="82.784 89.7298667 82.784 100.988533 92.1666667 100.988533 92.1666667 115.9992"></polyline>
                <path d="M25.1004,26.4174667 C25.1004,29.5254667 22.5790667,32.0468 19.4710667,32.0468 C16.3617333,32.0468 13.8417333,29.5254667 13.8417333,26.4174667 C13.8417333,23.3081333 16.3617333,20.7868 19.4710667,20.7868 C22.5790667,20.7868 25.1004,23.3081333 25.1004,26.4174667" id="Fill-14" fill="#FFFFFF"></path>
                <path d="M25.1004,26.4174667 C25.1004,29.5254667 22.5790667,32.0468 19.4710667,32.0468 C16.3617333,32.0468 13.8417333,29.5254667 13.8417333,26.4174667 C13.8417333,23.3081333 16.3617333,20.7868 19.4710667,20.7868 C22.5790667,20.7868 25.1004,23.3081333 25.1004,26.4174667 Z" id="Stroke-16" stroke="#668EDD" stroke-width="1.638" stroke-linejoin="round"></path>
                <path d="M47.4232,6.618 C47.4232,9.726 44.9032,12.2473333 41.7938667,12.2473333 C38.6845333,12.2473333 36.1645333,9.726 36.1645333,6.618 C36.1645333,3.50866667 38.6845333,0.987333333 41.7938667,0.987333333 C44.9032,0.987333333 47.4232,3.50866667 47.4232,6.618" id="Fill-18" fill="#FFFFFF"></path>
                <path d="M47.4232,6.618 C47.4232,9.726 44.9032,12.2473333 41.7938667,12.2473333 C38.6845333,12.2473333 36.1645333,9.726 36.1645333,6.618 C36.1645333,3.50866667 38.6845333,0.987333333 41.7938667,0.987333333 C44.9032,0.987333333 47.4232,3.50866667 47.4232,6.618 Z" id="Stroke-20" stroke="#668EDD" stroke-width="1.638" stroke-linejoin="round"></path>
                <path d="M11.3504,59.7716 C11.3504,62.8809333 8.8304,65.4022667 5.72106667,65.4022667 C2.61173333,65.4022667 0.0917333333,62.8809333 0.0917333333,59.7716 C0.0917333333,56.6636 2.61173333,54.1422667 5.72106667,54.1422667 C8.8304,54.1422667 11.3504,56.6636 11.3504,59.7716" id="Fill-22" fill="#FFFFFF"></path>
                <path d="M11.3504,59.7716 C11.3504,62.8809333 8.8304,65.4022667 5.72106667,65.4022667 C2.61173333,65.4022667 0.0917333333,62.8809333 0.0917333333,59.7716 C0.0917333333,56.6636 2.61173333,54.1422667 5.72106667,54.1422667 C8.8304,54.1422667 11.3504,56.6636 11.3504,59.7716 Z" id="Stroke-24" stroke="#668EDD" stroke-width="1.638" stroke-linejoin="round"></path>
                <path d="M162.758533,53.9486667 C162.758533,57.058 160.238533,59.578 157.1292,59.578 C154.019867,59.578 151.499867,57.058 151.499867,53.9486667 C151.499867,50.8393333 154.019867,48.3193333 157.1292,48.3193333 C160.238533,48.3193333 162.758533,50.8393333 162.758533,53.9486667" id="Fill-26" fill="#FFFFFF"></path>
                <path d="M162.758533,53.9486667 C162.758533,57.058 160.238533,59.578 157.1292,59.578 C154.019867,59.578 151.499867,57.058 151.499867,53.9486667 C151.499867,50.8393333 154.019867,48.3193333 157.1292,48.3193333 C160.238533,48.3193333 162.758533,50.8393333 162.758533,53.9486667 Z" id="Stroke-28" stroke="#668EDD" stroke-width="1.638" stroke-linejoin="round"></path>
                <path d="M141.0828,23.9252 C141.0828,27.0345333 138.5628,29.5558667 135.453467,29.5558667 C132.344133,29.5558667 129.824133,27.0345333 129.824133,23.9252 C129.824133,20.8172 132.344133,18.2958667 135.453467,18.2958667 C138.5628,18.2958667 141.0828,20.8172 141.0828,23.9252" id="Fill-30" fill="#FFFFFF"></path>
                <path d="M141.0828,23.9252 C141.0828,27.0345333 138.5628,29.5558667 135.453467,29.5558667 C132.344133,29.5558667 129.824133,27.0345333 129.824133,23.9252 C129.824133,20.8172 132.344133,18.2958667 135.453467,18.2958667 C138.5628,18.2958667 141.0828,20.8172 141.0828,23.9252 Z" id="Stroke-32" stroke="#668EDD" stroke-width="1.638" stroke-linejoin="round"></path>
                <polyline id="Stroke-34" stroke="#668EDD" stroke-width="1.638" stroke-linejoin="round" points="103.8132 85.9773333 103.8132 95.3586667 116.947867 95.3586667 116.947867 100.989333"></polyline>
                <path d="M122.576933,106.618 C122.576933,109.727333 120.056933,112.247333 116.9476,112.247333 C113.838267,112.247333 111.318267,109.727333 111.318267,106.618 C111.318267,103.508667 113.838267,100.988667 116.9476,100.988667 C120.056933,100.988667 122.576933,103.508667 122.576933,106.618" id="Fill-36" fill="#FFFFFF"></path>
                <path d="M122.576933,106.618 C122.576933,109.727333 120.056933,112.247333 116.9476,112.247333 C113.838267,112.247333 111.318267,109.727333 111.318267,106.618 C111.318267,103.508667 113.838267,100.988667 116.9476,100.988667 C120.056933,100.988667 122.576933,103.508667 122.576933,106.618 Z" id="Stroke-38" stroke="#668EDD" stroke-width="1.638" stroke-linejoin="round"></path>
                <path d="M45.7266667,48.2637333 C45.7266667,48.2637333 44.2946667,19.6384 72.9213333,19.6384 C95.82,19.6384 100.114667,38.2437333 100.114667,38.2437333 C100.114667,38.2437333 110.133333,29.6570667 121.584,36.8130667 C133.018667,43.9597333 130.178667,53.9624 130.172,53.9890667 C133.033333,52.5570667 139.54,55.7237333 140.222667,56.0757333 C146.922667,59.5304 151.514667,67.5357333 149.278667,75.0290667 C147.422667,81.2397333 141.533333,88.0917333 134.614667,88.3397333 C133.022667,88.3957333 131.42,88.3397333 129.828,88.3397333 L112.565333,88.3397333 L66.736,88.3397333 C58.8506667,88.3397333 50.7346667,88.9024 42.864,88.3397333 C33.1946667,87.6477333 24.5013333,80.8224 23.0413333,70.9797333 C21.6853333,61.8317333 26.4213333,53.6010667 34.98,50.2637333 C38.364,48.9450667 42.092,48.2637333 45.7266667,48.2637333" id="Fill-40" fill="#FFFFFF"></path>
                <path d="M45.7266667,48.2637333 C45.7266667,48.2637333 44.2946667,19.6384 72.9213333,19.6384 C95.82,19.6384 100.114667,38.2437333 100.114667,38.2437333 C100.114667,38.2437333 110.133333,29.6570667 121.584,36.8130667 C133.018667,43.9597333 130.178667,53.9624 130.172,53.9890667 C133.033333,52.5570667 139.54,55.7237333 140.222667,56.0757333 C146.922667,59.5304 151.514667,67.5357333 149.278667,75.0290667 C147.422667,81.2397333 141.533333,88.0917333 134.614667,88.3397333 C133.022667,88.3957333 131.42,88.3397333 129.828,88.3397333 L112.565333,88.3397333 L66.736,88.3397333 C58.8506667,88.3397333 50.7346667,88.9024 42.864,88.3397333 C33.1946667,87.6477333 24.5013333,80.8224 23.0413333,70.9797333 C21.6853333,61.8317333 26.4213333,53.6010667 34.98,50.2637333 C38.364,48.9450667 42.092,48.2637333 45.7266667,48.2637333 Z" id="Stroke-42" stroke="#002077" stroke-width="2.73" stroke-linejoin="round"></path>
                <path d="M50.8522667,47.5749333 C52.3082667,46.1189333 50.8522667,25.7376 74.1456,25.7376" id="Fill-44" fill="#D0DEF4"></path>
            </g>
        </g>
    </g>
</svg>