<?xml version="1.0" encoding="UTF-8"?>
<svg width="76px" height="56px" viewBox="0 0 76 56" version="1.1" xmlns="http://www.w3.org/2000/svg" xmlns:xlink="http://www.w3.org/1999/xlink">
    <!-- Generator: Sketch 50.2 (55047) - http://www.bohemiancoding.com/sketch -->
    <title>icn/solution/dapp-white</title>
    <desc>Created with Sketch.</desc>
    <defs></defs>
    <g id="icn/solution/dapp-white" stroke="none" stroke-width="1" fill="none" fill-rule="evenodd">
        <g id="Group-53" transform="translate(25.000000, 4.000000)">
            <path d="M24.9005444,48 L2.07593333,48 C0.959433333,48 0.0459333333,47.0928 0.0459333333,45.984 L0.0459333333,2.016 C0.0459333333,0.9072 0.959433333,0 2.07593333,0 L24.9005444,0 C26.0170444,0 26.9305444,0.9072 26.9305444,2.016 L26.9305444,45.984 C26.9305444,47.0928 26.0170444,48 24.9005444,48" id="Fill-39"></path>
            <path d="M24.9005444,48 L2.07593333,48 C0.959433333,48 0.0459333333,47.0928 0.0459333333,45.984 L0.0459333333,2.016 C0.0459333333,0.9072 0.959433333,0 2.07593333,0 L24.9005444,0 C26.0170444,0 26.9305444,0.9072 26.9305444,2.016 L26.9305444,45.984 C26.9305444,47.0928 26.0170444,48 24.9005444,48 Z" id="Stroke-41" stroke="#FFFFFF" stroke-width="1.5" stroke-linejoin="round"></path>
            <path d="M24.9005444,0 L2.07593333,0 C0.959433333,0 0.0459333333,0.9072 0.0459333333,2.016 L0.0459333333,6.1808 L26.9305444,6.1808 L26.9305444,2.016 C26.9305444,0.9072 26.0170444,0 24.9005444,0 Z" id="Stroke-45" stroke="#FFFFFF" stroke-width="1.5" stroke-linejoin="round"></path>
            <path d="M0.0462555556,38.9344 L0.0462555556,45.984 C0.0462555556,47.0928 0.959755556,48 2.07625556,48 L24.9008667,48 C26.0173667,48 26.9308667,47.0928 26.9308667,45.984 L26.9308667,38.9344 L0.0462555556,38.9344 Z" id="Stroke-49" stroke="#FFFFFF" stroke-width="1.5" stroke-linejoin="round"></path>
            <path d="M15.98675,44.40944 L10.9890833,44.40944 C10.5846944,44.40944 10.2544167,44.08144 10.2544167,43.67984 L10.2544167,43.47984 C10.2544167,43.07824 10.5846944,42.75024 10.9890833,42.75024 L15.98675,42.75024 C16.3911389,42.75024 16.7230278,43.07824 16.7230278,43.47984 L16.7230278,43.67984 C16.7230278,44.08144 16.3911389,44.40944 15.98675,44.40944" id="Fill-51" fill="#FFFFFF"></path>
        </g>
        <path d="M34.9103962,32.328 L34.9103962,21.368 L38.3343962,21.368 C41.6623962,21.368 43.5343962,23.032 43.5343962,26.536 L43.5343962,26.872 C43.5343962,30.328 41.8863962,32.328 38.3663962,32.328 L34.9103962,32.328 Z M36.5583962,30.952 L38.3983962,30.952 C40.7023962,30.952 41.7583962,29.832 41.7583962,27.08 L41.7583962,26.536 C41.7583962,23.656 40.4783962,22.744 38.2063962,22.744 L36.5583962,22.744 L36.5583962,30.952 Z" id="D" fill="#FFFFFF"></path>
    </g>
</svg>