<?xml version="1.0" encoding="UTF-8"?>
<svg width="76px" height="56px" viewBox="0 0 76 56" version="1.1" xmlns="http://www.w3.org/2000/svg" xmlns:xlink="http://www.w3.org/1999/xlink">
    <!-- Generator: Sketch 50.2 (55047) - http://www.bohemiancoding.com/sketch -->
    <title>icn/solution/data</title>
    <desc>Created with Sketch.</desc>
    <defs></defs>
    <g id="icn/solution/data" stroke="none" stroke-width="1" fill="none" fill-rule="evenodd">
        <g id="Group-24" transform="translate(37.893185, 39.713842)"></g>
        <g id="Group-28" transform="translate(37.893185, 36.981629)"></g>
        <path d="M64.5124135,43.7307451 L12.1544577,43.7307451 C10.87555,43.7307451 9.83993064,42.6868196 9.83993064,41.3976545 L9.83993064,5.1900116 C9.83993064,3.90250354 10.87555,2.85692107 12.1544577,2.85692107 L64.5124135,2.85692107 C65.7896774,2.85692107 66.8269406,3.90250354 66.8269406,5.1900116 L66.8269406,41.3976545 C66.8269406,42.6868196 65.7896774,43.7307451 64.5124135,43.7307451 Z" id="Stroke-1" stroke="#002077" stroke-width="1.5" fill="#FFFFFF" stroke-linecap="round" stroke-linejoin="round"></path>
        <path d="M9.84025941,33.0984472 L9.84025941,41.398483 C9.84025941,42.6859911 10.8758788,43.7315736 12.1547865,43.7315736 L64.5127423,43.7315736 C65.7900062,43.7315736 66.8272694,42.6859911 66.8272694,41.398483 L66.8272694,33.0984472 L9.84025941,33.0984472 Z" id="Stroke-3" stroke="#002077" stroke-width="1.5" stroke-linecap="round" stroke-linejoin="round"></path>
        <path d="M39.7640698,38.4967017 C39.7640698,39.2937305 39.1229721,39.93997 38.3322849,39.93997 C37.5415978,39.93997 36.9021439,39.2937305 36.9021439,38.4967017 C36.9021439,37.7013299 37.5415978,37.0534333 38.3322849,37.0534333 C39.1229721,37.0534333 39.7640698,37.7013299 39.7640698,38.4967017" id="Fill-5" fill="#002077"></path>
        <path d="M50.4893055,53.7206145 C48.9786163,53.4306352 47.448201,52.8805031 46.2892937,51.8266355 C44.7440838,50.4214787 44.6092889,48.550698 44.6092889,46.5672396 L44.6092889,43.7304137 L39.0892734,43.7304137 L37.5769403,43.7304137 L32.0569248,43.7304137 L32.0569248,46.5672396 C32.0569248,48.550698 31.9221299,50.4214787 30.37692,51.8266355 C29.2180127,52.8805031 27.6875974,53.4306352 26.1769082,53.7206145 C25.0377269,53.9393418 23.873888,54.0188789 22.7149806,54.0188789 L37.4454331,54.0188789 L39.2207806,54.0188789 L53.9528769,54.0188789 C52.7939695,54.0188789 51.6284868,53.9393418 50.4893055,53.7206145 Z" id="Stroke-7" stroke="#002077" stroke-width="1.5" stroke-linecap="round" stroke-linejoin="round"></path>
        <g id="Group" transform="translate(19.000000, 8.000000)" stroke="#002077" stroke-width="1.5">
            <path d="M3.23217629,16.4273892 L14.1933031,6.23171733" id="Stroke-9"></path>
            <path d="M6.07848569,16.4273892 C6.07848569,18.0115047 4.80450949,19.2956987 3.23299821,19.2956987 C1.65984309,19.2956987 0.3858669,18.0115047 0.3858669,16.4273892 C0.3858669,14.8416168 1.65984309,13.5590798 3.23299821,13.5590798 C4.80450949,13.5590798 6.07848569,14.8416168 6.07848569,16.4273892" id="Fill-11" fill="#FFFFFF"></path>
            <path d="M14.1933031,6.23122022 L25.152786,13.7723388" id="Stroke-15"></path>
            <path d="M17.0394481,6.23122022 C17.0394481,7.81699269 15.7654719,9.09952967 14.1939606,9.09952967 C12.6208055,9.09952967 11.3468293,7.81699269 11.3468293,6.23122022 C11.3468293,4.64710477 12.6208055,3.36291076 14.1939606,3.36291076 C15.7654719,3.36291076 17.0394481,4.64710477 17.0394481,6.23122022" id="Fill-17" fill="#FFFFFF"></path>
            <path d="M25.1536079,13.7718417 L36.1147347,3.52148801" id="Stroke-21"></path>
            <path d="M27.999753,13.7718417 C27.999753,15.3559572 26.7257768,16.6401512 25.1542655,16.6401512 C23.5811104,16.6401512 22.3071342,15.3559572 22.3071342,13.7718417 C22.3071342,12.1877263 23.5811104,10.9035323 25.1542655,10.9035323 C26.7257768,10.9035323 27.999753,12.1877263 27.999753,13.7718417" id="Fill-23" fill="#FFFFFF"></path>
            <path d="M38.9608797,3.52148801 C38.9608797,5.10560346 37.6869036,6.38979747 36.1153923,6.38979747 C34.5422372,6.38979747 33.268261,5.10560346 33.268261,3.52148801 C33.268261,1.93737256 34.5422372,0.653178557 36.1153923,0.653178557 C37.6869036,0.653178557 38.9608797,1.93737256 38.9608797,3.52148801" id="Fill-27" fill="#FFFFFF"></path>
        </g>
    </g>
</svg>