<?xml version="1.0" encoding="UTF-8"?>
<svg width="76px" height="56px" viewBox="0 0 76 56" version="1.1" xmlns="http://www.w3.org/2000/svg" xmlns:xlink="http://www.w3.org/1999/xlink">
    <!-- Generator: Sketch 50.2 (55047) - http://www.bohemiancoding.com/sketch -->
    <title>icn/solution/ethereum-white</title>
    <desc>Created with Sketch.</desc>
    <defs></defs>
    <g id="icn/solution/ethereum-white" stroke="none" stroke-width="1" fill="none" fill-rule="evenodd" stroke-linejoin="round">
        <g id="Group-59" transform="translate(15.000000, 1.000000)" stroke="#FFFFFF" stroke-linecap="round" stroke-width="1.5">
            <path d="M23,8 L23,0" id="Stroke-23"></path>
            <path d="M20,3 L23,0" id="Stroke-25"></path>
            <path d="M26,3 L23,0" id="Stroke-27"></path>
            <path d="M39,17 L46,13" id="Stroke-29"></path>
            <path d="M42,12 L46,13" id="Stroke-31"></path>
            <path d="M45,17 L46,13" id="Stroke-33"></path>
            <path d="M39,36 L46,40" id="Stroke-35"></path>
            <path d="M45,36 L46,40" id="Stroke-37"></path>
            <path d="M42,41 L46,40" id="Stroke-39"></path>
            <path d="M23.015,46 L23,54" id="Stroke-41"></path>
            <path d="M26,51 L23,54" id="Stroke-43"></path>
            <path d="M20,51 L23,54" id="Stroke-45"></path>
            <path d="M7,36 L0,40" id="Stroke-47"></path>
            <path d="M4,41 L0,40" id="Stroke-49"></path>
            <path d="M1,36 L0,40" id="Stroke-51"></path>
            <path d="M7,17 L0,13" id="Stroke-53"></path>
            <path d="M1,17 L0,13" id="Stroke-55"></path>
            <path d="M4,12 L0,13" id="Stroke-57"></path>
        </g>
        <g id="Group" transform="translate(26.000000, 14.000000)" stroke="#FFFFFF" stroke-width="1.5">
            <polygon id="Fill-1" points="0 21.0328428 11.983131 28 12 13.96865 0.0291373802 7"></polygon>
            <polygon id="Fill-4" points="12.0184237 13.9671572 12 28 24 21.03135 23.9692938 7"></polygon>
            <polygon id="Fill-7" points="0 6.90259782 12 14 24 6.90259782 12 0"></polygon>
        </g>
    </g>
</svg>