<?xml version="1.0" encoding="UTF-8"?>
<svg width="76px" height="56px" viewBox="0 0 76 56" version="1.1" xmlns="http://www.w3.org/2000/svg" xmlns:xlink="http://www.w3.org/1999/xlink">
    <!-- Generator: Sketch 50.2 (55047) - http://www.bohemiancoding.com/sketch -->
    <title>icn/solution/fabric-white</title>
    <desc>Created with Sketch.</desc>
    <defs></defs>
    <g id="icn/solution/fabric-white" stroke="none" stroke-width="1" fill="none" fill-rule="evenodd">
        <path d="M28.1836566,9.93219341 L25.9713259,8.87058734 C25.5679468,8.67671524 25.3990905,8.19203501 25.5913991,7.78865597 L28.4838457,1.76767664 C28.6761543,1.36429761 29.1608345,1.19544127 29.5642136,1.38774988 L31.7749808,2.44935594 C32.1783599,2.64322804 32.3487797,3.12790827 32.1549076,3.53128731 L29.2640245,9.55226664 C29.0701524,9.95564568 28.5870357,10.1260655 28.1836566,9.93219341" id="Fill-1"></path>
        <path d="M28.1836566,9.93219341 L25.9713259,8.87058734 C25.5679468,8.67671524 25.3990905,8.19203501 25.5913991,7.78865597 L28.4838457,1.76767664 C28.6761543,1.36429761 29.1608345,1.19544127 29.5642136,1.38774988 L31.7749808,2.44935594 C32.1783599,2.64322804 32.3487797,3.12790827 32.1549076,3.53128731 L29.2640245,9.55226664 C29.0701524,9.95564568 28.5870357,10.1260655 28.1836566,9.93219341 Z" id="Stroke-3" stroke="#FFFFFF" stroke-width="1.5" stroke-linecap="round" stroke-linejoin="round"></path>
        <path d="M49.9137478,20.8773676 L47.7405042,19.8345233 C47.3277442,19.6359608 47.152634,19.1387727 47.3511965,18.7244493 L50.4156264,12.3438685 C50.6141889,11.929545 51.111377,11.7559982 51.524137,11.9529973 L53.6973806,12.9958415 C54.1117041,13.1959676 54.2852509,13.6915922 54.0866883,14.1059156 L51.0222584,20.4864964 C50.8252594,20.9008199 50.3280712,21.0759301 49.9137478,20.8773676" id="Fill-5"></path>
        <path d="M49.9137478,20.8773676 L47.7405042,19.8345233 C47.3277442,19.6359608 47.152634,19.1387727 47.3511965,18.7244493 L50.4156264,12.3438685 C50.6141889,11.929545 51.111377,11.7559982 51.524137,11.9529973 L53.6973806,12.9958415 C54.1117041,13.1959676 54.2852509,13.6915922 54.0866883,14.1059156 L51.0222584,20.4864964 C50.8252594,20.9008199 50.3280712,21.0759301 49.9137478,20.8773676 Z" id="Stroke-7" stroke="#FFFFFF" stroke-width="1.5" stroke-linecap="round" stroke-linejoin="round"></path>
        <path d="M24.881108,44.7022155 L22.7141183,43.6609347 C22.2982314,43.4623722 22.1231211,42.9636206 22.3232472,42.5477337 L25.4111293,36.1171214 C25.6096919,35.7012345 26.1084435,35.5261242 26.5243304,35.7262502 L28.6913201,36.7659675 C29.107207,36.9660935 29.2807538,37.4648451 29.0821912,37.880732 L25.9943091,44.3113443 C25.7941831,44.7272313 25.2969949,44.9007781 24.881108,44.7022155" id="Fill-9"></path>
        <path d="M24.881108,44.7022155 L22.7141183,43.6609347 C22.2982314,43.4623722 22.1231211,42.9636206 22.3232472,42.5477337 L25.4111293,36.1171214 C25.6096919,35.7012345 26.1084435,35.5261242 26.5243304,35.7262502 L28.6913201,36.7659675 C29.107207,36.9660935 29.2807538,37.4648451 29.0821912,37.880732 L25.9943091,44.3113443 C25.7941831,44.7272313 25.2969949,44.9007781 24.881108,44.7022155 Z" id="Stroke-11" stroke="#FFFFFF" stroke-width="1.5" stroke-linecap="round" stroke-linejoin="round"></path>
        <path d="M47.0317766,55.0083935 L44.8647869,53.9671128 C44.4489,53.7685502 44.2737897,53.2697986 44.4739157,52.8539117 L47.5617979,46.4232994 C47.7603604,46.0074125 48.259112,45.8323022 48.6749989,46.0324282 L50.8419886,47.073709 C51.2578756,47.2722715 51.4329858,47.7710231 51.2328598,48.1869101 L48.1449777,54.6175224 C47.9448516,55.0334093 47.4476635,55.2069561 47.0317766,55.0083935" id="Fill-13"></path>
        <path d="M47.0317766,55.0083935 L44.8647869,53.9671128 C44.4489,53.7685502 44.2737897,53.2697986 44.4739157,52.8539117 L47.5617979,46.4232994 C47.7603604,46.0074125 48.259112,45.8323022 48.6749989,46.0324282 L50.8419886,47.073709 C51.2578756,47.2722715 51.4329858,47.7710231 51.2328598,48.1869101 L48.1449777,54.6175224 C47.9448516,55.0334093 47.4476635,55.2069561 47.0317766,55.0083935 Z" id="Stroke-15" stroke="#FFFFFF" stroke-width="1.5" stroke-linecap="round" stroke-linejoin="round"></path>
        <path d="M33.6727385,25.9785489 L31.8293901,25.0936166 C31.3243846,24.8512765 31.1117506,24.2446445 31.3540908,23.7396389 L35.7553,14.5760555 C35.9960766,14.0710499 36.6027087,13.858416 37.1077142,14.1007561 L38.9510626,14.9856884 C39.4560681,15.2280286 39.6687021,15.8330971 39.4263619,16.3381027 L35.0251527,25.5032496 C34.7828126,26.0082551 34.177744,26.220889 33.6727385,25.9785489" id="Fill-17"></path>
        <path d="M33.6727385,25.9785489 L31.8293901,25.0936166 C31.3243846,24.8512765 31.1117506,24.2446445 31.3540908,23.7396389 L35.7553,14.5760555 C35.9960766,14.0710499 36.6027087,13.858416 37.1077142,14.1007561 L38.9510626,14.9856884 C39.4560681,15.2280286 39.6687021,15.8330971 39.4263619,16.3381027 L35.0251527,25.5032496 C34.7828126,26.0082551 34.177744,26.220889 33.6727385,25.9785489 Z" id="Stroke-19" stroke="#FFFFFF" stroke-width="1.5" stroke-linecap="round" stroke-linejoin="round"></path>
        <path d="M55.7988603,36.330537 L53.9602024,35.4471682 C53.4536334,35.2048281 53.239436,34.5966326 53.4833396,34.0900635 L57.9095646,24.8717581 C58.1534682,24.3651891 58.7601002,24.1525552 59.2666693,24.3948953 L61.1053272,25.2782641 C61.6118962,25.5206043 61.8245301,26.1287998 61.58219,26.6338053 L57.1544015,35.8536742 C56.9120614,36.3602432 56.3038659,36.5728771 55.7988603,36.330537" id="Fill-21"></path>
        <path d="M55.7988603,36.330537 L53.9602024,35.4471682 C53.4536334,35.2048281 53.239436,34.5966326 53.4833396,34.0900635 L57.9095646,24.8717581 C58.1534682,24.3651891 58.7601002,24.1525552 59.2666693,24.3948953 L61.1053272,25.2782641 C61.6118962,25.5206043 61.8245301,26.1287998 61.58219,26.6338053 L57.1544015,35.8536742 C56.9120614,36.3602432 56.3038659,36.5728771 55.7988603,36.330537 Z" id="Stroke-23" stroke="#FFFFFF" stroke-width="1.5" stroke-linecap="round" stroke-linejoin="round"></path>
        <path d="M39.3105077,42.5149005 L37.4859212,41.6377856 C36.9746617,41.393882 36.7604643,40.7825595 37.0043679,40.2713 L41.5118941,30.8857018 C41.7573612,30.3744423 42.3686837,30.1602449 42.8783797,30.405712 L44.7045297,31.2812634 C45.2142257,31.5267305 45.4284231,32.138053 45.182956,32.647749 L40.6769933,42.0349107 C40.4315262,42.5446067 39.8202037,42.7588041 39.3105077,42.5149005" id="Fill-25"></path>
        <path d="M39.3105077,42.5149005 L37.4859212,41.6377856 C36.9746617,41.393882 36.7604643,40.7825595 37.0043679,40.2713 L41.5118941,30.8857018 C41.7573612,30.3744423 42.3686837,30.1602449 42.8783797,30.405712 L44.7045297,31.2812634 C45.2142257,31.5267305 45.4284231,32.138053 45.182956,32.647749 L40.6769933,42.0349107 C40.4315262,42.5446067 39.8202037,42.7588041 39.3105077,42.5149005 Z" id="Stroke-27" stroke="#FFFFFF" stroke-width="1.5" stroke-linecap="round" stroke-linejoin="round"></path>
        <path d="M28.4699307,19.3565661 L22.4505148,16.5125875 C21.8532637,16.2295968 21.5968522,15.5150843 21.8798429,14.9178332 L22.8226242,12.9212633 C23.1056149,12.3240122 23.8201274,12.0676007 24.4173785,12.3505914 L30.4367943,15.19457 C31.0356089,15.4775607 31.2904569,16.1920732 31.0090297,16.7893243 L30.0662485,18.7858942 C29.7816943,19.3847088 29.0687453,19.6395568 28.4699307,19.3565661" id="Fill-29"></path>
        <path d="M28.4699307,19.3565661 L22.4505148,16.5125875 C21.8532637,16.2295968 21.5968522,15.5150843 21.8798429,14.9178332 L22.8226242,12.9212633 C23.1056149,12.3240122 23.8201274,12.0676007 24.4173785,12.3505914 L30.4367943,15.19457 C31.0356089,15.4775607 31.2904569,16.1920732 31.0090297,16.7893243 L30.0662485,18.7858942 C29.7816943,19.3847088 29.0687453,19.6395568 28.4699307,19.3565661 Z" id="Stroke-31" stroke="#FFFFFF" stroke-width="1.5" stroke-linecap="round" stroke-linejoin="round"></path>
        <path d="M49.7938285,29.6245951 L40.9210532,25.4313293 C40.1909059,25.0857992 39.878209,24.2149382 40.2237391,23.4832274 L40.9398151,21.9682108 C41.2853452,21.2365 42.1577696,20.9253666 42.8879169,21.2693332 L51.7606922,25.462599 C52.492403,25.8081291 52.8035365,26.6805535 52.4595698,27.4107008 L51.7434939,28.9272809 C51.3964003,29.6574283 50.5255394,29.9701252 49.7938285,29.6245951" id="Fill-33"></path>
        <path d="M49.7938285,29.6245951 L40.9210532,25.4313293 C40.1909059,25.0857992 39.878209,24.2149382 40.2237391,23.4832274 L40.9398151,21.9682108 C41.2853452,21.2365 42.1577696,20.9253666 42.8879169,21.2693332 L51.7606922,25.462599 C52.492403,25.8081291 52.8035365,26.6805535 52.4595698,27.4107008 L51.7434939,28.9272809 C51.3964003,29.6574283 50.5255394,29.9701252 49.7938285,29.6245951 Z" id="Stroke-35" stroke="#FFFFFF" stroke-width="1.5" stroke-linecap="round" stroke-linejoin="round"></path>
        <path d="M44.4651602,13.4484703 L34.6496037,8.80961144 C33.8866232,8.45000997 33.5614184,7.54006191 33.9210198,6.77708141 L34.5839373,5.37619918 C34.9435388,4.61478216 35.8550503,4.28801387 36.6164673,4.64917882 L46.4320239,9.28647425 C47.1950044,9.6476392 47.5217727,10.5575873 47.1606077,11.3205678 L46.4992537,12.7198865 C46.1380888,13.482867 45.2281407,13.8080718 44.4651602,13.4484703" id="Fill-37"></path>
        <path d="M44.4651602,13.4484703 L34.6496037,8.80961144 C33.8866232,8.45000997 33.5614184,7.54006191 33.9210198,6.77708141 L34.5839373,5.37619918 C34.9435388,4.61478216 35.8550503,4.28801387 36.6164673,4.64917882 L46.4320239,9.28647425 C47.1950044,9.6476392 47.5217727,10.5575873 47.1606077,11.3205678 L46.4992537,12.7198865 C46.1380888,13.482867 45.2281407,13.8080718 44.4651602,13.4484703 Z" id="Stroke-39" stroke="#FFFFFF" stroke-width="1.5" stroke-linecap="round" stroke-linejoin="round"></path>
        <path d="M33.4788664,35.3602385 L24.6967732,31.2107502 C23.9681893,30.8667836 23.6570559,29.9974862 24.0010225,29.2689023 L24.7233524,27.7429413 C25.067319,27.015921 25.935053,26.7047875 26.6636369,27.0487541 L35.4457301,31.1982424 C36.1743139,31.542209 36.4838839,32.4115064 36.1414807,33.1400903 L35.4191508,34.6660513 C35.0751842,35.3930716 34.2058867,35.7042051 33.4788664,35.3602385" id="Fill-41"></path>
        <path d="M33.4788664,35.3602385 L24.6967732,31.2107502 C23.9681893,30.8667836 23.6570559,29.9974862 24.0010225,29.2689023 L24.7233524,27.7429413 C25.067319,27.015921 25.935053,26.7047875 26.6636369,27.0487541 L35.4457301,31.1982424 C36.1743139,31.542209 36.4838839,32.4115064 36.1414807,33.1400903 L35.4191508,34.6660513 C35.0751842,35.3930716 34.2058867,35.7042051 33.4788664,35.3602385 Z" id="Stroke-43" stroke="#FFFFFF" stroke-width="1.5" stroke-linecap="round" stroke-linejoin="round"></path>
        <path d="M39.8533496,51.8798608 L30.037793,47.2410019 C29.2748125,46.8814004 28.9496077,45.9714523 29.3092092,45.2084718 L29.9721267,43.8075896 C30.3317282,43.0461726 31.2416762,42.7194043 32.0046567,43.0805692 L41.8202133,47.7178647 C42.5831938,48.0790296 42.909962,48.9889777 42.5487971,49.7519582 L41.8874431,51.1512769 C41.5262781,51.9142574 40.6163301,52.2394622 39.8533496,51.8798608" id="Fill-45"></path>
        <path d="M39.8533496,51.8798608 L30.037793,47.2410019 C29.2748125,46.8814004 28.9496077,45.9714523 29.3092092,45.2084718 L29.9721267,43.8075896 C30.3317282,43.0461726 31.2416762,42.7194043 32.0046567,43.0805692 L41.8202133,47.7178647 C42.5831938,48.0790296 42.909962,48.9889777 42.5487971,49.7519582 L41.8874431,51.1512769 C41.5262781,51.9142574 40.6163301,52.2394622 39.8533496,51.8798608 Z" id="Stroke-47" stroke="#FFFFFF" stroke-width="1.5" stroke-linecap="round" stroke-linejoin="round"></path>
        <path d="M62.5673417,22.0026075 L56.5479258,19.1586289 C55.9506747,18.8756382 55.6942632,18.1611257 55.9772539,17.5638746 L56.9200352,15.5673047 C57.2030259,14.9700536 57.9159749,14.7136421 58.5147895,14.9966328 L64.5342053,17.8406114 C65.1314565,18.1236021 65.3878679,18.8381146 65.1048772,19.4353657 L64.162096,21.4319356 C63.8791053,22.0291867 63.1645928,22.2855982 62.5673417,22.0026075" id="Fill-49"></path>
        <path d="M62.5673417,22.0026075 L56.5479258,19.1586289 C55.9506747,18.8756382 55.6942632,18.1611257 55.9772539,17.5638746 L56.9200352,15.5673047 C57.2030259,14.9700536 57.9159749,14.7136421 58.5147895,14.9966328 L64.5342053,17.8406114 C65.1314565,18.1236021 65.3878679,18.8381146 65.1048772,19.4353657 L64.162096,21.4319356 C63.8791053,22.0291867 63.1645928,22.2855982 62.5673417,22.0026075 Z" id="Stroke-51" stroke="#FFFFFF" stroke-width="1.5" stroke-linecap="round" stroke-linejoin="round"></path>
        <path d="M52.2597565,43.8150943 L46.2403407,40.9711158 C45.6430895,40.6881251 45.3866781,39.9736126 45.6696688,39.3763614 L46.61245,37.3797916 C46.8954407,36.7825404 47.6083897,36.526129 48.2072043,36.8091197 L54.2266202,39.6530982 C54.8238713,39.9360889 55.0802828,40.6506014 54.7972921,41.2478526 L53.8545108,43.2444224 C53.5715201,43.8416736 52.8570076,44.098085 52.2597565,43.8150943" id="Fill-53"></path>
        <path d="M52.2597565,43.8150943 L46.2403407,40.9711158 C45.6430895,40.6881251 45.3866781,39.9736126 45.6696688,39.3763614 L46.61245,37.3797916 C46.8954407,36.7825404 47.6083897,36.526129 48.2072043,36.8091197 L54.2266202,39.6530982 C54.8238713,39.9360889 55.0802828,40.6506014 54.7972921,41.2478526 L53.8545108,43.2444224 C53.5715201,43.8416736 52.8570076,44.098085 52.2597565,43.8150943 Z" id="Stroke-55" stroke="#FFFFFF" stroke-width="1.5" stroke-linecap="round" stroke-linejoin="round"></path>
        <path d="M17.9852027,41.5453837 L11.9657869,38.7014051 C11.3685357,38.4184144 11.1121242,37.7039019 11.395115,37.1066508 L12.3378962,35.1100809 C12.6208869,34.5128298 13.3338359,34.2564183 13.9326505,34.539409 L19.9520664,37.3833876 C20.5493175,37.6663783 20.805729,38.3808908 20.5227383,38.9781419 L19.579957,40.9747118 C19.2969663,41.5735264 18.5824538,41.8283744 17.9852027,41.5453837" id="Fill-57"></path>
        <path d="M17.9852027,41.5453837 L11.9657869,38.7014051 C11.3685357,38.4184144 11.1121242,37.7039019 11.395115,37.1066508 L12.3378962,35.1100809 C12.6208869,34.5128298 13.3338359,34.2564183 13.9326505,34.539409 L19.9520664,37.3833876 C20.5493175,37.6663783 20.805729,38.3808908 20.5227383,38.9781419 L19.579957,40.9747118 C19.2969663,41.5735264 18.5824538,41.8283744 17.9852027,41.5453837 Z" id="Stroke-59" stroke="#FFFFFF" stroke-width="1.5" stroke-linecap="round" stroke-linejoin="round"></path>
        <path d="M17.2789767,32.100373 L15.4887868,31.2420199 C14.9697099,30.9918624 14.750822,30.368032 14.9994161,29.8489551 L19.6226402,20.2225802 C19.8712342,19.7035033 20.4950646,19.4846155 21.015705,19.7332095 L22.8043314,20.5931261 C23.3249718,20.8417201 23.5438596,21.4655505 23.2937021,21.9861909 L18.6720415,31.6110023 C18.421884,32.1316427 17.7996171,32.3505305 17.2789767,32.100373" id="Fill-61"></path>
        <path d="M17.2789767,32.100373 L15.4887868,31.2420199 C14.9697099,30.9918624 14.750822,30.368032 14.9994161,29.8489551 L19.6226402,20.2225802 C19.8712342,19.7035033 20.4950646,19.4846155 21.015705,19.7332095 L22.8043314,20.5931261 C23.3249718,20.8417201 23.5438596,21.4655505 23.2937021,21.9861909 L18.6720415,31.6110023 C18.421884,32.1316427 17.7996171,32.3505305 17.2789767,32.100373 Z" id="Stroke-63" stroke="#FFFFFF" stroke-width="1.5" stroke-linecap="round" stroke-linejoin="round"></path>
    </g>
</svg>