<?xml version="1.0" encoding="UTF-8"?>
<svg width="966px" height="370px" viewBox="0 0 966 370" version="1.1" xmlns="http://www.w3.org/2000/svg" xmlns:xlink="http://www.w3.org/1999/xlink">
    <!-- Generator: sketchtool 50.2 (55047) - http://www.bohemiancoding.com/sketch -->
    <title>31ADF40A-C023-4D0B-8FB5-898805DA67BE</title>
    <desc>Created with sketchtool.</desc>
    <defs>
        <circle id="path-1" cx="130" cy="108" r="6"></circle>
        <filter x="-125.0%" y="-125.0%" width="350.0%" height="350.0%" filterUnits="objectBoundingBox" id="filter-2">
            <feOffset dx="0" dy="0" in="SourceAlpha" result="shadowOffsetOuter1"></feOffset>
            <feGaussianBlur stdDeviation="5" in="shadowOffsetOuter1" result="shadowBlurOuter1"></feGaussianBlur>
            <feColorMatrix values="0 0 0 0 0.430114973   0 0 0 0 0.814565193   0 0 0 0 0.877683886  0 0 0 0.575860507 0" type="matrix" in="shadowBlurOuter1"></feColorMatrix>
        </filter>
        <circle id="path-3" cx="240" cy="182" r="5"></circle>
        <filter x="-150.0%" y="-150.0%" width="400.0%" height="400.0%" filterUnits="objectBoundingBox" id="filter-4">
            <feOffset dx="0" dy="0" in="SourceAlpha" result="shadowOffsetOuter1"></feOffset>
            <feGaussianBlur stdDeviation="5" in="shadowOffsetOuter1" result="shadowBlurOuter1"></feGaussianBlur>
            <feColorMatrix values="0 0 0 0 0.297383489   0 0 0 0 0.714111052   0 0 0 0 0.818292942  0 0 0 0.592702672 0" type="matrix" in="shadowBlurOuter1"></feColorMatrix>
        </filter>
        <circle id="path-5" cx="136" cy="210" r="5"></circle>
        <filter x="-150.0%" y="-150.0%" width="400.0%" height="400.0%" filterUnits="objectBoundingBox" id="filter-6">
            <feOffset dx="0" dy="0" in="SourceAlpha" result="shadowOffsetOuter1"></feOffset>
            <feGaussianBlur stdDeviation="5" in="shadowOffsetOuter1" result="shadowBlurOuter1"></feGaussianBlur>
            <feColorMatrix values="0 0 0 0 0.682601644   0 0 0 0 0.593237058   0 0 0 0 1  0 0 0 0.586107337 0" type="matrix" in="shadowBlurOuter1"></feColorMatrix>
        </filter>
        <circle id="path-7" cx="919" cy="179" r="6"></circle>
        <filter x="-125.0%" y="-125.0%" width="350.0%" height="350.0%" filterUnits="objectBoundingBox" id="filter-8">
            <feOffset dx="0" dy="0" in="SourceAlpha" result="shadowOffsetOuter1"></feOffset>
            <feGaussianBlur stdDeviation="5" in="shadowOffsetOuter1" result="shadowBlurOuter1"></feGaussianBlur>
            <feColorMatrix values="0 0 0 0 0.265496614   0 0 0 0 0.567545523   0 0 0 0 0.693399235  0 0 0 0.515511775 0" type="matrix" in="shadowBlurOuter1"></feColorMatrix>
        </filter>
        <linearGradient x1="21.0509808%" y1="5.74652974%" x2="87.4689044%" y2="85.7807028%" id="linearGradient-9">
            <stop stop-color="#A2B0B8" offset="0%"></stop>
            <stop stop-color="#939BA0" offset="100%"></stop>
        </linearGradient>
        <circle id="path-10" cx="808" cy="291" r="76"></circle>
        <filter x="-9.9%" y="-9.9%" width="119.7%" height="119.7%" filterUnits="objectBoundingBox" id="filter-11">
            <feOffset dx="0" dy="0" in="SourceAlpha" result="shadowOffsetOuter1"></feOffset>
            <feGaussianBlur stdDeviation="5" in="shadowOffsetOuter1" result="shadowBlurOuter1"></feGaussianBlur>
            <feColorMatrix values="0 0 0 0 0.160784314   0 0 0 0 0.160784314   0 0 0 0 0.176470588  0 0 0 0.5 0" type="matrix" in="shadowBlurOuter1"></feColorMatrix>
        </filter>
        <linearGradient x1="20.1937954%" y1="8.32125233%" x2="83.2211114%" y2="88.1703684%" id="linearGradient-12">
            <stop stop-color="#B4BDC3" offset="0%"></stop>
            <stop stop-color="#A3A8AC" offset="100%"></stop>
        </linearGradient>
        <ellipse id="path-13" cx="60.1132149" cy="120.200392" rx="60.1132149" ry="60.2003916"></ellipse>
        <filter x="-25.0%" y="-24.9%" width="149.9%" height="149.8%" filterUnits="objectBoundingBox" id="filter-14">
            <feOffset dx="0" dy="0" in="SourceAlpha" result="shadowOffsetOuter1"></feOffset>
            <feGaussianBlur stdDeviation="10" in="shadowOffsetOuter1" result="shadowBlurOuter1"></feGaussianBlur>
            <feColorMatrix values="0 0 0 0 0.160784314   0 0 0 0 0.160784314   0 0 0 0 0.176470588  0 0 0 0.252094656 0" type="matrix" in="shadowBlurOuter1"></feColorMatrix>
        </filter>
        <circle id="path-15" cx="783" cy="121" r="6"></circle>
        <filter x="-125.0%" y="-125.0%" width="350.0%" height="350.0%" filterUnits="objectBoundingBox" id="filter-16">
            <feOffset dx="0" dy="0" in="SourceAlpha" result="shadowOffsetOuter1"></feOffset>
            <feGaussianBlur stdDeviation="5" in="shadowOffsetOuter1" result="shadowBlurOuter1"></feGaussianBlur>
            <feColorMatrix values="0 0 0 0 0.323851449   0 0 0 0 0.714348384   0 0 0 0 0.778459821  0 0 0 0.572492074 0" type="matrix" in="shadowBlurOuter1"></feColorMatrix>
        </filter>
    </defs>
    <g id="Symbols" stroke="none" stroke-width="1" fill="none" fill-rule="evenodd">
        <g id="img_primeblock" transform="translate(20.000000, -7.000000)">
            <g id="선" transform="translate(61.000000, 47.000000)" stroke="#A3A8AC">
                <path d="M669.074303,0.890625 L806.798762,55.21875 L669.074303,0.890625 Z" id="Path-7-Copy-2" opacity="0.69848279"></path>
                <polygon id="Path-7-Copy-2" opacity="0.867413949" points="0 111.328125 49.9500548 193.382153 149.275542 285 49.9500548 193.382153"></polygon>
                <path d="M179.576993,134.429746 L149.275542,285 L179.576993,134.429746 Z" id="Path-7-Copy-2" opacity="0.867413949"></path>
                <polyline id="Path-7" opacity="0.928328804" stroke-linecap="round" points="239.907121 62.34375 220.7584 40.8144851 187.998514 37.1678826 142.825634 16.0510665"></polyline>
                <path d="M187.927245,36.9609375 L134.100967,67.3319102" id="Path-7" opacity="0.928328804" stroke-linecap="round"></path>
                <path d="M90.1873065,104.648437 L134.100967,67.3319102" id="Path-7" opacity="0.928328804" stroke-linecap="round"></path>
                <path d="M90.1873065,104.648438 L75.0820433,161.648438" id="Path-7" opacity="0.928328804" stroke-linecap="round"></path>
                <path d="M122.483415,253.671063 L75.0820433,161.648438" id="Path-7" opacity="0.928328804" stroke-linecap="round"></path>
                <path d="M50.2027864,192.820312 L75.1768928,161.742463" id="Path-7" opacity="0.928328804" stroke-linecap="round"></path>
                <path d="M70.6393189,59.2265625 L134.100967,67.3319102" id="Path-7" opacity="0.928328804" stroke-linecap="round"></path>
                <path d="M241.684211,198.609375 L200.811146,229.78125" id="Path-7-Copy"></path>
                <path d="M808.575851,199.5 L860.363572,132.519405 L808.575851,199.5 Z" id="Path-7-Copy-2" opacity="0.867413949"></path>
                <path d="M860.030451,132.568339 L808.575851,53.4375 L860.030451,132.568339 Z" id="Path-7-Copy-2" opacity="0.867413949"></path>
                <path d="M860.216152,132.640819 L763.235416,137.455423 L860.216152,132.640819 Z" id="Path-7-Copy-2" opacity="0.867413949"></path>
                <path d="M758.52211,182.153934 L763.235416,137.455423 L758.52211,182.153934 Z" id="Path-7-Copy-2" opacity="0.867413949"></path>
                <path d="M722.170882,73.2619806 L763.487658,137.502522 L722.170882,73.2619806 Z" id="Path-7-Copy-2" opacity="0.867413949"></path>
                <path d="M722.863027,74.1956088 L710.180705,38.9947544 L722.863027,74.1956088 Z" id="Path-7-Copy-2" opacity="0.867413949"></path>
                <path d="M666.79726,96.7754974 L721.976519,21.8444616 L666.79726,96.7754974 Z" id="Path-7-Copy-2" opacity="0.867413949"></path>
                <path d="M666.79726,96.7754974 L677.792044,133.428523 L666.79726,96.7754974 Z" id="Path-7-Copy-2" opacity="0.867413949"></path>
                <polygon id="Path-7-Copy-2" opacity="0.867413949" points="628.511454 188.333268 677.996873 133.173436 763.327241 137.532598 677.996873 133.173436"></polygon>
                <path d="M596.213622,54.328125 L629.978328,25.828125 L596.213622,54.328125 Z" id="Path-7-Copy"></path>
                <polygon id="Path-7" opacity="0.69848279" points="0 110.4375 69.9200252 59.4968779 116.399381 0 69.9200252 59.4968779"></polygon>
                <path d="M607.764706,181.6875 L677.959752,204.84375 L607.764706,181.6875 Z" id="Path-7" opacity="0.928328804"></path>
                <path d="M179.486068,134.484375 L220.359133,121.125 L179.486068,134.484375 Z" id="Path-7"></path>
                <polygon id="Path-7-Copy-2" opacity="0.867413949" points="0.888544892 110.4375 90.2775659 104.931965 179.666587 134.555003 90.2775659 104.931965"></polygon>
                <polygon id="Path-7" points="620.204334 99.75 666.982558 96.9313987 723.024555 73.8895144 666.982558 96.9313987"></polygon>
                <path d="M723.709431,74.3671875 L803.378773,56.3670242" id="Path-7" opacity="0.928328804" stroke-linecap="round"></path>
            </g>
            <g id="Oval-7">
                <use fill="black" fill-opacity="1" filter="url(#filter-2)" xlink:href="#path-1"></use>
                <use fill="#589BA6" fill-rule="evenodd" xlink:href="#path-1"></use>
            </g>
            <circle id="Oval-7-Copy" fill="#757575" cx="151.5" cy="151.5" r="3.5"></circle>
            <circle id="Oval-7-Copy-12" fill="#6413D8" cx="739.5" cy="180.5" r="4.5"></circle>
            <circle id="Oval-7-Copy-15" fill="#C0C0C0" cx="728.5" cy="143.5" r="4.5"></circle>
            <circle id="Oval-7-Copy-16" fill="#757575" cx="771" cy="86" r="3"></circle>
            <circle id="Oval-7-Copy-9" fill="#C7C7C7" cx="248.5" cy="84.5" r="3.5"></circle>
            <circle id="Oval-7-Copy-10" fill="#DCDCDC" cx="281" cy="90" r="6"></circle>
            <circle id="Oval-7-Copy-7" fill="#9B9B9B" cx="110.5" cy="240.5" r="3.5"></circle>
            <circle id="Oval-7-Copy-13" fill="#6D6D6D" cx="194.5" cy="114.5" r="3.5"></circle>
            <g id="Oval-7-Copy-6">
                <use fill="black" fill-opacity="1" filter="url(#filter-4)" xlink:href="#path-3"></use>
                <use fill="#589BA6" fill-rule="evenodd" xlink:href="#path-3"></use>
            </g>
            <g id="Oval-7-Copy-14">
                <use fill="black" fill-opacity="1" filter="url(#filter-6)" xlink:href="#path-5"></use>
                <use fill="#AE97FF" fill-rule="evenodd" xlink:href="#path-5"></use>
            </g>
            <circle id="Oval-7-Copy-2" fill="#C0C0C0" cx="690" cy="235" r="6"></circle>
            <circle id="Oval-7-Copy-11" fill="#C0C0C0" cx="823" cy="185" r="6"></circle>
            <circle id="Oval-7-Copy-5" fill="#8DC7D0" cx="683.5" cy="79.5" r="3.5"></circle>
            <g id="Oval-7-Copy-4">
                <use fill="black" fill-opacity="1" filter="url(#filter-8)" xlink:href="#path-7"></use>
                <use fill="#387483" fill-rule="evenodd" xlink:href="#path-7"></use>
            </g>
            <circle id="Oval-7" fill="#C0C0C0" cx="782" cy="69" r="6"></circle>
            <g id="덩어리" transform="translate(684.000000, 7.000000)">
                <circle id="덩어리-흰색" fill="#FFFFFF" cx="43.5" cy="43.5" r="43.5"></circle>
                <circle fill-opacity="0.75999999" fill="url(#linearGradient-9)" opacity="0.62279212" cx="43.5" cy="43.5" r="43.5"></circle>
            </g>
            <circle id="Oval-5-Copy-2" fill="#FFFFFF" cx="866" cy="102" r="60"></circle>
            <circle id="Oval-5-Copy-2" fill="#18669C" opacity="0.85377038" cx="866" cy="102" r="60"></circle>
            <path d="M843.65,107.16 L843.65,93.46 L847.93,93.46 C852.09,93.46 854.43,95.54 854.43,99.92 L854.43,100.34 C854.43,104.66 852.37,107.16 847.97,107.16 L843.65,107.16 Z M845.71,105.44 L848.01,105.44 C850.89,105.44 852.21,104.04 852.21,100.6 L852.21,99.92 C852.21,96.32 850.61,95.18 847.77,95.18 L845.71,95.18 L845.71,105.44 Z M855.53,107.16 L860.49,93.46 L862.57,93.46 L867.49,107.16 L865.33,107.16 L864.01,103.44 L858.77,103.44 L857.47,107.16 L855.53,107.16 Z M861.33,96.06 L859.33,101.8 L863.41,101.8 L861.39,96.06 L861.33,96.06 Z M869.03,110.16 L869.03,96.96 L870.93,96.96 L870.93,97.78 L871.01,97.78 C871.63,97.2 872.69,96.76 873.93,96.76 C876.15,96.76 878.09,97.98 878.09,101.74 L878.09,102.02 C878.09,105.8 876.29,107.22 873.49,107.22 C872.35,107.22 871.53,106.92 870.99,106.62 L870.99,110.16 L869.03,110.16 Z M873.25,105.68 C875.01,105.68 876.03,104.88 876.03,102.28 L876.03,101.86 C876.03,99.2 875.07,98.42 873.35,98.42 C872.27,98.42 871.41,98.76 870.99,99.08 L870.99,105.04 C871.41,105.36 872.27,105.68 873.25,105.68 Z M880.15,110.16 L880.15,96.96 L882.05,96.96 L882.05,97.78 L882.13,97.78 C882.75,97.2 883.81,96.76 885.05,96.76 C887.27,96.76 889.21,97.98 889.21,101.74 L889.21,102.02 C889.21,105.8 887.41,107.22 884.61,107.22 C883.47,107.22 882.65,106.92 882.11,106.62 L882.11,110.16 L880.15,110.16 Z M884.37,105.68 C886.13,105.68 887.15,104.88 887.15,102.28 L887.15,101.86 C887.15,99.2 886.19,98.42 884.47,98.42 C883.39,98.42 882.53,98.76 882.11,99.08 L882.11,105.04 C882.53,105.36 883.39,105.68 884.37,105.68 Z" id="DApp" fill="#FFFFFF"></path>
            <circle id="Oval-5-Copy-2" fill="#FFFFFF" cx="808" cy="291" r="76"></circle>
            <g id="Oval-5-Copy-2" opacity="0.4" fill="black" fill-opacity="1">
                <use filter="url(#filter-11)" xlink:href="#path-10"></use>
            </g>
            <circle id="Oval-5-Copy-2" fill="#204453" cx="808" cy="291" r="76"></circle>
            <path d="M758.392568,298.790554 L752,298.790554 L752,282 L758.416027,282 C759.86267,282 761.033652,282.38398 761.929007,283.151951 C762.824362,283.919922 763.272032,284.932232 763.272032,286.188912 C763.272032,287.057727 762.988573,287.848958 762.421645,288.562628 C761.854717,289.276298 761.16464,289.706821 760.351391,289.854209 L760.351391,289.947296 C761.500886,290.094685 762.417732,290.540722 763.101955,291.285421 C763.786178,292.03012 764.128285,292.96098 764.128285,294.078029 C764.128285,295.551912 763.621967,296.705791 762.609317,297.539699 C761.596666,298.373607 760.191097,298.790554 758.392568,298.790554 Z M754.111307,283.850103 L754.111307,289.237509 L757.278267,289.237509 C758.529418,289.237509 759.485361,288.997036 760.146125,288.516085 C760.80689,288.035133 761.137267,287.340867 761.137267,286.433265 C761.137267,285.603236 760.859672,284.965209 760.304473,284.519165 C759.749275,284.073121 758.959498,283.850103 757.935118,283.850103 L754.111307,283.850103 Z M754.111307,296.940452 L758.075872,296.940452 C759.350482,296.940452 760.3162,296.688344 760.973054,296.18412 C761.629908,295.679897 761.95833,294.942966 761.95833,293.973306 C761.95833,293.003646 761.616224,292.272533 760.932001,291.779945 C760.247777,291.287358 759.229278,291.041068 757.876471,291.041068 L754.111307,291.041068 L754.111307,296.940452 Z M766.161395,298.790554 L766.161395,282 L768.202325,282 L768.202325,298.790554 L766.161395,298.790554 Z M775.865586,299 C774.176533,299 772.812016,298.437605 771.771997,297.312799 C770.731978,296.187993 770.211976,294.66371 770.211976,292.739904 C770.211976,290.808341 770.731978,289.282118 771.771997,288.161191 C772.812016,287.040264 774.176533,286.479808 775.865586,286.479808 C777.546821,286.479808 778.907427,287.040264 779.947446,288.161191 C780.987466,289.282118 781.507467,290.808341 781.507467,292.739904 C781.507467,294.66371 780.987466,296.187993 779.947446,297.312799 C778.907427,298.437605 777.546821,299 775.865586,299 Z M775.865586,297.219713 C776.944704,297.219713 777.808767,296.829915 778.457802,296.050308 C779.106837,295.270701 779.431349,294.167244 779.431349,292.739904 C779.431349,291.312564 779.106837,290.209107 778.457802,289.4295 C777.808767,288.649893 776.944704,288.260096 775.865586,288.260096 C774.786469,288.260096 773.920451,288.649893 773.267506,289.4295 C772.614562,290.209107 772.288094,291.312564 772.288094,292.739904 C772.288094,294.167244 772.614562,295.270701 773.267506,296.050308 C773.920451,296.829915 774.786469,297.219713 775.865586,297.219713 Z M793.545826,290.657084 L791.551814,290.657084 C791.40324,289.997715 791.070908,289.433381 790.554808,288.964066 C790.038708,288.49475 789.331037,288.260096 788.431772,288.260096 C787.376113,288.260096 786.521824,288.663468 785.86888,289.470226 C785.215935,290.276983 784.889468,291.366865 784.889468,292.739904 C784.889468,294.143972 785.219845,295.241611 785.880609,296.032854 C786.541374,296.824097 787.399572,297.219713 788.455231,297.219713 C789.291938,297.219713 789.976151,297.014148 790.50789,296.603012 C791.039629,296.191876 791.39151,295.621724 791.563544,294.892539 L793.569285,294.892539 C793.412891,296.094918 792.865521,297.080078 791.927157,297.848049 C790.988794,298.61602 789.827587,299 788.443501,299 C786.754447,299 785.393841,298.443423 784.361641,297.330253 C783.329442,296.217083 782.81335,294.686982 782.81335,292.739904 C782.81335,290.831613 783.327487,289.311208 784.355777,288.178645 C785.384066,287.046081 786.738808,286.479808 788.420042,286.479808 C789.944883,286.479808 791.149097,286.904513 792.032723,287.753936 C792.916348,288.603358 793.420711,289.571065 793.545826,290.657084 Z M797.443924,292.065024 L797.989345,291.523956 C798.352961,291.163243 798.802586,290.715266 799.338235,290.180014 L800.945174,288.574264 C801.480823,288.039012 801.930449,287.591035 802.294065,287.230322 L802.839486,286.689254 L805.314406,286.689254 L800.02441,291.913758 L805.478619,298.790554 L803.109264,298.790554 L798.581684,293.158795 L797.443924,294.229295 L797.443924,298.790554 L795.402994,298.790554 L795.402994,282 L797.443924,282 L797.443924,292.065024 Z M821.720042,290.657084 L819.72603,290.657084 C819.577456,289.997715 819.245124,289.433381 818.729024,288.964066 C818.212925,288.49475 817.505253,288.260096 816.605988,288.260096 C815.550329,288.260096 814.696041,288.663468 814.043096,289.470226 C813.390152,290.276983 813.063684,291.366865 813.063684,292.739904 C813.063684,294.143972 813.394062,295.241611 814.054826,296.032854 C814.71559,296.824097 815.573788,297.219713 816.629447,297.219713 C817.466154,297.219713 818.150367,297.014148 818.682106,296.603012 C819.213846,296.191876 819.565727,295.621724 819.73776,294.892539 L821.743501,294.892539 C821.587107,296.094918 821.039737,297.080078 820.101374,297.848049 C819.16301,298.61602 818.001803,299 816.617718,299 C814.928664,299 813.568057,298.443423 812.535858,297.330253 C811.503658,296.217083 810.987566,294.686982 810.987566,292.739904 C810.987566,290.831613 811.501703,289.311208 812.529993,288.178645 C813.558283,287.046081 814.913024,286.479808 816.594259,286.479808 C818.119099,286.479808 819.323314,286.904513 820.206939,287.753936 C821.090564,288.603358 821.594927,289.571065 821.720042,290.657084 Z M823.57721,298.790554 L823.57721,282 L825.61814,282 L825.61814,288.620808 L825.665058,288.620808 C826.009125,287.945924 826.509578,287.420376 827.166432,287.044148 C827.823286,286.66792 828.613063,286.479808 829.535787,286.479808 C830.872955,286.479808 831.922733,286.890938 832.685153,287.71321 C833.447573,288.535482 833.828778,289.621485 833.828778,290.971253 L833.828778,298.790554 L831.787848,298.790554 L831.787848,291.3436 C831.787848,290.381697 831.545441,289.629252 831.06062,289.086242 C830.575799,288.543233 829.856398,288.271732 828.902395,288.271732 C827.885835,288.271732 827.084328,288.587836 826.497851,289.220055 C825.911374,289.852273 825.61814,290.691987 825.61814,291.73922 L825.61814,298.790554 L823.57721,298.790554 Z M840.295632,297.277892 C841.257455,297.277892 842.064826,296.98118 842.71777,296.387748 C843.370715,295.794316 843.697182,295.063203 843.697182,294.194387 L843.697182,293.205339 L840.436386,293.403149 C838.716053,293.51175 837.8559,294.167231 837.8559,295.36961 C837.8559,295.943649 838.078758,296.4052 838.52448,296.754278 C838.970203,297.103356 839.560581,297.277892 840.295632,297.277892 Z M839.838182,299 C838.62613,299 837.646728,298.666442 836.899947,297.999316 C836.153166,297.332189 835.779782,296.455629 835.779782,295.36961 C835.779782,294.330134 836.164896,293.500117 836.935136,292.879535 C837.705375,292.258952 838.794252,291.909879 840.201796,291.832307 L843.697182,291.634497 L843.697182,290.622177 C843.697182,289.885235 843.462595,289.307326 842.993413,288.888433 C842.524232,288.469539 841.867387,288.260096 841.02286,288.260096 C840.240891,288.260096 839.60946,288.430753 839.128549,288.772074 C838.647638,289.113394 838.340719,289.582703 838.207784,290.180014 L836.237231,290.180014 C836.307609,289.132781 836.770919,288.254281 837.627175,287.54449 C838.483432,286.834699 839.630954,286.479808 841.069778,286.479808 C842.500782,286.479808 843.636576,286.836638 844.477193,287.550308 C845.31781,288.263978 845.738112,289.221988 845.738112,290.424367 L845.738112,298.790554 L843.802747,298.790554 L843.802747,296.707734 L843.75583,296.707734 C843.396124,297.398133 842.858528,297.95277 842.143026,298.371663 C841.427524,298.790557 840.65925,299 839.838182,299 Z M848.287319,298.790554 L848.287319,286.689254 L850.328249,286.689254 L850.328249,298.790554 L848.287319,298.790554 Z M849.307784,284.652977 C848.963718,284.652977 848.666574,284.528863 848.416344,284.28063 C848.166114,284.032397 848.041,283.737624 848.041,283.396304 C848.041,283.047226 848.166114,282.750515 848.416344,282.50616 C848.666574,282.261806 848.963718,282.13963 849.307784,282.13963 C849.659671,282.13963 849.960724,282.261806 850.210955,282.50616 C850.461185,282.750515 850.586298,283.047226 850.586298,283.396304 C850.586298,283.737624 850.461185,284.032397 850.210955,284.28063 C849.960724,284.528863 849.659671,284.652977 849.307784,284.652977 Z M852.936104,298.790554 C852.936104,298.790554 852.936104,298.383303 852.936104,297.568789 C852.936104,296.754274 852.936104,295.745842 852.936104,294.543463 C852.936104,293.341085 852.936104,292.138724 852.936104,290.936345 C852.936104,289.733966 852.936104,288.725535 852.936104,287.91102 C852.936104,287.096505 852.936104,286.689254 852.936104,286.689254 L854.859739,286.689254 L854.859739,288.620808 L854.906657,288.620808 C855.250724,287.969196 855.745312,287.449466 856.390437,287.061602 C857.035562,286.673738 857.831203,286.479808 858.777386,286.479808 C860.114554,286.479808 861.152603,286.879302 861.891564,287.678303 C862.630525,288.477303 863,289.563306 863,290.936345 L863,298.790554 L860.95907,298.790554 L860.95907,291.297057 C860.95907,290.319639 860.726438,289.571073 860.261166,289.051335 C859.795894,288.531597 859.094087,288.271732 858.155724,288.271732 C857.193901,288.271732 856.423673,288.582018 855.845016,289.202601 C855.266359,289.823184 854.977034,290.645443 854.977034,291.669405 L854.977034,298.790554 L852.936104,298.790554 Z" id="Block-chain" fill="#FFFFFF" opacity="0.9"></path>
            <g id="첫째의" transform="translate(131.000000, 0.000000)">
                <ellipse id="첫째-흰색" fill="#FFFFFF" opacity="0.383152174" cx="46.4020834" cy="46.469376" rx="36.1165049" ry="36.1688813"></ellipse>
                <ellipse fill="url(#linearGradient-12)" cx="46.0194175" cy="46.0731033" rx="37.0194175" ry="37.0731033"></ellipse>
            </g>
            <g id="소수" transform="translate(0.000000, 40.000000)">
                <g id="Oval-5-Copy-2" opacity="0.400532156" fill="black" fill-opacity="1">
                    <use filter="url(#filter-14)" xlink:href="#path-13"></use>
                </g>
                <ellipse id="Oval-5-Copy-2" fill="#333B40" cx="60.1132149" cy="120.200392" rx="60.1132149" ry="60.2003916"></ellipse>
                <path d="M38.9796375,103.829484 L44.0357899,103.829484 C45.3036999,103.829484 46.3350209,104.233045 47.129784,105.040178 C47.9245471,105.84731 48.3219227,106.887909 48.3219227,108.162004 C48.3219227,109.411359 47.9183623,110.436495 47.1112293,111.237443 C46.3040964,112.038391 45.2727753,112.438859 44.0172352,112.438859 L40.6495594,112.438859 L40.6495594,117.216691 L38.9796375,117.216691 L38.9796375,103.829484 Z M40.6495594,105.313859 L40.6495594,110.954484 L43.5997547,110.954484 C44.5522334,110.954484 45.2913211,110.710183 45.8170399,110.221574 C46.3427586,109.732965 46.6056141,109.046448 46.6056141,108.162004 C46.6056141,107.24045 46.3473973,106.535379 45.8309559,106.046769 C45.3145145,105.55816 44.5707882,105.313859 43.5997547,105.313859 L40.6495594,105.313859 Z M49.8962716,117.216691 L49.8962716,107.215715 L51.417756,107.215715 L51.417756,108.70009 L51.5661935,108.70009 C51.7146317,108.21148 52.0486128,107.812559 52.5681466,107.503312 C53.0876805,107.194066 53.6783321,107.039445 54.3401193,107.039445 C54.4700027,107.039445 54.6107077,107.044084 54.7622384,107.053361 C54.9137691,107.062638 55.039012,107.073462 55.1379708,107.085832 L55.1379708,108.681535 C55.0761216,108.66298 54.930778,108.642879 54.7019357,108.621232 C54.4730934,108.599585 54.2782711,108.588761 54.117463,108.588761 C53.356717,108.588761 52.7289564,108.8176 52.2341622,109.275285 C51.7393681,109.73297 51.4919747,110.314344 51.4919747,111.019426 L51.4919747,117.216691 L49.8962716,117.216691 Z M56.2206205,117.216691 L56.2206205,107.215715 L57.8163237,107.215715 L57.8163237,117.216691 L56.2206205,117.216691 Z M57.0184721,105.183976 C56.7154107,105.183976 56.4541015,105.074196 56.2345366,104.854631 C56.0149717,104.635066 55.9051909,104.373756 55.9051909,104.070695 C55.9051909,103.761449 56.0149717,103.498593 56.2345366,103.282121 C56.4541015,103.065648 56.7154107,102.957414 57.0184721,102.957414 C57.3277184,102.957414 57.5905739,103.065648 57.8070463,103.282121 C58.0235188,103.498593 58.1317534,103.761449 58.1317534,104.070695 C58.1317534,104.373756 58.0235188,104.635066 57.8070463,104.854631 C57.5905739,105.074196 57.3277184,105.183976 57.0184721,105.183976 Z M59.9102038,117.216691 L59.9102038,107.215715 L61.4316882,107.215715 L61.4316882,108.792863 L61.5801257,108.792863 C61.808968,108.23622 62.164596,107.804827 62.6470202,107.498674 C63.1294445,107.19252 63.7046341,107.039445 64.3726062,107.039445 C65.0529481,107.039445 65.6265915,107.201797 66.0935534,107.526506 C66.5605154,107.851214 66.9084123,108.273329 67.1372546,108.792863 L67.2856921,108.792863 C67.5578289,108.260959 67.9629355,107.835752 68.5010242,107.517228 C69.0391128,107.198705 69.6545038,107.039445 70.3472156,107.039445 C71.3677285,107.039445 72.1532024,107.320855 72.7036609,107.883683 C73.2541194,108.446512 73.5293445,109.253633 73.5293445,110.30507 L73.5293445,117.216691 L71.9336413,117.216691 L71.9336413,110.676164 C71.9336413,109.940158 71.7589198,109.389707 71.4094714,109.024797 C71.0600231,108.659886 70.532766,108.477433 69.8276843,108.477433 C69.1349725,108.477433 68.575245,108.70318 68.1484851,109.154679 C67.7217251,109.606179 67.5083484,110.150445 67.5083484,110.787492 L67.5083484,117.216691 L65.9126452,117.216691 L65.9126452,110.425676 C65.9126452,109.831923 65.7224616,109.358783 65.3420886,109.006242 C64.9617156,108.653701 64.4561054,108.477433 63.8252429,108.477433 C63.1696407,108.477433 62.6191904,108.724827 62.1738757,109.219621 C61.728561,109.714415 61.505907,110.314344 61.505907,111.019426 L61.505907,117.216691 L59.9102038,117.216691 Z M79.4825996,108.449601 C78.6847441,108.449601 78.0291517,108.718642 77.5158028,109.25673 C77.0024538,109.794819 76.7148591,110.506075 76.6530098,111.390519 L82.163752,111.390519 C82.1451972,110.506075 81.891619,109.794819 81.4030098,109.25673 C80.9144006,108.718642 80.2742703,108.449601 79.4825996,108.449601 Z M82.1173653,114.628312 L83.7130684,114.628312 C83.4718562,115.488017 82.9832544,116.16371 82.2472481,116.655412 C81.5112418,117.147114 80.5958864,117.392961 79.5011543,117.392961 C78.1157307,117.392961 77.0179227,116.927552 76.2076973,115.99672 C75.3974719,115.065889 74.9923653,113.808821 74.9923653,112.22548 C74.9923653,110.654509 75.4005643,109.397441 76.2169746,108.45424 C77.033385,107.511039 78.1281006,107.039445 79.5011543,107.039445 C80.8494684,107.039445 81.9101674,107.489392 82.6832832,108.389299 C83.4563991,109.289205 83.8429512,110.515349 83.8429512,112.067765 L83.8429512,112.68007 L76.6530098,112.68007 L76.6530098,112.754289 C76.6963043,113.743877 76.976168,114.529351 77.4926094,115.110734 C78.0090508,115.692117 78.6909287,115.982804 79.5382637,115.982804 C80.1814961,115.982804 80.7195766,115.866839 81.1525215,115.634904 C81.5854664,115.402969 81.9070778,115.067442 82.1173653,114.628312 Z M30.6963693,136.216691 L30.6963693,126.215715 L32.2178537,126.215715 L32.2178537,127.792863 L32.3662912,127.792863 C32.6198732,127.242405 32.9925094,126.812559 33.4842111,126.503312 C33.9759128,126.194066 34.6052197,126.039445 35.3721506,126.039445 C36.4978072,126.039445 37.3621378,126.35951 37.9651681,126.99965 C38.5681985,127.63979 38.8697092,128.553599 38.8697092,129.741105 L38.8697092,136.216691 L37.274006,136.216691 L37.274006,130.130754 C37.274006,129.227754 37.08073,128.559792 36.6941721,128.126847 C36.3076141,127.693903 35.7154163,127.477433 34.9175607,127.477433 C34.1197052,127.477433 33.4826673,127.727919 33.0064279,128.228898 C32.5301886,128.729877 32.2920724,129.419486 32.2920724,130.297746 L32.2920724,136.216691 L30.6963693,136.216691 Z M48.9235503,126.215715 L48.9235503,136.216691 L47.4020659,136.216691 L47.4020659,134.64882 L47.2536284,134.64882 C47.0062313,135.205463 46.6196792,135.635309 46.0939604,135.938371 C45.5682417,136.241432 44.9219265,136.392961 44.1549956,136.392961 C43.0355238,136.392961 42.1866554,136.071349 41.6083647,135.428117 C41.0300741,134.784885 40.7409331,133.872622 40.7409331,132.691301 L40.7409331,126.215715 L42.3366362,126.215715 L42.3366362,132.301652 C42.3366362,133.198466 42.5144502,133.86179 42.8700835,134.291642 C43.2257168,134.721495 43.8024525,134.936418 44.6003081,134.936418 C45.4847526,134.936418 46.1604457,134.689024 46.6274077,134.19423 C47.0943697,133.699436 47.3278472,133.01292 47.3278472,132.13466 L47.3278472,126.215715 L48.9235503,126.215715 Z M50.9803211,136.216691 L50.9803211,126.215715 L52.5018055,126.215715 L52.5018055,127.792863 L52.650243,127.792863 C52.8790852,127.23622 53.2347132,126.804827 53.7171375,126.498674 C54.1995618,126.19252 54.7747513,126.039445 55.4427234,126.039445 C56.1230654,126.039445 56.6967087,126.201797 57.1636707,126.526506 C57.6306327,126.851214 57.9785296,127.273329 58.2073719,127.792863 L58.3558094,127.792863 C58.6279461,127.260959 59.0330528,126.835752 59.5711414,126.517228 C60.10923,126.198705 60.724621,126.039445 61.4173328,126.039445 C62.4378457,126.039445 63.2233196,126.320855 63.7737781,126.883683 C64.3242366,127.446512 64.5994617,128.253633 64.5994617,129.30507 L64.5994617,136.216691 L63.0037586,136.216691 L63.0037586,129.676164 C63.0037586,128.940158 62.829037,128.389707 62.4795887,128.024797 C62.1301403,127.659886 61.6028832,127.477433 60.8978015,127.477433 C60.2050897,127.477433 59.6453623,127.70318 59.2186023,128.154679 C58.7918424,128.606179 58.5784656,129.150445 58.5784656,129.787492 L58.5784656,136.216691 L56.9827625,136.216691 L56.9827625,129.425676 C56.9827625,128.831923 56.7925788,128.358783 56.4122058,128.006242 C56.0318328,127.653701 55.5262227,127.477433 54.8953601,127.477433 C54.2397579,127.477433 53.6893077,127.724827 53.243993,128.219621 C52.7986782,128.714415 52.5760242,129.314344 52.5760242,130.019426 L52.5760242,136.216691 L50.9803211,136.216691 Z M71.5361153,136.392961 C70.8434035,136.392961 70.2140967,136.236794 69.6481759,135.924455 C69.0822551,135.612116 68.6415856,135.177631 68.3261544,134.620988 L68.1777169,134.620988 L68.1777169,136.216691 L66.6562325,136.216691 L66.6562325,122.245011 L68.2519356,122.245011 L68.2519356,127.792863 L68.4003731,127.792863 C68.6725099,127.254774 69.0915324,126.828021 69.6574532,126.51259 C70.223374,126.197158 70.8495884,126.039445 71.5361153,126.039445 C72.8102102,126.039445 73.8276154,126.509492 74.5883614,127.449601 C75.3491074,128.38971 75.7294747,129.645232 75.7294747,131.216203 C75.7294747,132.780989 75.3475612,134.034964 74.5837227,134.978166 C73.8198843,135.921367 72.8040253,136.392961 71.5361153,136.392961 Z M71.1650216,127.477433 C70.2558373,127.477433 69.5368504,127.811414 69.0080391,128.479386 C68.4792279,129.147359 68.2148263,130.059622 68.2148263,131.216203 C68.2148263,132.372784 68.4792279,133.285047 69.0080391,133.953019 C69.5368504,134.620991 70.2558373,134.954972 71.1650216,134.954972 C72.0803907,134.954972 72.794739,134.624084 73.308088,133.962297 C73.8214369,133.300509 74.0781075,132.385154 74.0781075,131.216203 C74.0781075,130.047252 73.8214369,129.131896 73.308088,128.470109 C72.794739,127.808322 72.0803907,127.477433 71.1650216,127.477433 Z M81.2745267,127.449601 C80.4766712,127.449601 79.8210788,127.718642 79.3077299,128.25673 C78.7943809,128.794819 78.5067862,129.506075 78.4449369,130.390519 L83.9556791,130.390519 C83.9371243,129.506075 83.6835461,128.794819 83.1949369,128.25673 C82.7063277,127.718642 82.0661974,127.449601 81.2745267,127.449601 Z M83.9092924,133.628312 L85.5049955,133.628312 C85.2637833,134.488017 84.7751815,135.16371 84.0391752,135.655412 C83.3031689,136.147114 82.3878135,136.392961 81.2930814,136.392961 C79.9076578,136.392961 78.8098498,135.927552 77.9996244,134.99672 C77.189399,134.065889 76.7842924,132.808821 76.7842924,131.22548 C76.7842924,129.654509 77.1924914,128.397441 78.0089017,127.45424 C78.8253121,126.511039 79.9200277,126.039445 81.2930814,126.039445 C82.6413955,126.039445 83.7020945,126.489392 84.4752103,127.389299 C85.2483262,128.289205 85.6348783,129.515349 85.6348783,131.067765 L85.6348783,131.68007 L78.4449369,131.68007 L78.4449369,131.754289 C78.4882314,132.743877 78.7680951,133.529351 79.2845365,134.110734 C79.8009779,134.692117 80.4828558,134.982804 81.3301908,134.982804 C81.9734232,134.982804 82.5115037,134.866839 82.9444486,134.634904 C83.3773935,134.402969 83.6990049,134.067442 83.9092924,133.628312 Z M87.1906725,136.216691 C87.1906725,136.216691 87.1906725,135.879618 87.1906725,135.205461 C87.1906725,134.531304 87.1906725,133.697897 87.1906725,132.705217 C87.1906725,131.712536 87.1906725,130.71987 87.1906725,129.727189 C87.1906725,128.734508 87.1906725,127.901102 87.1906725,127.226945 C87.1906725,126.552788 87.1906725,126.215715 87.1906725,126.215715 L88.7121569,126.215715 L88.7121569,127.70009 L88.8605944,127.70009 C89.0090327,127.21148 89.3430137,126.812559 89.8625475,126.503312 C90.3820814,126.194066 90.972733,126.039445 91.6345202,126.039445 C91.7644037,126.039445 91.9051086,126.044084 92.0566393,126.053361 C92.20817,126.062638 92.3334129,126.073462 92.4323718,126.085832 L92.4323718,127.681535 C92.3705225,127.66298 92.2251789,127.642879 91.9963366,127.621232 C91.7674943,127.599585 91.572672,127.588761 91.4118639,127.588761 C90.651118,127.588761 90.0233573,127.8176 89.5285632,128.275285 C89.033769,128.73297 88.7863757,129.314344 88.7863757,130.019426 L88.7863757,136.216691 L87.1906725,136.216691 Z" id="Prime-number" fill="#FFFFFF" opacity="0.9"></path>
                <path d="M158.278,10.412 L158.278,1.004 L161.274,1.004 C163.36,1.004 164.41,2.026 164.41,3.804 C164.41,5.708 163.164,6.702 161.4,6.702 L159.51,6.702 L159.51,10.412 L158.278,10.412 Z M159.51,5.68 L161.134,5.68 C162.534,5.68 163.094,5.106 163.094,3.902 C163.094,2.586 162.562,2.068 161.162,2.068 L159.51,2.068 L159.51,5.68 Z M165.782,10.412 L165.782,3.454 L166.916,3.454 L166.916,4.224 L166.986,4.224 C167.364,3.762 168.12,3.37 168.876,3.37 C169.044,3.37 169.24,3.398 169.31,3.426 L169.31,4.49 C169.114,4.462 168.89,4.448 168.778,4.448 C168.12,4.448 167.462,4.658 166.972,4.98 L166.972,10.412 L165.782,10.412 Z M170.57,10.412 L170.57,3.454 L171.774,3.454 L171.774,10.412 L170.57,10.412 Z M170.57,2.082 L170.57,0.836 L171.788,0.836 L171.788,2.082 L170.57,2.082 Z M175.582,10.412 L173.02,3.454 L174.308,3.454 L176.184,8.9 L176.24,8.9 L178.172,3.454 L179.334,3.454 L176.786,10.412 L175.582,10.412 Z M182.26,10.538 C181.014,10.538 180.104,9.908 180.104,8.564 C180.104,7.36 180.888,6.702 182.204,6.534 L184.052,6.31 L184.052,5.666 C184.052,4.602 183.59,4.35 182.344,4.35 C181.658,4.35 181.098,4.462 180.678,4.546 L180.678,3.692 C181.308,3.454 181.966,3.314 182.806,3.314 C184.346,3.314 185.228,3.972 185.228,5.372 L185.228,10.412 L184.276,10.412 L184.15,9.824 L184.08,9.824 C183.73,10.216 183.184,10.538 182.26,10.538 Z M182.554,9.614 C183.17,9.614 183.744,9.418 184.052,9.138 L184.052,7.22 L182.512,7.374 C181.714,7.458 181.336,7.78 181.336,8.536 C181.336,9.264 181.826,9.614 182.554,9.614 Z M189.33,10.482 C188.224,10.482 187.454,10.006 187.454,8.774 L187.454,4.448 L186.46,4.448 L186.46,3.454 L187.454,3.454 L187.454,1.802 L188.644,1.802 L188.644,3.454 L190.394,3.454 L190.394,4.448 L188.644,4.448 L188.644,8.606 C188.644,9.264 188.868,9.516 189.652,9.516 C189.932,9.516 190.254,9.474 190.534,9.404 L190.534,10.216 C190.24,10.342 189.96,10.482 189.33,10.482 Z M194.79,10.538 C192.592,10.538 191.472,9.18 191.472,7.038 L191.472,6.828 C191.472,4.406 192.914,3.314 194.538,3.314 C196.442,3.314 197.352,4.42 197.352,6.604 L197.352,7.276 L192.704,7.276 C192.788,8.928 193.6,9.516 194.986,9.516 C195.91,9.516 196.512,9.32 197.142,8.984 L197.142,9.866 C196.736,10.174 195.938,10.538 194.79,10.538 Z M194.482,4.28 C193.698,4.28 192.816,4.714 192.704,6.31 L196.092,6.31 C196.092,4.854 195.532,4.28 194.482,4.28 Z" id="Private" fill="#FFFFFF"></path>
                <path d="M713.752539,5.13574219 L713.752539,15 L712.604102,15 L712.604102,7.3984375 L712.55625,7.3984375 L709.411719,14.9316406 L708.372656,14.9316406 L705.228125,7.3984375 L705.180273,7.3984375 L705.180273,15 L704.031836,15 L704.031836,5.13574219 L705.460547,5.13574219 L708.864844,13.3662109 L708.919531,13.3662109 L712.323828,5.13574219 L713.752539,5.13574219 Z M717.572461,14.0361328 C718.174026,14.0361328 718.671906,13.8618181 719.066113,13.5131836 C719.460321,13.164549 719.657422,12.7259141 719.657422,12.1972656 L719.657422,11.6025391 L717.729687,11.7255859 C716.608588,11.7939457 716.048047,12.1881474 716.048047,12.9082031 C716.048047,13.2500017 716.185904,13.5234365 716.461621,13.7285156 C716.737339,13.9335948 717.107615,14.0361328 717.572461,14.0361328 Z M717.319531,15.0683594 C716.572132,15.0683594 715.970575,14.8701192 715.514844,14.4736328 C715.059112,14.0771465 714.83125,13.5530632 714.83125,12.9013672 C714.83125,12.2679005 715.068227,11.7700213 715.542187,11.4077148 C716.016148,11.0454083 716.699735,10.8369143 717.592969,10.7822266 L719.657422,10.6591797 L719.657422,10.0439453 C719.657422,9.58821387 719.51159,9.23730592 719.219922,8.99121094 C718.928254,8.74511596 718.511266,8.62207031 717.968945,8.62207031 C717.540558,8.62207031 717.179396,8.72460835 716.885449,8.9296875 C716.591502,9.13476665 716.408073,9.41048004 716.335156,9.75683594 L715.193555,9.75683594 C715.211784,9.13704117 715.487497,8.61637581 716.020703,8.19482422 C716.553909,7.77327263 717.207874,7.5625 717.982617,7.5625 C718.853064,7.5625 719.548044,7.77782988 720.067578,8.20849609 C720.587112,8.63916231 720.846875,9.21679325 720.846875,9.94140625 L720.846875,15 L719.718945,15 L719.718945,13.7216797 L719.691602,13.7216797 C719.481965,14.131838 719.162958,14.4588204 718.73457,14.7026367 C718.306183,14.946453 717.834508,15.0683594 717.319531,15.0683594 Z M722.144336,15 L722.144336,7.63085938 L723.333789,7.63085938 L723.333789,15 L722.144336,15 Z M722.739063,6.44140625 C722.533983,6.44140625 722.35739,6.367351 722.209277,6.21923828 C722.061165,6.07112556 721.987109,5.89453228 721.987109,5.68945312 C721.987109,5.47981666 722.061165,5.30208406 722.209277,5.15625 C722.35739,5.01041594 722.533983,4.9375 722.739063,4.9375 C722.948699,4.9375 723.126432,5.01041594 723.272266,5.15625 C723.4181,5.30208406 723.491016,5.47981666 723.491016,5.68945312 C723.491016,5.89453228 723.4181,6.07112556 723.272266,6.21923828 C723.126432,6.367351 722.948699,6.44140625 722.739063,6.44140625 Z M724.66543,15 L724.66543,7.63085938 L725.786523,7.63085938 L725.786523,8.82714844 L725.813867,8.82714844 C726.283271,7.98404526 727.085346,7.5625 728.220117,7.5625 C729.031319,7.5625 729.671612,7.80517335 730.141016,8.29052734 C730.610419,8.77588133 730.845117,9.43782133 730.845117,10.2763672 L730.845117,15 L729.655664,15 L729.655664,10.4814453 C729.655664,9.8798798 729.501857,9.41959795 729.194238,9.10058594 C728.88662,8.78157393 728.443427,8.62207031 727.864648,8.62207031 C727.258526,8.62207031 726.77204,8.81347465 726.405176,9.19628906 C726.038312,9.57910348 725.854883,10.0872364 725.854883,10.7207031 L725.854883,15 L724.66543,15 Z M733.044922,15.0683594 C732.826171,15.0683594 732.641602,14.9931648 732.491211,14.8427734 C732.34082,14.6923821 732.265625,14.5078136 732.265625,14.2890625 C732.265625,14.0657541 732.34082,13.8800463 732.491211,13.7319336 C732.641602,13.5838209 732.826171,13.5097656 733.044922,13.5097656 C733.26823,13.5097656 733.453938,13.5838209 733.602051,13.7319336 C733.750164,13.8800463 733.824219,14.0657541 733.824219,14.2890625 C733.824219,14.5078136 733.750164,14.6923821 733.602051,14.8427734 C733.453938,14.9931648 733.26823,15.0683594 733.044922,15.0683594 Z M735.278906,15 L735.278906,7.63085938 L736.4,7.63085938 L736.4,8.82714844 L736.427344,8.82714844 C736.896747,7.98404526 737.698822,7.5625 738.833594,7.5625 C739.644796,7.5625 740.285089,7.80517335 740.754492,8.29052734 C741.223896,8.77588133 741.458594,9.43782133 741.458594,10.2763672 L741.458594,15 L740.269141,15 L740.269141,10.4814453 C740.269141,9.8798798 740.115334,9.41959795 739.807715,9.10058594 C739.500096,8.78157393 739.056904,8.62207031 738.478125,8.62207031 C737.872002,8.62207031 737.385516,8.81347465 737.018652,9.19628906 C736.651789,9.57910348 736.468359,10.0872364 736.468359,10.7207031 L736.468359,15 L735.278906,15 Z M745.627148,8.60839844 C745.04837,8.60839844 744.568719,8.79980277 744.188184,9.18261719 C743.807648,9.5654316 743.596875,10.0690073 743.555859,10.6933594 L747.60957,10.6933594 C747.595898,10.0690073 747.407912,9.5654316 747.045605,9.18261719 C746.683299,8.79980277 746.210485,8.60839844 745.627148,8.60839844 Z M747.582227,12.8945312 L748.758008,12.8945312 C748.657747,13.527998 748.320511,14.0486633 747.746289,14.456543 C747.172067,14.8644226 746.490759,15.0683594 745.702344,15.0683594 C744.667833,15.0683594 743.84639,14.7334018 743.237988,14.0634766 C742.629587,13.3935513 742.325391,12.4866594 742.325391,11.3427734 C742.325391,10.1988875 742.628447,9.28288104 743.23457,8.59472656 C743.840693,7.90657208 744.645047,7.5625 745.647656,7.5625 C746.632036,7.5625 747.411325,7.88720378 747.985547,8.53662109 C748.559768,9.1860384 748.846875,10.0667262 748.846875,11.1787109 L748.846875,11.6435547 L743.555859,11.6435547 L743.555859,11.7119141 C743.555859,12.4137405 743.7541,12.9742818 744.150586,13.3935547 C744.547072,13.8128276 745.073434,14.0224609 745.729687,14.0224609 C746.189976,14.0224609 746.587596,13.9210622 746.922559,13.7182617 C747.257521,13.5154612 747.477408,13.2408871 747.582227,12.8945312 Z M750.1375,5.96972656 L751.326953,5.96972656 L751.326953,7.63085938 L752.7625,7.63085938 L752.7625,8.61523438 L751.326953,8.61523438 L751.326953,13.0380859 C751.326953,13.3753272 751.401008,13.6236971 751.549121,13.7832031 C751.697234,13.9427091 751.928514,14.0224609 752.242969,14.0224609 C752.448048,14.0224609 752.618945,14.0110678 752.755664,13.9882812 L752.755664,14.9931641 C752.582486,15.0341799 752.32728,15.0546875 751.990039,15.0546875 C751.324671,15.0546875 750.849578,14.9031591 750.564746,14.6000977 C750.279914,14.2970362 750.1375,13.7923212 750.1375,13.0859375 L750.1375,8.61523438 L749.112109,8.61523438 L749.112109,7.63085938 L750.1375,7.63085938 L750.1375,5.96972656 Z" id="Main.net" fill="#FFFFFF"></path>
            </g>
            <circle id="최고의" fill="#387483" cx="207" cy="297" r="76"></circle>
            <circle id="block" fill="#151517" style="mix-blend-mode: multiply;" opacity="0.9" cx="570.5" cy="178.5" r="112.5"></circle>
            <circle id="prime" fill="#1C1C1E" style="mix-blend-mode: multiply;" opacity="0.7" cx="389.5" cy="178.5" r="112.5"></circle>
            <path d="M522.174818,178.949315 L522.174818,184.620548 L528.661842,184.620548 C530.395998,184.620548 532.868774,184.053425 532.868774,181.973973 C532.868774,179.989041 530.395998,178.949315 528.661842,178.949315 L522.174818,178.949315 Z M522.174818,170.221918 L522.174818,175.294521 L528.661842,175.294521 C531.327303,175.294521 532.194381,174.191781 532.194381,172.931507 C532.194381,171.923288 531.359417,170.221918 528.661842,170.221918 L522.174818,170.221918 Z M528.661842,166.441096 C533.093572,166.441096 536.401312,168.394521 536.401312,172.836986 C536.401312,174.538356 535.566349,176.176712 533.47894,177.090411 C536.112287,177.878082 537.075706,180.619178 537.075706,182.005479 C537.075706,186.920548 533.31837,188.49589 528.661842,188.49589 L518,188.49589 L518,166.441096 L528.661842,166.441096 Z M542.689814,166.441096 L546.92886,166.441096 L546.92886,184.652055 L558.489894,184.652055 L558.489894,188.49589 L542.689814,188.49589 L542.689814,166.441096 Z M573.995109,166 C581.734579,166 585.588257,171.828767 585.524029,177.594521 C585.459801,183.29726 581.895149,189 573.995109,189 C566.095069,189 562.434075,183.423288 562.434075,177.626027 C562.434075,171.828767 566.223525,166 573.995109,166 Z M573.995109,169.780822 C568.696302,169.780822 566.512551,173.971233 566.608893,177.689041 C566.705235,181.312329 568.696302,185.187671 573.995109,185.187671 C579.293917,185.187671 581.284984,181.280822 581.349211,177.657534 C581.413439,173.939726 579.293917,169.780822 573.995109,169.780822 Z M608.190663,182.856164 L611.080921,185.723288 C608.768714,187.960274 605.782114,189 602.538602,189 C594.188966,189 590.656428,183.360274 590.624314,177.626027 C590.5922,171.860274 594.413764,166 602.538602,166 C605.58943,166 608.479689,167.134247 610.791895,169.371233 L607.965865,172.049315 C606.488622,170.631507 604.497555,169.969863 602.538602,169.969863 C597.111339,169.969863 594.767018,173.939726 594.799132,177.626027 C594.831246,181.280822 596.982883,185.093151 602.538602,185.093151 C604.497555,185.093151 606.713419,184.305479 608.190663,182.856164 Z M634.165036,166.441096 L634.165036,166.567123 L624.177588,177.121918 L635,188.243836 L635,188.49589 L629.765421,188.49589 L620.356024,178.728767 L620.356024,188.49589 L616.116978,188.49589 L616.116978,166.441096 L620.356024,166.441096 L620.356024,175.767123 L628.898343,166.441096 L634.165036,166.441096 Z" id="BLOCK" fill="#FBFBFB"></path>
            <path d="M336.234682,170.948718 L336.234682,178.720798 L342.586705,178.720798 C348.008381,178.720798 347.976301,170.948718 342.586705,170.948718 L336.234682,170.948718 Z M342.586705,167 C353.558381,167 353.590462,182.512821 342.586705,182.512821 L336.234682,182.512821 L336.234682,188.968661 L332,188.968661 L332,167.031339 C335.528902,167.031339 339.057803,167 342.586705,167 Z M377.338367,188.68661 L377.338367,188.968661 L372.301662,188.968661 L365.757153,181.635328 L361.682876,181.635328 L361.682876,188.968661 L357.448194,188.968661 L357.448194,167 C361.009176,167 364.570159,167.031339 368.131142,167.031339 C373.424494,167.062678 376.215535,170.509972 376.215535,174.301994 C376.215535,177.310541 374.803974,180.350427 370.537211,181.196581 L377.338367,188.68661 Z M368.131142,170.88604 L361.682876,170.88604 L361.682876,177.905983 L368.131142,177.905983 C370.825939,177.905983 371.980853,176.150997 371.980853,174.396011 C371.980853,172.641026 370.793858,170.88604 368.131142,170.88604 Z M387.034827,188.968661 L382.832225,188.968661 L382.832225,167.031339 L387.034827,167.031339 L387.034827,188.968661 Z M414.311633,189 L414.311633,173.079772 L406.997182,182.606838 L406.163078,182.606838 L399.009032,173.048433 L399.009032,189 L394.77435,189 L394.77435,167.062678 L399.65065,167.062678 L406.676373,176.495726 L413.702095,167.062678 L418.546315,167.062678 L418.546315,189 L414.311633,189 Z M443,184.894587 L443,188.968661 L426.189595,188.968661 C426.189595,181.666667 426.189595,174.333333 426.189595,167.031339 L443,167.031339 L443,171.042735 L430.392197,171.042735 L430.392197,176.088319 L442.550867,176.088319 L442.550867,179.94302 L430.392197,179.94302 L430.392197,184.894587 L443,184.894587 Z" id="PRIME" fill="#FBFBFB"></path>
            <polygon id="+" stroke="#FFFFFF" stroke-width="0.5" fill="#FFFFFF" points="479.094926 176.070376 479.094926 169 479.954173 169 479.954173 176.070376 487 176.070376 487 176.929624 479.954173 176.929624 479.954173 184 479.094926 184 479.094926 176.929624 472 176.929624 472 176.070376"></polygon>
            <g id="Oval-7-Copy-3">
                <use fill="black" fill-opacity="1" filter="url(#filter-16)" xlink:href="#path-15"></use>
                <use fill="#589BA6" fill-rule="evenodd" xlink:href="#path-15"></use>
            </g>
            <path d="M180.3,305.01 C175.92,305.01 173.13,302.52 173.13,297.45 L173.13,296.94 C173.13,291.6 176.34,289.14 180.48,289.14 C182.49,289.14 183.66,289.53 184.68,290.13 L184.68,292.56 C183.33,291.99 182.4,291.63 180.45,291.63 C177.84,291.63 176.19,293.34 176.19,296.55 L176.19,297.33 C176.19,301.02 177.75,302.58 180.75,302.58 C182.7,302.58 184.05,301.95 184.86,301.56 L184.86,303.81 C183.84,304.47 182.43,305.01 180.3,305.01 Z M187.71,304.74 L187.71,282.84 L190.65,282.84 L190.65,304.74 L187.71,304.74 Z M200.94,305.01 C196.41,305.01 193.83,302.19 193.83,297.42 L193.83,296.91 C193.83,292.05 196.71,289.14 200.97,289.14 C205.41,289.14 208.02,291.99 208.02,296.82 L208.02,297.27 C208.02,302.13 205.11,305.01 200.94,305.01 Z M200.97,302.7 C203.46,302.7 204.93,300.93 204.93,297.57 L204.93,296.76 C204.93,292.71 203.13,291.51 200.91,291.51 C198.33,291.51 196.86,293.28 196.86,296.64 L196.86,297.45 C196.86,301.5 198.69,302.7 200.97,302.7 Z M215.61,305.01 C212.61,305.01 210.96,303.51 210.96,300.54 L210.96,289.44 L213.93,289.44 L213.93,300.03 C213.93,301.83 214.53,302.52 216.6,302.52 C218.1,302.52 219.3,302.01 220.35,301.53 L220.35,289.44 L223.29,289.44 L223.29,304.74 L220.77,304.74 L220.47,303.42 L220.32,303.42 C219.06,304.32 217.53,305.01 215.61,305.01 Z M232.68,305.01 C229.71,305.01 226.44,303.15 226.44,297.57 L226.44,297.18 C226.44,291.57 229.29,289.14 233.22,289.14 C235.08,289.14 236.31,289.65 237.03,290.07 L237.03,282.84 L240,282.84 L240,304.74 L237.48,304.74 L237.21,303.51 L237.06,303.51 C236.16,304.41 234.69,305.01 232.68,305.01 Z M233.7,302.67 C235.29,302.67 236.4,302.01 237.03,301.53 L237.03,292.44 C236.43,291.93 235.11,291.6 233.67,291.6 C231.06,291.6 229.47,292.92 229.47,296.82 L229.47,297.45 C229.47,301.47 231.18,302.67 233.7,302.67 Z" id="cloud" fill="#FFFFFF"></path>
        </g>
    </g>
</svg>