<?xml version="1.0" encoding="UTF-8"?>
<svg width="75px" height="55px" viewBox="0 0 75 55" version="1.1" xmlns="http://www.w3.org/2000/svg" xmlns:xlink="http://www.w3.org/1999/xlink">
    <!-- Generator: Sketch 50.2 (55047) - http://www.bohemiancoding.com/sketch -->
    <title>icn/solution/pow</title>
    <desc>Created with Sketch.</desc>
    <defs></defs>
    <g id="icn/solution/pow" stroke="none" stroke-width="1" fill="none" fill-rule="evenodd">
        <g id="Group-20" transform="translate(32.000000, 17.000000)" stroke="#002077" stroke-width="1.5">
            <path d="M6,0 L6,9.39581024" id="Stroke-1"></path>
            <path d="M0.0217742723,19 C0.0453893361,17.0892672 -0.143531175,15.09497 0.283114313,13.2388755 C0.632617258,11.7106107 1.85902624,10.3237626 3.19406452,9.63917711 C4.0599502,9.19403583 5.02659348,9.00601587 5.98851375,9.00119484 C5.98851375,9.00119484 7.18343598,8.94334255 8.80657804,9.63274907 C10.1872721,10.2193071 11.3680253,11.7041827 11.7175282,13.2340545 C12.1441737,15.090149 11.9536789,17.0828392 11.9788683,18.995179" id="Stroke-2"></path>
        </g>
        <g id="Group" transform="translate(27.500000, 33.000000)">
            <g id="Group-10" transform="translate(0.500000, 0.000000)">
                <rect id="Rectangle-Copy" stroke="#002077" stroke-width="1.5" fill="#FFFFFF" x="0.75" y="0.75" width="18.5" height="18.5" rx="3"></rect>
                <path d="M10,5 C7.79384871,5 6,6.71709663 6,8.82859641 C6,10.0102026 6.55527847,11.0891998 7.47963425,11.8010494 L7.47963425,13.5822766 C7.47963425,14.916193 8.61180382,16 10,16 C11.3898587,16 12.5203658,14.916193 12.5203658,13.5822766 L12.5203658,11.8010494 C13.4447215,11.0891998 14,10.0102026 14,8.82859641 C14,6.71709663 12.2061513,5 10,5 M10,6.60326483 C11.2917706,6.60326483 12.3374896,7.59889229 12.3374896,8.82859641 C12.3374896,9.76971287 11.7240233,10.5681388 10.8578554,10.8952048 L10.8578554,13.5822766 C10.8578554,14.0311908 10.472153,14.3967352 10,14.3967352 C9.52784705,14.3967352 9.14214464,14.0311908 9.14214464,13.5822766 L9.14214464,10.8952048 C8.27597672,10.5681388 7.66251039,9.76971287 7.66251039,8.82859641 C7.66251039,7.59889229 8.70989194,6.60326483 10,6.60326483" id="Fill-9" fill="#002077"></path>
            </g>
        </g>
        <g id="Group-22" transform="translate(9.000000, 2.000000)" fill="#FFFFFF" stroke="#002077" stroke-width="1.5">
            <g id="Group-21">
                <rect id="Rectangle" x="0.75" y="0.75" width="16.5" height="16.5" rx="3"></rect>
                <rect id="Rectangle" x="4.25" y="3.75" width="9.5" height="10.5" rx="2"></rect>
            </g>
            <g id="Group-21-Copy" transform="translate(20.000000, 0.000000)">
                <rect id="Rectangle" x="0.75" y="0.75" width="16.5" height="16.5" rx="3"></rect>
                <rect id="Rectangle" x="4.25" y="3.75" width="9.5" height="10.5" rx="2"></rect>
            </g>
            <g id="Group-21-Copy-2" transform="translate(40.000000, 0.000000)">
                <rect id="Rectangle" x="0.75" y="0.75" width="16.5" height="16.5" rx="3"></rect>
                <rect id="Rectangle" x="4.25" y="3.75" width="9.5" height="10.5" rx="2"></rect>
            </g>
        </g>
        <rect id="Rectangle-5" stroke="#002077" stroke-width="1.5" fill="#FFFFFF" x="7.75" y="9.75" width="8.5" height="3.5" rx="1.5"></rect>
        <rect id="Rectangle-5-Copy-3" stroke="#002077" stroke-width="1.5" fill="#FFFFFF" x="60.25" y="9.75" width="8.5" height="3.5" rx="1.5"></rect>
        <rect id="Rectangle-5-Copy" stroke="#002077" stroke-width="1.5" fill="#FFFFFF" x="20.75" y="9.75" width="14.5" height="3.5" rx="1.5"></rect>
        <rect id="Rectangle-5-Copy-2" stroke="#002077" stroke-width="1.5" fill="#FFFFFF" x="41.75" y="9.75" width="14.5" height="3.5" rx="1.5"></rect>
    </g>
</svg>