<?xml version="1.0" encoding="UTF-8"?>
<svg width="75px" height="55px" viewBox="0 0 75 55" version="1.1" xmlns="http://www.w3.org/2000/svg" xmlns:xlink="http://www.w3.org/1999/xlink">
    <!-- Generator: Sketch 50.2 (55047) - http://www.bohemiancoding.com/sketch -->
    <title>icn/solution/safety-white</title>
    <desc>Created with Sketch.</desc>
    <defs></defs>
    <g id="icn/solution/safety-white" stroke="none" stroke-width="1" fill="none" fill-rule="evenodd">
        <g id="Group" transform="translate(5.000000, 4.000000)">
            <path d="M65,29.3573529 C65,23.5267182 61.041942,18.6692281 55.6883525,17.2086878 C55.8180186,16.5977967 55.8925766,15.9671463 55.8925766,15.3200298 C55.8925766,10.3275179 51.8583398,6.28180499 46.880782,6.28180499 C44.6651123,6.28180499 42.6633918,7.11334144 41.0944318,8.44379974 C38.852829,3.46775395 33.8736504,0 28.0759544,0 C20.1841508,0 13.7851283,6.41518015 13.7851283,14.3287725 C13.7851283,14.6729133 13.8126823,15.0088211 13.8369947,15.3463755 C13.6587038,15.3381425 13.4836546,15.3200298 13.302122,15.3200298 C5.95653692,15.3200298 0,21.2922727 0,28.6591916 C0,36.0261105 5.95653692,42 13.302122,42 L53.0334389,42 L53.0334389,41.9341357 C59.6917936,41.5932881 65,36.1183205 65,29.3573529" id="Fill-1"></path>
            <path d="M65,29.3573529 C65,23.5267182 61.041942,18.6692281 55.6883525,17.2086878 C55.8180186,16.5977967 55.8925766,15.9671463 55.8925766,15.3200298 C55.8925766,10.3275179 51.8583398,6.28180499 46.880782,6.28180499 C44.6651123,6.28180499 42.6633918,7.11334144 41.0944318,8.44379974 C38.852829,3.46775395 33.8736504,0 28.0759544,0 C20.1841508,0 13.7851283,6.41518015 13.7851283,14.3287725 C13.7851283,14.6729133 13.8126823,15.0088211 13.8369947,15.3463755 C13.6587038,15.3381425 13.4836546,15.3200298 13.302122,15.3200298 C5.95653692,15.3200298 0,21.2922727 0,28.6591916 C0,36.0261105 5.95653692,42 13.302122,42 L53.0334389,42 C59.6917936,41.5932881 65,36.1183205 65,29.3573529 Z" id="Stroke-3" stroke="#FFFFFF" stroke-width="1.5"></path>
            <path d="M38.0739537,27.9481737 L38.0788297,27.2705304 C38.0950833,25.9492882 38.1097115,24.6815442 38.0723283,23.4202847 C38.0235677,21.7812959 37.6074766,20.649729 36.7639171,19.8586048 C35.4620073,18.6411166 33.6383584,17.8807944 32.0016254,17.8743097 C30.363267,17.8807944 28.539618,18.6411166 27.2377082,19.8586048 C26.3941487,20.649729 25.9780577,21.7812959 25.929297,23.4202847 C25.8902885,24.700998 25.9065421,25.9849536 25.9227956,27.2705304 L25.9276717,27.9481737 L38.0739537,27.9481737 Z M22.0495733,47 C20.9199512,47 20,46.0905314 20,44.9735549 L20,29.9762399 C20,28.8592634 20.9199512,27.9481737 22.0495733,27.9481737 L23.0296627,27.9481737 L23.0247867,27.3061959 C23.0085331,25.9817113 22.9939049,24.6572268 23.0312881,23.3359846 C23.1044291,20.8864178 23.8098334,19.1161153 25.2498984,17.7689346 C27.0637952,16.069963 29.6481105,15.0081058 31.9951239,15 C34.3535148,15.0081058 36.9378302,16.069963 38.7533523,17.7705558 C40.191792,19.1161153 40.8971963,20.8864178 40.9703373,23.3359846 C41.0077204,24.6572268 40.9930922,25.9817113 40.9768387,27.3061959 L40.9719626,27.9481737 L41.952052,27.9481737 C43.0816741,27.9481737 44,28.8592634 44,29.9762399 L44,44.9735549 C44,46.0905314 43.0816741,47 41.952052,47 L22.0495733,47 Z" id="Fill-5" fill="#387483"></path>
            <path d="M26.6563709,27.094074 C26.6415298,25.8612276 26.6266887,24.5906746 26.664616,23.3594677 C26.7190334,21.5069193 27.264857,20.7691788 27.7315279,20.3314528 C28.8891355,19.2527123 30.5661825,18.5510391 32.0057715,18.5461208 C33.4338175,18.5510391 35.1108645,19.2527123 36.2684721,20.3314528 C36.736792,20.7691788 37.2809666,21.5069193 37.335384,23.3594677 C37.3733113,24.5906746 37.3584702,25.8612276 37.3436291,27.094074 L26.6563709,27.094074 Z M32.0057715,14 L32.0024735,14 L32.0008245,14 C29.4102239,14.0098365 26.5722712,15.1672694 24.5852096,17.0214572 C22.9774212,18.5215295 22.1562123,20.5511355 22.0770597,23.225035 C22.0391324,24.5218188 22.0523245,25.8284392 22.0655166,27.094074 L21.9039132,27.094074 C20.3027209,27.094074 19,28.3810213 19,29.9647042 L19,45.1310092 C19,46.7130527 20.3027209,48 21.9039132,48 L42.0960868,48 C43.6956301,48 45,46.7130527 45,45.1310092 L45,29.9647042 C45,28.3810213 43.6956301,27.094074 42.0960868,27.094074 L41.9344834,27.094074 C41.9476755,25.8284392 41.9625166,24.5218188 41.9229403,23.225035 C41.8437877,20.552775 41.0225788,18.5215295 39.4147904,17.0214572 C37.4277288,15.1672694 34.5897761,14.0098365 32.0090696,14 L32.0057715,14 Z M25.0205492,28.7334973 L38.9794508,28.7334973 C38.9827488,28.2351126 38.9860468,27.7383673 38.9909938,27.2399826 C39.007484,25.928444 39.0239741,24.6169053 38.9843978,23.310285 C38.9266823,21.4200299 38.4237331,20.0937364 37.3963975,19.1363132 C35.9304243,17.7690342 33.8642101,16.9132552 32.0008245,16.9066975 C30.137439,16.9132552 28.0695757,17.7690342 26.6036025,19.1363132 C25.5762669,20.0937364 25.0733177,21.4200299 25.0156022,23.310285 C24.9760259,24.6169053 24.992516,25.928444 25.0090062,27.2399826 C25.0139532,27.7383673 25.0172512,28.2351126 25.0205492,28.7334973 Z M32.0024735,15.6394233 C34.1824697,15.6476204 36.5900298,16.6345533 38.286865,18.2182362 C39.5747447,19.4199335 40.207966,21.0282077 40.2755756,23.2725782 C40.3135029,24.5988717 40.2986618,25.9268046 40.2821716,27.2547375 C40.2772246,27.7465644 40.2739266,28.2400309 40.2706285,28.7334973 L42.0960868,28.7334973 C42.7853745,28.7334973 43.3509862,29.2876224 43.3509862,29.9647042 L43.3509862,45.1310092 C43.3509862,45.8064516 42.7853745,46.3605767 42.0960868,46.3605767 L21.9039132,46.3605767 C21.2146255,46.3605767 20.6490138,45.8064516 20.6490138,45.1310092 L20.6490138,29.9647042 C20.6490138,29.2876224 21.2146255,28.7334973 21.9039132,28.7334973 L23.7293715,28.7334973 C23.7260734,28.2400309 23.7227754,27.7465644 23.7178284,27.2547375 C23.7013382,25.9268046 23.6864971,24.5988717 23.7244244,23.2725782 C23.792034,21.0282077 24.4236063,19.4199335 25.714784,18.2182362 C27.4099702,16.6345533 29.8175303,15.6476204 31.9975265,15.6394233 L32.0008245,15.6394233 L32.0024735,15.6394233 Z" id="Fill-7" fill="#FFFFFF"></path>
            <path d="M28,35.8285964 C28,37.0102026 28.5552785,38.0891998 29.4796342,38.8010494 L29.4796342,40.5822766 C29.4796342,41.916193 30.6118038,43 32,43 C33.3898587,43 34.5203658,41.916193 34.5203658,40.5822766 L34.5203658,38.8010494 C35.4447215,38.0891998 36,37.0102026 36,35.8285964 C36,33.7170966 34.2061513,32 32,32 C29.7938487,32 28,33.7170966 28,35.8285964 Z M34.3374896,35.8285964 C34.3374896,36.7697129 33.7240233,37.5681388 32.8578554,37.8952048 L32.8578554,40.5822766 C32.8578554,41.0311908 32.472153,41.3967352 32,41.3967352 C31.527847,41.3967352 31.1421446,41.0311908 31.1421446,40.5822766 L31.1421446,37.8952048 C30.2759767,37.5681388 29.6625104,36.7697129 29.6625104,35.8285964 C29.6625104,34.5988923 30.7098919,33.6032648 32,33.6032648 C33.2917706,33.6032648 34.3374896,34.5988923 34.3374896,35.8285964 Z" id="Fill-9" fill="#FFFFFF"></path>
        </g>
    </g>
</svg>