<?xml version="1.0" encoding="UTF-8"?>
<svg width="320px" height="160px" viewBox="0 0 320 160" version="1.1" xmlns="http://www.w3.org/2000/svg" xmlns:xlink="http://www.w3.org/1999/xlink">
    <!-- Generator: sketchtool 50.2 (55047) - http://www.bohemiancoding.com/sketch -->
    <title>59ABEF80-7BD4-4F7D-8DE3-5A33509912F9</title>
    <desc>Created with sketchtool.</desc>
    <defs>
        <polygon id="path-1" points="0.274359184 0.563325104 33.8806531 0.563325104 33.8806531 24.5563889 0.274359184 24.5563889"></polygon>
    </defs>
    <g id="Symbols" stroke="none" stroke-width="1" fill="none" fill-rule="evenodd">
        <g id="img-mobile">
            <g id="Group">
                <g id="Group-18">
                    <g id="Group-13">
                        <rect id="BG-Copy" fill="#407D91" x="0" y="0" width="320" height="140"></rect>
                        <g id="도시실루엣-wihte1" transform="translate(10.000000, 35.000000)">
                            <path d="M121.441327,65.7094906 L121.441327,51.9926632 C121.441327,50.8857241 120.612205,50 119.575498,50 L93.8662333,50 C92.8295269,50 92,50.8857241 92,51.9926632 L92,106 L106.720664,106 L121.441327,106 L125.410545,106 C126.308862,106 127,105.262473 127,104.302866 L127,67.4066244 C127,66.4470179 126.308862,65.7094906 125.410545,65.7094906 L121.441327,65.7094906 Z" id="Fill-3" fill="#FFFFFF"></path>
                            <path d="M85.5642795,64 L71.4357205,64 C70.0904334,64 69,65.0864823 69,66.4268949 L69,106 L87.8681091,106 C87.9407505,106 88,105.94137 88,105.868587 L88,66.4268949 C88,65.0864823 86.9095666,64 85.5642795,64" id="Fill-7" fill="#FFFFFF"></path>
                            <path d="M19.6623959,76 L0.33760406,76 C0.202562436,76 0.135041624,76.0653135 0.0675208119,76.1959406 C0,76.3269733 0,76.4576003 0,76.5882273 L0.270083248,78.1565631 C0.33760406,78.3529094 0.472645683,78.4835364 0.607687307,78.4835364 L1.55381744,78.4835364 L1.55381744,106 L18.648745,106 L18.648745,78.4835364 L19.3243725,78.4835364 C19.4598335,78.4835364 19.5948751,78.3529094 19.6623959,78.2222823 L20,76.5882273 C20,76.4576003 20,76.3269733 19.9324792,76.1959406 C19.8649584,76.0653135 19.7974376,76 19.6623959,76" id="Fill-9" fill="#FFFFFF"></path>
                            <polygon id="Fill-11" fill="#FFFFFF" points="132 106 152 106 152 31 132 36.1504078"></polygon>
                            <path d="M170.809728,76 L157.143096,76 C156.523954,76 156,76.4971347 156,77.0845855 L156,106 L172,106 L172,77.1297436 C172,76.4971347 171.476464,76 170.809728,76" id="Fill-17" fill="#FFFFFF"></path>
                            <path d="M62.5861916,74 L61.1593158,74 L59.0516706,74 L57.2951591,74 L55.1875139,74 L53.4314239,74 L51.3237787,74 L49.5672672,74 L47.459622,74 L46.3573235,74 C45.6221769,74 45,74.5299941 45,75.1567523 L45,104.380707 L45,106 L64,106 L64,104.380707 L64,75.2045321 C64,74.5299941 63.3778231,74 62.5861916,74" id="Fill-21" fill="#FFFFFF"></path>
                            <polygon id="Fill-26" fill="#FFFFFF" points="36 32.1087344 28.526631 32.1087344 28.526631 30.6478511 28.526631 28.0730838 28.526631 25.4987126 28.526631 22.9239453 28.526631 21 27.6980535 21 27.6980535 22.9239453 27.6980535 25.4987126 27.6980535 28.0730838 27.6980535 30.6478511 27.6980535 32.1087344 27 32.1087344 27 33 36 33"></polygon>
                            <path d="M40.6279981,96.5710327 L40.5698728,95.1045804 L40.528183,94.0383975 L40.4700577,92.5719453 L40.4283678,91.5049611 L40.3702425,90.0385088 L40.3281518,88.9723259 L40.2704274,87.5058737 L40.2283366,86.4392901 L40.1706122,84.9728379 L40.1285215,83.9062543 L40.0707971,82.4394014 L40.0287063,81.3732185 L39.9709819,79.9067663 L39.9288912,78.8401828 L39.8707659,77.3741312 L39.829076,76.3075476 L39.7709507,74.8410954 L39.72886,73.7745118 L39.6711356,72.3076589 L39.6290448,71.241476 L39.5713204,69.7750238 L39.5292297,68.7084402 L39.4715052,67.241988 L39.4294145,66.1758051 L39.3716901,64.7093529 L39.3295994,63.6423686 L39.2714741,62.1759164 L39.2297842,61.1093328 L39.1716589,59.6428806 L39.1524174,59.1524605 L39.129969,58.5766977 L39.0718438,57.1102455 L39.029753,56.0436619 L38.9720286,54.576809 L38.9299379,53.5106261 L38.8722134,52.0441739 L38.8301227,50.9775903 L38.7723983,49.5111381 L38.7303076,48.4445545 L38.6725831,46.9785029 L38.6304924,45.9115187 L38.5723671,44.4450665 L38.557936,44.0768507 L38.5306772,43.3788836 L38.4725519,41.9124313 L38.4304612,40.8458478 L38.3727368,39.3793955 L38.3306461,38.312812 L38.2729216,36.8463597 L38.2308309,35.7797762 L38.1939514,34.842609 C38.1939514,34.3746265 37.7706389,34 37.2418992,34 L26.7581008,34 C26.2293611,34 25.8060486,34.3746265 25.8060486,34.842609 L25.7691691,35.7797762 L25.7270784,36.8463597 L25.6693539,38.312812 L25.6272632,39.3793955 L25.5695388,40.8458478 L25.5274481,41.9124313 L25.4697236,43.3788836 L25.4500813,43.873711 L25.436051,44.2279033 L25.4276329,44.4450665 L25.3699085,45.9115187 L25.3278177,46.9785029 L25.2696924,48.4445545 L25.2276017,49.5111381 L25.1698773,50.9775903 L25.1494332,51.498862 L25.1277866,52.0441739 L25.0700621,53.5106261 L25.0279714,54.576809 L24.9698461,56.0436619 L24.9281562,57.1102455 L24.870031,58.5766977 L24.8535955,58.9974012 L24.8419705,59.295099 L24.8283411,59.6428806 L24.7702158,61.1093328 L24.7281251,62.1759164 L24.6704006,63.6423686 L24.6283099,64.7093529 L24.5705855,66.1758051 L24.5465336,66.7804161 L24.5284948,67.241988 L24.4707703,68.7084402 L24.4286796,69.7750238 L24.3705543,71.241476 L24.3288644,72.3076589 L24.2707391,73.7745118 L24.2551054,74.1775859 L24.2450838,74.4296073 L24.2290493,74.8410954 L24.170924,76.3075476 L24.1288333,77.3741312 L24.0711088,78.8401828 L24.0290181,79.9067663 L23.9712937,81.3732185 L23.9292029,82.4394014 L23.8714785,83.9062543 L23.8293878,84.9728379 L23.7716634,86.4392901 L23.7295726,87.5058737 L23.6714473,88.9723259 L23.6558136,89.3737973 L23.3720019,89.5052171 L23.645792,89.6282228 L23.6297575,90.0385088 L23.5716322,91.5049611 L23.5295415,92.5719453 L23.471817,94.0383975 L23.4297263,95.1045804 L23.3720019,96.5710327 L23.3299111,97.6376162 L23,106 L41,106 L40.6700889,97.6376162 L40.6279981,96.5710327 Z" id="Fill-29" fill="#FFFFFF"></path>
                            <path d="M114,11.8827381 C114,9.52271925 112.355884,7.55659231 110.132085,6.96542126 C110.185946,6.7181558 110.216916,6.46289254 110.216916,6.20096444 C110.216916,4.18018583 108.541157,2.54263536 106.473556,2.54263536 C105.553201,2.54263536 104.721717,2.87920963 104.069995,3.41772847 C103.138867,1.40361469 101.070593,0 98.6623195,0 C95.3841857,0 92.7261302,2.59662054 92.7261302,5.79974125 C92.7261302,5.93903634 92.7375757,6.07499902 92.7476747,6.21162818 C92.6736154,6.20829576 92.6009027,6.20096444 92.5254968,6.20096444 C89.4742538,6.20096444 87,8.61830086 87,11.600149 C87,14.5819971 89.4742538,17 92.5254968,17 L109.029275,17 C111.795053,16.8353785 114,14.6193202 114,11.8827381 Z" id="Stroke-3" fill="#FFFFFF" opacity="0.4"></path>
                            <rect id="Rectangle-3" fill="#B9D5DC" x="0" y="76" width="20" height="3" rx="1"></rect>
                            <rect id="Rectangle-3-Copy-13" fill="#B9D5DC" x="28" y="21" width="2" height="12"></rect>
                            <path d="M77,97 L80,97 C80.5522847,97 81,97.4477153 81,98 L81,106 L76,106 L76,98 C76,97.4477153 76.4477153,97 77,97 Z" id="Rectangle-3-Copy-2" fill="#B9D5DC"></path>
                            <path d="M162,98 L165,98 C165.552285,98 166,98.4477153 166,99 L166,105 L161,105 L161,99 C161,98.4477153 161.447715,98 162,98 Z" id="Rectangle-3-Copy-34" fill="#B9D5DC"></path>
                            <rect id="Rectangle-3-Copy-14" fill="#B9D5DC" x="96" y="67" width="4" height="4"></rect>
                            <rect id="Rectangle-3-Copy-36" fill="#B9D5DC" x="96" y="56" width="4" height="4"></rect>
                            <rect id="Rectangle-3-Copy-15" fill="#B9D5DC" x="96" y="73" width="4" height="4"></rect>
                            <rect id="Rectangle-3-Copy-18" fill="#B9D5DC" x="96" y="80" width="4" height="4"></rect>
                            <rect id="Rectangle-3-Copy-19" fill="#B9D5DC" x="96" y="61" width="4" height="4"></rect>
                            <rect id="Rectangle-3-Copy-20" fill="#B9D5DC" x="96" y="86" width="4" height="4"></rect>
                            <rect id="Rectangle-3-Copy-22" fill="#B9D5DC" x="96" y="92" width="4" height="4"></rect>
                            <rect id="Rectangle-3-Copy-16" fill="#B9D5DC" x="102" y="67" width="4" height="4"></rect>
                            <rect id="Rectangle-3-Copy-47" fill="#B9D5DC" x="102" y="56" width="4" height="4"></rect>
                            <rect id="Rectangle-3-Copy-17" fill="#B9D5DC" x="102" y="73" width="4" height="4"></rect>
                            <rect id="Rectangle-3-Copy-21" fill="#B9D5DC" x="102" y="86" width="4" height="4"></rect>
                            <rect id="Rectangle-3-Copy-23" fill="#B9D5DC" x="102" y="92" width="4" height="4"></rect>
                            <rect id="Rectangle-3-Copy-28" fill="#B9D5DC" x="108" y="67" width="4" height="4"></rect>
                            <rect id="Rectangle-3-Copy-48" fill="#B9D5DC" x="108" y="56" width="4" height="4"></rect>
                            <rect id="Rectangle-3-Copy-27" fill="#B9D5DC" x="108" y="73" width="4" height="4"></rect>
                            <rect id="Rectangle-3-Copy-26" fill="#B9D5DC" x="108" y="80" width="4" height="4"></rect>
                            <rect id="Rectangle-3-Copy-30" fill="#B9D5DC" x="108" y="61" width="4" height="4"></rect>
                            <rect id="Rectangle-3-Copy-25" fill="#B9D5DC" x="108" y="86" width="4" height="4"></rect>
                            <rect id="Rectangle-3-Copy-24" fill="#B9D5DC" x="108" y="92" width="4" height="4"></rect>
                            <rect id="Rectangle-3-Copy-33" fill="#B9D5DC" x="114" y="67" width="4" height="4"></rect>
                            <rect id="Rectangle-3-Copy-49" fill="#B9D5DC" x="114" y="56" width="4" height="4"></rect>
                            <rect id="Rectangle-3-Copy-32" fill="#B9D5DC" x="114" y="73" width="4" height="4"></rect>
                            <rect id="Rectangle-3-Copy-31" fill="#B9D5DC" x="114" y="80" width="4" height="4"></rect>
                            <rect id="Rectangle-3-Copy-35" fill="#B9D5DC" x="114" y="61" width="4" height="4"></rect>
                            <rect id="Rectangle-3-Copy-29" fill="#B9D5DC" x="114" y="92" width="4" height="4"></rect>
                            <rect id="Rectangle-3-Copy-3" fill="#B9D5DC" x="48" y="77" width="6" height="2" rx="1"></rect>
                            <rect id="Rectangle-3-Copy-5" fill="#B9D5DC" x="48" y="81" width="6" height="2" rx="1"></rect>
                            <rect id="Rectangle-3-Copy-4" fill="#B9D5DC" x="55" y="77" width="6" height="2" rx="1"></rect>
                            <rect id="Rectangle-3-Copy-6" fill="#B9D5DC" x="55" y="81" width="6" height="2" rx="1"></rect>
                            <rect id="Rectangle-3-Copy-8" fill="#B9D5DC" x="48" y="85" width="6" height="2" rx="1"></rect>
                            <rect id="Rectangle-3-Copy-7" fill="#B9D5DC" x="55" y="85" width="6" height="2" rx="1"></rect>
                            <rect id="Rectangle-3-Copy-10" fill="#B9D5DC" x="48" y="89" width="6" height="2" rx="1"></rect>
                            <rect id="Rectangle-3-Copy-9" fill="#B9D5DC" x="55" y="89" width="6" height="2" rx="1"></rect>
                            <rect id="Rectangle-3-Copy-12" fill="#B9D5DC" x="48" y="93" width="6" height="2" rx="1"></rect>
                            <rect id="Rectangle-3-Copy-11" fill="#B9D5DC" x="55" y="93" width="6" height="2" rx="1"></rect>
                            <rect id="Rectangle-3-Copy-37" fill="#B9D5DC" x="135" y="40" width="15" height="2" rx="1"></rect>
                            <rect id="Rectangle-3-Copy-38" fill="#B9D5DC" x="135" y="44.25" width="15" height="2" rx="1"></rect>
                            <rect id="Rectangle-3-Copy-39" fill="#B9D5DC" x="135" y="48.5" width="15" height="2" rx="1"></rect>
                            <rect id="Rectangle-3-Copy-40" fill="#B9D5DC" x="135" y="52.75" width="15" height="2" rx="1"></rect>
                            <rect id="Rectangle-3-Copy-41" fill="#B9D5DC" x="135" y="57" width="15" height="2" rx="1"></rect>
                            <rect id="Rectangle-3-Copy-42" fill="#B9D5DC" x="135" y="61.25" width="15" height="2" rx="1"></rect>
                            <rect id="Rectangle-3-Copy-43" fill="#B9D5DC" x="135" y="65.5" width="15" height="2" rx="1"></rect>
                            <rect id="Rectangle-3-Copy-44" fill="#B9D5DC" x="135" y="69.75" width="15" height="2" rx="1"></rect>
                            <rect id="Rectangle-3-Copy-45" fill="#B9D5DC" x="135" y="74" width="15" height="2" rx="1"></rect>
                            <path d="M140,98 L143,98 C143.552285,98 144,98.4477153 144,99 L144,105 L139,105 L139,99 C139,98.4477153 139.447715,98 140,98 Z" id="Rectangle-3-Copy-46" fill="#B9D5DC"></path>
                            <path d="M180,31.2908613 C180,30.0414396 179.086602,29.0005489 177.851158,28.687576 C177.881081,28.5566707 177.898287,28.4215313 177.898287,28.2828635 C177.898287,27.2130396 176.967309,26.3461011 175.818642,26.3461011 C175.307334,26.3461011 174.845398,26.5242875 174.48333,26.8093857 C173.966037,25.7430901 172.816996,25 171.479066,25 C169.657881,25 168.181183,26.3746815 168.181183,28.0704512 C168.181183,28.1441957 168.187542,28.216176 168.193153,28.288509 C168.152009,28.2867448 168.111613,28.2828635 168.06972,28.2828635 C166.374585,28.2828635 165,29.5626299 165,31.1412553 C165,32.7198808 166.374585,34 168.06972,34 L177.238486,34 C178.775029,33.9128475 180,32.7396401 180,31.2908613 Z" id="Stroke-3-Copy" fill="#FFFFFF" opacity="0.4"></path>
                        </g>
                    </g>
                    <g id="건물1" transform="translate(190.000000, 79.000000)">
                        <path d="M52.0846673,49.0539358 L36.1822088,49.000014 C35.4619544,48.9973512 34.5900675,49.3754696 34.2797825,49.8248181 L19,71.9367584 L37.6171015,72 L52.8730159,49.9220105 C53.207169,49.4380456 52.8603799,49.0565986 52.0846673,49.0539358" id="Fill-1" fill="#000000" opacity="0.2"></path>
                        <path d="M87.0846673,49.0539297 L71.1822088,49.0000079 C70.4619544,48.9980108 69.5900675,49.3754636 69.2797825,49.8248122 L54,71.9367583 L72.6178035,72 L87.8730159,49.9226704 C88.207169,49.4387053 87.8603799,49.0565925 87.0846673,49.0539297" id="Fill-3" fill="#000000" opacity="0.2"></path>
                        <g id="Group-7" transform="translate(104.000000, 49.000000)">
                            <mask id="mask-2" fill="white">
                                <use xlink:href="#path-1"></use>
                            </mask>
                            <g id="Clip-6"></g>
                            <path d="M32.9761143,0.619583333 L17.2577061,0.563333333 C16.5457878,0.56125 15.6839918,0.955 15.377298,1.42375 L0.274359184,24.4904167 L18.6759918,24.5563889 L33.7553388,1.52583333 C34.0856245,1.02097222 33.742849,0.622361111 32.9761143,0.619583333" id="Fill-5" fill="#000000" opacity="0.2" mask="url(#mask-2)"></path>
                        </g>
                        <path d="M118.147921,5 C119.732794,5 121,6.27728335 121,7.87319034 L121,73 L76,73 L76,7.87319034 C76,6.27728335 77.267206,5 78.8520786,5 L118.147921,5 Z" id="Fill-8" fill="#D9D9D9"></path>
                        <path d="M78.8520786,5 L118.147921,5 C119.732794,5 121,6.27728335 121,7.87319034 L121,73 L76,73 L76,7.87319034 C76,6.27728335 77.267206,5 78.8520786,5 Z" id="Stroke-10" stroke="#204453" stroke-width="2"></path>
                        <path d="M80.4855859,13 L81.5144141,13 C82.3141146,13 83,13.566131 83,14.2262052 L83,16.7731768 C83,17.433869 82.3141146,18 81.5144141,18 L80.4855859,18 C79.6851367,18 79,17.433869 79,16.7731768 L79,14.2262052 C79,13.566131 79.6851367,13 80.4855859,13" id="Fill-12" fill="#FCFCFC"></path>
                        <path d="M80.4855859,20 L81.5144141,20 C82.3141146,20 83,20.566131 83,21.2262052 L83,23.7731768 C83,24.433869 82.3141146,25 81.5144141,25 L80.4855859,25 C79.6851367,25 79,24.433869 79,23.7731768 L79,21.2262052 C79,20.566131 79.6851367,20 80.4855859,20" id="Fill-12-Copy" fill="#FCFCFC"></path>
                        <path d="M85.555596,13 L86.555778,13 C87.333212,13 88,13.566131 88,14.2262052 L88,16.7731768 C88,17.433869 87.333212,18 86.555778,18 L85.555596,18 C84.666788,18 84,17.433869 84,16.7731768 L84,14.2262052 C84,13.566131 84.666788,13 85.555596,13" id="Fill-14" fill="#FCFCFC"></path>
                        <path d="M85.555596,20 L86.555778,20 C87.333212,20 88,20.566131 88,21.2262052 L88,23.7731768 C88,24.433869 87.333212,25 86.555778,25 L85.555596,25 C84.666788,25 84,24.433869 84,23.7731768 L84,21.2262052 C84,20.566131 84.666788,20 85.555596,20" id="Fill-14-Copy" fill="#FCFCFC"></path>
                        <path d="M90.4934289,13 L91.5190479,13 C92.316254,13 93,13.566131 93,14.2262052 L93,16.7731768 C93,17.433869 92.316254,18 91.5190479,18 L90.4934289,18 C89.6962228,18 89.0124768,17.433869 89.0124768,16.7731768 L89.0124768,14.2262052 C88.8982703,13.566131 89.5820163,13 90.4934289,13" id="Fill-16" fill="#FCFCFC"></path>
                        <path d="M90.4934289,20 L91.5190479,20 C92.316254,20 93,20.566131 93,21.2262052 L93,23.7731768 C93,24.433869 92.316254,25 91.5190479,25 L90.4934289,25 C89.6962228,25 89.0124768,24.433869 89.0124768,23.7731768 L89.0124768,21.2262052 C88.8982703,20.566131 89.5820163,20 90.4934289,20" id="Fill-16-Copy" fill="#FCFCFC"></path>
                        <path d="M95.4855859,13 L96.5144141,13 C97.3141146,13 98,13.566131 98,14.2262052 L98,16.7731768 C98,17.433869 97.3141146,18 96.5144141,18 L95.4855859,18 C94.6851367,18 94,17.433869 94,16.7731768 L94,14.2262052 C94,13.566131 94.6851367,13 95.4855859,13" id="Fill-18" fill="#FCFCFC"></path>
                        <path d="M100.485586,13 L101.514414,13 C102.314115,13 103,13.566131 103,14.2262052 L103,16.7731768 C103,17.433869 102.314115,18 101.514414,18 L100.485586,18 C99.6851367,18 99,17.433869 99,16.7731768 L99,14.2262052 C99,13.566131 99.6851367,13 100.485586,13" id="Fill-68" fill="#FCFCFC"></path>
                        <path d="M100.485586,20 L101.514414,20 C102.314115,20 103,20.566131 103,21.2262052 L103,23.7731768 C103,24.433869 102.314115,25 101.514414,25 L100.485586,25 C99.6851367,25 99,24.433869 99,23.7731768 L99,21.2262052 C99,20.566131 99.6851367,20 100.485586,20" id="Fill-68-Copy" fill="#FCFCFC"></path>
                        <path d="M105.493429,13 L106.519048,13 C107.316254,13 108,13.566131 108,14.2262052 L108,16.7731768 C108,17.433869 107.316254,18 106.519048,18 L105.493429,18 C104.696223,18 104.012477,17.433869 104.012477,16.7731768 L104.012477,14.2262052 C103.89827,13.566131 104.582016,13 105.493429,13" id="Fill-70" fill="#FCFCFC"></path>
                        <path d="M105.493429,20 L106.519048,20 C107.316254,20 108,20.566131 108,21.2262052 L108,23.7731768 C108,24.433869 107.316254,25 106.519048,25 L105.493429,25 C104.696223,25 104.012477,24.433869 104.012477,23.7731768 L104.012477,21.2262052 C103.89827,20.566131 104.582016,20 105.493429,20" id="Fill-70-Copy" fill="#FCFCFC"></path>
                        <path d="M110.485586,13 L111.514414,13 C112.314115,13 113,13.566131 113,14.2262052 L113,16.7731768 C113,17.433869 112.314115,18 111.514414,18 L110.485586,18 C109.685885,18 109,17.433869 109,16.7731768 L109,14.2262052 C109,13.566131 109.685885,13 110.485586,13" id="Fill-72" fill="#FCFCFC"></path>
                        <path d="M110.485586,20 L111.514414,20 C112.314115,20 113,20.566131 113,21.2262052 L113,23.7731768 C113,24.433869 112.314115,25 111.514414,25 L110.485586,25 C109.685885,25 109,24.433869 109,23.7731768 L109,21.2262052 C109,20.566131 109.685885,20 110.485586,20" id="Fill-72-Copy" fill="#FCFCFC"></path>
                        <path d="M115.485586,13 L116.514414,13 C117.314115,13 118,13.566131 118,14.2262052 L118,16.7731768 C118,17.433869 117.314115,18 116.514414,18 L115.485586,18 C114.685137,18 114,17.433869 114,16.7731768 L114,14.2262052 C114,13.566131 114.685137,13 115.485586,13" id="Fill-74" fill="#FCFCFC"></path>
                        <path d="M115.485586,20 L116.514414,20 C117.314115,20 118,20.566131 118,21.2262052 L118,23.7731768 C118,24.433869 117.314115,25 116.514414,25 L115.485586,25 C114.685137,25 114,24.433869 114,23.7731768 L114,21.2262052 C114,20.566131 114.685137,20 115.485586,20" id="Fill-74-Copy" fill="#FCFCFC"></path>
                        <path d="M80.4855859,27 L81.5144141,27 C82.3141146,27 83,27.566131 83,28.2262052 L83,30.7731768 C83,31.433869 82.3141146,32 81.5144141,32 L80.4855859,32 C79.6851367,32 79,31.433869 79,30.7731768 L79,28.2262052 C79,27.566131 79.6851367,27 80.4855859,27" id="Fill-12-Copy-2" fill="#FCFCFC"></path>
                        <path d="M90.4934289,27 L91.5190479,27 C92.316254,27 93,27.566131 93,28.2262052 L93,30.7731768 C93,31.433869 92.316254,32 91.5190479,32 L90.4934289,32 C89.6962228,32 89.0124768,31.433869 89.0124768,30.7731768 L89.0124768,28.2262052 C88.8982703,27.566131 89.5820163,27 90.4934289,27" id="Fill-16-Copy-2" fill="#FCFCFC"></path>
                        <path d="M95.4855859,27 L96.5144141,27 C97.3141146,27 98,27.566131 98,28.2262052 L98,30.7731768 C98,31.433869 97.3141146,32 96.5144141,32 L95.4855859,32 C94.6851367,32 94,31.433869 94,30.7731768 L94,28.2262052 C94,27.566131 94.6851367,27 95.4855859,27" id="Fill-18-Copy-2" fill="#FCFCFC"></path>
                        <path d="M100.485586,27 L101.514414,27 C102.314115,27 103,27.566131 103,28.2262052 L103,30.7731768 C103,31.433869 102.314115,32 101.514414,32 L100.485586,32 C99.6851367,32 99,31.433869 99,30.7731768 L99,28.2262052 C99,27.566131 99.6851367,27 100.485586,27" id="Fill-68-Copy-2" fill="#FCFCFC"></path>
                        <path d="M105.493429,27 L106.519048,27 C107.316254,27 108,27.566131 108,28.2262052 L108,30.7731768 C108,31.433869 107.316254,32 106.519048,32 L105.493429,32 C104.696223,32 104.012477,31.433869 104.012477,30.7731768 L104.012477,28.2262052 C103.89827,27.566131 104.582016,27 105.493429,27" id="Fill-70-Copy-2" fill="#FCFCFC"></path>
                        <path d="M110.485586,27 L111.514414,27 C112.314115,27 113,27.566131 113,28.2262052 L113,30.7731768 C113,31.433869 112.314115,32 111.514414,32 L110.485586,32 C109.685885,32 109,31.433869 109,30.7731768 L109,28.2262052 C109,27.566131 109.685885,27 110.485586,27" id="Fill-72-Copy-2" fill="#FCFCFC"></path>
                        <path d="M115.485586,27 L116.514414,27 C117.314115,27 118,27.566131 118,28.2262052 L118,30.7731768 C118,31.433869 117.314115,32 116.514414,32 L115.485586,32 C114.685137,32 114,31.433869 114,30.7731768 L114,28.2262052 C114,27.566131 114.685137,27 115.485586,27" id="Fill-74-Copy-2" fill="#FCFCFC"></path>
                        <path d="M80.4855859,34 L81.5144141,34 C82.3141146,34 83,34.566131 83,35.2262052 L83,37.7731768 C83,38.433869 82.3141146,39 81.5144141,39 L80.4855859,39 C79.6851367,39 79,38.433869 79,37.7731768 L79,35.2262052 C79,34.566131 79.6851367,34 80.4855859,34" id="Fill-12-Copy-3" fill="#FCFCFC"></path>
                        <path d="M85.555596,34 L86.555778,34 C87.333212,34 88,34.566131 88,35.2262052 L88,37.7731768 C88,38.433869 87.333212,39 86.555778,39 L85.555596,39 C84.666788,39 84,38.433869 84,37.7731768 L84,35.2262052 C84,34.566131 84.666788,34 85.555596,34" id="Fill-14-Copy-3" fill="#FCFCFC"></path>
                        <path d="M90.4934289,34 L91.5190479,34 C92.316254,34 93,34.566131 93,35.2262052 L93,37.7731768 C93,38.433869 92.316254,39 91.5190479,39 L90.4934289,39 C89.6962228,39 89.0124768,38.433869 89.0124768,37.7731768 L89.0124768,35.2262052 C88.8982703,34.566131 89.5820163,34 90.4934289,34" id="Fill-16-Copy-3" fill="#FCFCFC"></path>
                        <path d="M95.4855859,34 L96.5144141,34 C97.3141146,34 98,34.566131 98,35.2262052 L98,37.7731768 C98,38.433869 97.3141146,39 96.5144141,39 L95.4855859,39 C94.6851367,39 94,38.433869 94,37.7731768 L94,35.2262052 C94,34.566131 94.6851367,34 95.4855859,34" id="Fill-18-Copy-3" fill="#FCFCFC"></path>
                        <path d="M100.485586,34 L101.514414,34 C102.314115,34 103,34.566131 103,35.2262052 L103,37.7731768 C103,38.433869 102.314115,39 101.514414,39 L100.485586,39 C99.6851367,39 99,38.433869 99,37.7731768 L99,35.2262052 C99,34.566131 99.6851367,34 100.485586,34" id="Fill-68-Copy-3" fill="#FCFCFC"></path>
                        <path d="M105.493429,34 L106.519048,34 C107.316254,34 108,34.566131 108,35.2262052 L108,37.7731768 C108,38.433869 107.316254,39 106.519048,39 L105.493429,39 C104.696223,39 104.012477,38.433869 104.012477,37.7731768 L104.012477,35.2262052 C103.89827,34.566131 104.582016,34 105.493429,34" id="Fill-70-Copy-3" fill="#FCFCFC"></path>
                        <path d="M110.485586,34 L111.514414,34 C112.314115,34 113,34.566131 113,35.2262052 L113,37.7731768 C113,38.433869 112.314115,39 111.514414,39 L110.485586,39 C109.685885,39 109,38.433869 109,37.7731768 L109,35.2262052 C109,34.566131 109.685885,34 110.485586,34" id="Fill-72-Copy-3" fill="#FCFCFC"></path>
                        <path d="M115.485586,34 L116.514414,34 C117.314115,34 118,34.566131 118,35.2262052 L118,37.7731768 C118,38.433869 117.314115,39 116.514414,39 L115.485586,39 C114.685137,39 114,38.433869 114,37.7731768 L114,35.2262052 C114,34.566131 114.685137,34 115.485586,34" id="Fill-74-Copy-3" fill="#FCFCFC"></path>
                        <path d="M80.4855859,41 L81.5144141,41 C82.3141146,41 83,41.566131 83,42.2262052 L83,44.7731768 C83,45.433869 82.3141146,46 81.5144141,46 L80.4855859,46 C79.6851367,46 79,45.433869 79,44.7731768 L79,42.2262052 C79,41.566131 79.6851367,41 80.4855859,41" id="Fill-12-Copy-4" fill="#FCFCFC"></path>
                        <path d="M85.555596,41 L86.555778,41 C87.333212,41 88,41.566131 88,42.2262052 L88,44.7731768 C88,45.433869 87.333212,46 86.555778,46 L85.555596,46 C84.666788,46 84,45.433869 84,44.7731768 L84,42.2262052 C84,41.566131 84.666788,41 85.555596,41" id="Fill-14-Copy-4" fill="#FCFCFC"></path>
                        <path d="M90.4934289,41 L91.5190479,41 C92.316254,41 93,41.566131 93,42.2262052 L93,44.7731768 C93,45.433869 92.316254,46 91.5190479,46 L90.4934289,46 C89.6962228,46 89.0124768,45.433869 89.0124768,44.7731768 L89.0124768,42.2262052 C88.8982703,41.566131 89.5820163,41 90.4934289,41" id="Fill-16-Copy-4" fill="#FCFCFC"></path>
                        <path d="M95.4855859,41 L96.5144141,41 C97.3141146,41 98,41.566131 98,42.2262052 L98,44.7731768 C98,45.433869 97.3141146,46 96.5144141,46 L95.4855859,46 C94.6851367,46 94,45.433869 94,44.7731768 L94,42.2262052 C94,41.566131 94.6851367,41 95.4855859,41" id="Fill-18-Copy-4" fill="#FCFCFC"></path>
                        <path d="M100.485586,41 L101.514414,41 C102.314115,41 103,41.566131 103,42.2262052 L103,44.7731768 C103,45.433869 102.314115,46 101.514414,46 L100.485586,46 C99.6851367,46 99,45.433869 99,44.7731768 L99,42.2262052 C99,41.566131 99.6851367,41 100.485586,41" id="Fill-68-Copy-4" fill="#FCFCFC"></path>
                        <path d="M110.485586,41 L111.514414,41 C112.314115,41 113,41.566131 113,42.2262052 L113,44.7731768 C113,45.433869 112.314115,46 111.514414,46 L110.485586,46 C109.685885,46 109,45.433869 109,44.7731768 L109,42.2262052 C109,41.566131 109.685885,41 110.485586,41" id="Fill-72-Copy-4" fill="#FCFCFC"></path>
                        <path d="M115.485586,41 L116.514414,41 C117.314115,41 118,41.566131 118,42.2262052 L118,44.7731768 C118,45.433869 117.314115,46 116.514414,46 L115.485586,46 C114.685137,46 114,45.433869 114,44.7731768 L114,42.2262052 C114,41.566131 114.685137,41 115.485586,41" id="Fill-74-Copy-4" fill="#FCFCFC"></path>
                        <path d="M80.4855859,48 L81.5144141,48 C82.3141146,48 83,48.566131 83,49.2262052 L83,51.7731768 C83,52.433869 82.3141146,53 81.5144141,53 L80.4855859,53 C79.6851367,53 79,52.433869 79,51.7731768 L79,49.2262052 C79,48.566131 79.6851367,48 80.4855859,48" id="Fill-12-Copy-5" fill="#FCFCFC"></path>
                        <path d="M85.555596,48 L86.555778,48 C87.333212,48 88,48.566131 88,49.2262052 L88,51.7731768 C88,52.433869 87.333212,53 86.555778,53 L85.555596,53 C84.666788,53 84,52.433869 84,51.7731768 L84,49.2262052 C84,48.566131 84.666788,48 85.555596,48" id="Fill-14-Copy-5" fill="#FCFCFC"></path>
                        <path d="M100.485586,48 L101.514414,48 C102.314115,48 103,48.566131 103,49.2262052 L103,51.7731768 C103,52.433869 102.314115,53 101.514414,53 L100.485586,53 C99.6851367,53 99,52.433869 99,51.7731768 L99,49.2262052 C99,48.566131 99.6851367,48 100.485586,48" id="Fill-68-Copy-5" fill="#FCFCFC"></path>
                        <path d="M105.493429,48 L106.519048,48 C107.316254,48 108,48.566131 108,49.2262052 L108,51.7731768 C108,52.433869 107.316254,53 106.519048,53 L105.493429,53 C104.696223,53 104.012477,52.433869 104.012477,51.7731768 L104.012477,49.2262052 C103.89827,48.566131 104.582016,48 105.493429,48" id="Fill-70-Copy-5" fill="#FCFCFC"></path>
                        <path d="M110.485586,48 L111.514414,48 C112.314115,48 113,48.566131 113,49.2262052 L113,51.7731768 C113,52.433869 112.314115,53 111.514414,53 L110.485586,53 C109.685885,53 109,52.433869 109,51.7731768 L109,49.2262052 C109,48.566131 109.685885,48 110.485586,48" id="Fill-72-Copy-5" fill="#FCFCFC"></path>
                        <path d="M115.485586,48 L116.514414,48 C117.314115,48 118,48.566131 118,49.2262052 L118,51.7731768 C118,52.433869 117.314115,53 116.514414,53 L115.485586,53 C114.685137,53 114,52.433869 114,51.7731768 L114,49.2262052 C114,48.566131 114.685137,48 115.485586,48" id="Fill-74-Copy-5" fill="#FCFCFC"></path>
                        <path d="M80.4855859,55 L81.5144141,55 C82.3141146,55 83,55.566131 83,56.2262052 L83,58.7731768 C83,59.433869 82.3141146,60 81.5144141,60 L80.4855859,60 C79.6851367,60 79,59.433869 79,58.7731768 L79,56.2262052 C79,55.566131 79.6851367,55 80.4855859,55" id="Fill-12-Copy-6" fill="#FCFCFC"></path>
                        <path d="M85.555596,55 L86.555778,55 C87.333212,55 88,55.566131 88,56.2262052 L88,58.7731768 C88,59.433869 87.333212,60 86.555778,60 L85.555596,60 C84.666788,60 84,59.433869 84,58.7731768 L84,56.2262052 C84,55.566131 84.666788,55 85.555596,55" id="Fill-14-Copy-6" fill="#FCFCFC"></path>
                        <path d="M95.4855859,55 L96.5144141,55 C97.3141146,55 98,55.566131 98,56.2262052 L98,58.7731768 C98,59.433869 97.3141146,60 96.5144141,60 L95.4855859,60 C94.6851367,60 94,59.433869 94,58.7731768 L94,56.2262052 C94,55.566131 94.6851367,55 95.4855859,55" id="Fill-18-Copy-6" fill="#FCFCFC"></path>
                        <path d="M100.485586,55 L101.514414,55 C102.314115,55 103,55.566131 103,56.2262052 L103,58.7731768 C103,59.433869 102.314115,60 101.514414,60 L100.485586,60 C99.6851367,60 99,59.433869 99,58.7731768 L99,56.2262052 C99,55.566131 99.6851367,55 100.485586,55" id="Fill-68-Copy-6" fill="#FCFCFC"></path>
                        <path d="M105.493429,55 L106.519048,55 C107.316254,55 108,55.566131 108,56.2262052 L108,58.7731768 C108,59.433869 107.316254,60 106.519048,60 L105.493429,60 C104.696223,60 104.012477,59.433869 104.012477,58.7731768 L104.012477,56.2262052 C103.89827,55.566131 104.582016,55 105.493429,55" id="Fill-70-Copy-6" fill="#FCFCFC"></path>
                        <path d="M110.485586,55 L111.514414,55 C112.314115,55 113,55.566131 113,56.2262052 L113,58.7731768 C113,59.433869 112.314115,60 111.514414,60 L110.485586,60 C109.685885,60 109,59.433869 109,58.7731768 L109,56.2262052 C109,55.566131 109.685885,55 110.485586,55" id="Fill-72-Copy-6" fill="#FCFCFC"></path>
                        <path d="M115.485586,55 L116.514414,55 C117.314115,55 118,55.566131 118,56.2262052 L118,58.7731768 C118,59.433869 117.314115,60 116.514414,60 L115.485586,60 C114.685137,60 114,59.433869 114,58.7731768 L114,56.2262052 C114,55.566131 114.685137,55 115.485586,55" id="Fill-74-Copy-6" fill="#FCFCFC"></path>
                        <polygon id="Fill-126" fill="#E4E4E4" points="44 73 72 73 72 24 44 24"></polygon>
                        <polygon id="Stroke-128" stroke="#204453" stroke-width="2" points="44 73 72 73 72 24 44 24"></polygon>
                        <path d="M59,64 L63,64 L63,72 L59,72 L54,72 L54,64 L59,64 Z" id="Combined-Shape" fill="#F8F8F8"></path>
                        <path d="M72.885238,27 L42.003355,27 C41.780541,27 41.557727,26.737014 41.445628,26.3417184 L41,23.1834368 C41,22.9204508 41,22.6574649 41.112099,22.3936622 C41.223506,22.131493 41.334221,22 41.557727,22 L73.442965,22 C73.665779,22 73.777186,22.131493 73.888593,22.3936622 C74,22.6574649 74,22.9204508 74,23.1834368 L73.442965,26.4732114 C73.331558,26.737014 73.108052,27 72.885238,27" id="Fill-158" fill="#C397FC"></path>
                        <path d="M72.885238,27 L42.003355,27 C41.780541,27 41.557727,26.737014 41.445628,26.3417184 L41,23.1834368 C41,22.9204508 41,22.6574649 41.112099,22.3936622 C41.223506,22.131493 41.334221,22 41.557727,22 L73.442965,22 C73.665779,22 73.777186,22.131493 73.888593,22.3936622 C74,22.6574649 74,22.9204508 74,23.1834368 L73.442965,26.4732114 C73.331558,26.737014 73.108052,27 72.885238,27 Z" id="Stroke-159" stroke="#204453" stroke-width="2"></path>
                        <path d="M2.64255927,0 L34.2469287,0 C35.7885374,0 37,1.2094962 37,2.74860266 L37,73 L0,73 L0,2.63896388 C0,1.2094962 1.21076755,0 2.64255927,0" id="Fill-160" fill="#DBDBDB"></path>
                        <g id="Group-12" transform="translate(47.000000, 33.000000)">
                            <path d="M1.02179837,0 L3.63337405,0 C4.20064831,0 4.65517241,0.42597428 4.65517241,0.957616599 L4.65517241,6.49065926 C4.65517241,7.02296201 4.20064831,7.44827586 3.63337405,7.44827586 L1.02179837,7.44827586 C0.453819412,7.44827586 0,7.02296201 0,6.49065926 L0,0.957616599 C0,0.42597428 0.453819412,0 1.02179837,0" id="Fill-129" fill="#FDFDFD"></path>
                            <path d="M9.40110871,0 L12.0126844,0 C12.5799587,0 13.0344828,0.42597428 13.0344828,0.957616599 L13.0344828,6.49065926 C13.0344828,7.02296201 12.5799587,7.44827586 12.0126844,7.44827586 L9.40110871,7.44827586 C8.83383445,7.44827586 8.37931034,7.02296201 8.37931034,6.49065926 L8.37931034,0.957616599 C8.37931034,0.42597428 8.83383445,0 9.40110871,0" id="Fill-130" fill="#FDFDFD"></path>
                            <path d="M17.7804191,0 L20.3919947,0 C20.959269,0 21.4137931,0.42597428 21.4137931,0.957616599 L21.4137931,6.49065926 C21.4137931,7.02296201 20.959269,7.44827586 20.3919947,7.44827586 L17.7804191,7.44827586 C17.2124401,7.44827586 16.7586207,7.02296201 16.7586207,6.49065926 L16.7586207,0.957616599 C16.7586207,0.42597428 17.2124401,0 17.7804191,0" id="Fill-131" fill="#FDFDFD"></path>
                            <path d="M1.02179837,10.2413793 L3.63337405,10.2413793 C4.20064831,10.2413793 4.65517241,10.6673536 4.65517241,11.1989959 L4.65517241,16.7320386 C4.65517241,17.2643413 4.20064831,17.6896552 3.63337405,17.6896552 L1.02179837,17.6896552 C0.453819412,17.6896552 0,17.2643413 0,16.7320386 L0,11.1989959 C0,10.6673536 0.453819412,10.2413793 1.02179837,10.2413793" id="Fill-132" fill="#FDFDFD"></path>
                            <path d="M9.40110871,10.2413793 L12.0126844,10.2413793 C12.5799587,10.2413793 13.0344828,10.6673536 13.0344828,11.1989959 L13.0344828,16.7320386 C13.0344828,17.2643413 12.5799587,17.6896552 12.0126844,17.6896552 L9.40110871,17.6896552 C8.83383445,17.6896552 8.37931034,17.2643413 8.37931034,16.7320386 L8.37931034,11.1989959 C8.37931034,10.6673536 8.83383445,10.2413793 9.40110871,10.2413793" id="Fill-133" fill="#FDFDFD"></path>
                            <path d="M17.7804191,10.2413793 L20.3919947,10.2413793 C20.959269,10.2413793 21.4137931,10.6673536 21.4137931,11.1989959 L21.4137931,16.7320386 C21.4137931,17.2643413 20.959269,17.6896552 20.3919947,17.6896552 L17.7804191,17.6896552 C17.2124401,17.6896552 16.7586207,17.2643413 16.7586207,16.7320386 L16.7586207,11.1989959 C16.7586207,10.6673536 17.2124401,10.2413793 17.7804191,10.2413793" id="Fill-134" fill="#FDFDFD"></path>
                            <path d="M1.02179837,19.5517241 L3.63337405,19.5517241 C4.20064831,19.5517241 4.65517241,19.9777362 4.65517241,20.5087652 L4.65517241,26.0422985 C4.65517241,26.5746484 4.20064831,27 3.63337405,27 L1.02179837,27 C0.453819412,27 0,26.5746484 0,26.0422985 L0,20.5087652 C0,19.9777362 0.453819412,19.5517241 1.02179837,19.5517241" id="Fill-135" fill="#FDFDFD"></path>
                            <path d="M9.40110871,19.5517241 L12.0126844,19.5517241 C12.5799587,19.5517241 13.0344828,19.9777362 13.0344828,20.5087652 L13.0344828,26.0422985 C13.0344828,26.5746484 12.5799587,27 12.0126844,27 L9.40110871,27 C8.83383445,27 8.37931034,26.5746484 8.37931034,26.0422985 L8.37931034,20.5087652 C8.37931034,19.9777362 8.83383445,19.5517241 9.40110871,19.5517241" id="Fill-136" fill="#FDFDFD"></path>
                            <path d="M17.7804191,19.5517241 L20.3919947,19.5517241 C20.959269,19.5517241 21.4137931,19.9777362 21.4137931,20.5087652 L21.4137931,26.0422985 C21.4137931,26.5746484 20.959269,27 20.3919947,27 L17.7804191,27 C17.2124401,27 16.7586207,26.5746484 16.7586207,26.0422985 L16.7586207,20.5087652 C16.7586207,19.9777362 17.2124401,19.5517241 17.7804191,19.5517241" id="Fill-137" fill="#FDFDFD"></path>
                            <polygon id="Stroke-143" stroke="#A0A0A0" stroke-width="1.611" points="16.7586207 7.44827586 21.4137931 7.44827586 21.4137931 6.51724138 16.7586207 6.51724138"></polygon>
                            <polygon id="Stroke-149" stroke="#A0A0A0" stroke-width="1.611" points="16.7586207 17.0379765 21.4137931 17.0379765 21.4137931 16.106942 16.7586207 16.106942"></polygon>
                            <polygon id="Stroke-155" stroke="#A0A0A0" stroke-width="1.611" points="16.7586207 27 21.4137931 27 21.4137931 26.0689655 16.7586207 26.0689655"></polygon>
                            <polygon id="Stroke-141" stroke="#A0A0A0" stroke-width="1.611" points="8.37931034 7.44827586 13.0344828 7.44827586 13.0344828 6.51724138 8.37931034 6.51724138"></polygon>
                            <polygon id="Stroke-147" stroke="#A0A0A0" stroke-width="1.611" points="8.37931034 17.0379765 13.0344828 17.0379765 13.0344828 16.106942 8.37931034 16.106942"></polygon>
                            <polygon id="Stroke-153" stroke="#A0A0A0" stroke-width="1.611" points="8.37931034 27 13.0344828 27 13.0344828 26.0689655 8.37931034 26.0689655"></polygon>
                            <polygon id="Stroke-139" stroke="#A0A0A0" stroke-width="1.611" points="0 7.44827586 4.65517241 7.44827586 4.65517241 6.51724138 0 6.51724138"></polygon>
                            <polygon id="Stroke-145" stroke="#A0A0A0" stroke-width="1.611" points="0 17.0379765 4.65517241 17.0379765 4.65517241 16.106942 0 16.106942"></polygon>
                            <polygon id="Stroke-151" stroke="#A0A0A0" stroke-width="1.611" points="0 27 4.65517241 27 4.65517241 26.0689655 0 26.0689655"></polygon>
                            <polygon id="Path" stroke="#979797" fill="#D8D8D8" points="0 27 4.65517241 27 4.65517241 26.0689655 0 26.0689655"></polygon>
                        </g>
                        <path d="M2.64255927,0 L34.2469287,0 C35.7885374,0 37,1.2094962 37,2.74860266 L37,73 L0,73 L0,2.63896388 C0,1.2094962 1.21076755,0 2.64255927,0 Z" id="Stroke-161" stroke="#204453" stroke-width="2"></path>
                        <path d="M6.63449866,7 L8.5579024,7 C9.32750668,7 10,7.67249332 10,8.53799466 L10,10.4613984 C10,11.3268997 9.32750668,12 8.4613984,12 L6.5386016,12 C5.67310027,12 5,11.3268997 5,10.4613984 L5,8.53799466 C5.09589706,7.67249332 5.76899733,7 6.63449866,7" id="Fill-162" fill="#FCFCFC"></path>
                        <path d="M13.5384149,7 L15.4615851,7 C16.3269814,7 17,7.67249332 17,8.53799466 L17,10.4613984 C17,11.3268997 16.3269814,12 15.4615851,12 L13.5384149,12 C12.6730186,12 12,11.3268997 12,10.4613984 L12,8.53799466 C12,7.67249332 12.6730186,7 13.5384149,7" id="Fill-163" fill="#FCFCFC"></path>
                        <path d="M20.5384149,7 L22.4615851,7 C23.3269814,7 24,7.67249332 24,8.53799466 L24,10.4613984 C24,11.3268997 23.3269814,12 22.4615851,12 L20.5384149,12 C19.6730186,12 19,11.3268997 19,10.4613984 L19,8.53799466 C19,7.67249332 19.6730186,7 20.5384149,7" id="Fill-164" fill="#FCFCFC"></path>
                        <path d="M27.5384149,7 L29.4609783,7 C30.3269814,7 31,7.67249332 31,8.53799466 L31,10.4613984 C31,11.3268997 30.3269814,12 29.4609783,12 L27.5384149,12 C26.6730186,12 26,11.3268997 26,10.4613984 L26,8.53799466 C26,7.67249332 26.6730186,7 27.5384149,7" id="Fill-165" fill="#FCFCFC"></path>
                        <path d="M6.63449866,15 L8.5579024,15 C9.32750668,15 10,15.6862624 10,16.4709158 L10,18.4319307 C10,19.3143564 9.32750668,20 8.4613984,20 L6.5386016,20 C5.67310027,20 5,19.3143564 5,18.4319307 L5,16.4709158 C5.09589706,15.6862624 5.76899733,15 6.63449866,15" id="Fill-166" fill="#FCFCFC"></path>
                        <path d="M13.5384149,15 L15.4615851,15 C16.3269814,15 17,15.6730186 17,16.5384149 L17,18.4615851 C17,19.3269814 16.3269814,20 15.4615851,20 L13.5384149,20 C12.6730186,20 12,19.3269814 12,18.4615851 L12,16.5384149 C12,15.6730186 12.6730186,15 13.5384149,15" id="Fill-167" fill="#FCFCFC"></path>
                        <path d="M20.5384149,15 L22.4615851,15 C23.3269814,15 24,15.6730186 24,16.5384149 L24,18.4615851 C24,19.3269814 23.3269814,20 22.4615851,20 L20.5384149,20 C19.6730186,20 19,19.3269814 19,18.4615851 L19,16.5384149 C19,15.6730186 19.6730186,15 20.5384149,15" id="Fill-168" fill="#FCFCFC"></path>
                        <path d="M27.5384149,15 L29.4609783,15 C30.3269814,15 31,15.6730186 31,16.5384149 L31,18.4615851 C31,19.3269814 30.3269814,20 29.4609783,20 L27.5384149,20 C26.6730186,20 26,19.3269814 26,18.4615851 L26,16.5384149 C26,15.6730186 26.6730186,15 27.5384149,15" id="Fill-169" fill="#FCFCFC"></path>
                        <path d="M6.53841486,23 L8.46158514,23 C9.32698143,23 10,23.6724933 10,24.5386016 L10,26.4613984 C10,27.3268997 9.32698143,28 8.46158514,28 L6.53841486,28 C5.67301857,28 5,27.3268997 5,26.4613984 L5,24.5386016 C5,23.6724933 5.67301857,23 6.53841486,23" id="Fill-170" fill="#FCFCFC"></path>
                        <path d="M27.5384149,23 L29.4609783,23 C30.3269814,23 31,23.6724933 31,24.5386016 L31,26.4613984 C31,27.3268997 30.3269814,28 29.4609783,28 L27.5384149,28 C26.6730186,28 26,27.3268997 26,26.4613984 L26,24.5386016 C26,23.6724933 26.6730186,23 27.5384149,23" id="Fill-171" fill="#FCFCFC"></path>
                        <path d="M6.53841486,32 L8.46158514,32 C9.32698143,32 10,32.6730186 10,33.5384149 L10,35.4615851 C10,36.3269814 9.32698143,37 8.46158514,37 L6.53841486,37 C5.67301857,37 5,36.3269814 5,35.4615851 L5,33.5384149 C5,32.6730186 5.67301857,32 6.53841486,32" id="Fill-172" fill="#FCFCFC"></path>
                        <path d="M20.5384149,32 L22.4615851,32 C23.3269814,32 24,32.6730186 24,33.5384149 L24,35.4615851 C24,36.3269814 23.3269814,37 22.4615851,37 L20.5384149,37 C19.6730186,37 19,36.3269814 19,35.4615851 L19,33.5384149 C19,32.6730186 19.6730186,32 20.5384149,32" id="Fill-173" fill="#FCFCFC"></path>
                        <path d="M27.5384149,32 L29.4609783,32 C30.3269814,32 31,32.6730186 31,33.5384149 L31,35.4615851 C31,36.3269814 30.3269814,37 29.4609783,37 L27.5384149,37 C26.6730186,37 26,36.3269814 26,35.4615851 L26,33.5384149 C26,32.6730186 26.6730186,32 27.5384149,32" id="Fill-174" fill="#FCFCFC"></path>
                        <path d="M6.53841486,41 L8.46158514,41 C9.32698143,41 10,41.6731003 10,42.5386016 L10,44.4620053 C10,45.3275067 9.32698143,46 8.46158514,46 L6.53841486,46 C5.67301857,46 5,45.3275067 5,44.4620053 L5,42.5386016 C5,41.6731003 5.67301857,41 6.53841486,41" id="Fill-175" fill="#FCFCFC"></path>
                        <path d="M13.5384149,41 L15.4615851,41 C16.3269814,41 17,41.6731003 17,42.5386016 L17,44.4620053 C17,45.3275067 16.3269814,46 15.4615851,46 L13.5384149,46 C12.6730186,46 12,45.3275067 12,44.4620053 L12,42.5386016 C12,41.6731003 12.6730186,41 13.5384149,41" id="Fill-176" fill="#FCFCFC"></path>
                        <path d="M20.5384149,41 L22.4615851,41 C23.3269814,41 24,41.6731003 24,42.5386016 L24,44.4620053 C24,45.3275067 23.3269814,46 22.4615851,46 L20.5384149,46 C19.6730186,46 19,45.3275067 19,44.4620053 L19,42.5386016 C19,41.6731003 19.6730186,41 20.5384149,41" id="Fill-177" fill="#FCFCFC"></path>
                        <path d="M27.5384149,41 L29.4609783,41 C30.3269814,41 31,41.6731003 31,42.5386016 L31,44.4620053 C31,45.3275067 30.3269814,46 29.4609783,46 L27.5384149,46 C26.6730186,46 26,45.3275067 26,44.4620053 L26,42.5386016 C26,41.6731003 26.6730186,41 27.5384149,41" id="Fill-178" fill="#FCFCFC"></path>
                        <path d="M6.63449866,49 L8.5579024,49 C9.32750668,49 10,49.6724933 10,50.5379947 L10,52.4613984 C10,53.3268997 9.32750668,54 8.4613984,54 L6.5386016,54 C5.67310027,54 5,53.3268997 5,52.4613984 L5,50.5379947 C5.09589706,49.6724933 5.76899733,49 6.63449866,49" id="Fill-179" fill="#FCFCFC"></path>
                        <path d="M13.5384149,49 L15.4615851,49 C16.3269814,49 17,49.6724933 17,50.5379947 L17,52.4613984 C17,53.3268997 16.3269814,54 15.4615851,54 L13.5384149,54 C12.6730186,54 12,53.3268997 12,52.4613984 L12,50.5379947 C12,49.6724933 12.6730186,49 13.5384149,49" id="Fill-180" fill="#FCFCFC"></path>
                        <path d="M20.5384149,49 L22.4615851,49 C23.3269814,49 24,49.6724933 24,50.5379947 L24,52.4613984 C24,53.3268997 23.3269814,54 22.4615851,54 L20.5384149,54 C19.6730186,54 19,53.3268997 19,52.4613984 L19,50.5379947 C19,49.6724933 19.6730186,49 20.5384149,49" id="Fill-181" fill="#FCFCFC"></path>
                        <path d="M6.53841486,57 L8.46158514,57 C9.32698143,57 10,57.6730186 10,58.5384149 L10,60.4615851 C10,61.3269814 9.32698143,62 8.46158514,62 L6.53841486,62 C5.67301857,62 5,61.3269814 5,60.4615851 L5,58.5384149 C5,57.6730186 5.67301857,57 6.53841486,57" id="Fill-182" fill="#FCFCFC"></path>
                        <path d="M13.5384149,57 L15.4615851,57 C16.3269814,57 17,57.6730186 17,58.5384149 L17,60.4615851 C17,61.3269814 16.3269814,62 15.4615851,62 L13.5384149,62 C12.6730186,62 12,61.3269814 12,60.4615851 L12,58.5384149 C12,57.6730186 12.6730186,57 13.5384149,57" id="Fill-183" fill="#FCFCFC"></path>
                        <path d="M20.5384149,57 L22.4615851,57 C23.3269814,57 24,57.6730186 24,58.5384149 L24,60.4615851 C24,61.3269814 23.3269814,62 22.4615851,62 L20.5384149,62 C19.6730186,62 19,61.3269814 19,60.4615851 L19,58.5384149 C19,57.6730186 19.6730186,57 20.5384149,57" id="Fill-184" fill="#FCFCFC"></path>
                        <path d="M27.5384149,57 L29.4609783,57 C30.3269814,57 31,57.6730186 31,58.5384149 L31,60.4615851 C31,61.3269814 30.3269814,62 29.4609783,62 L27.5384149,62 C26.6730186,62 26,61.3269814 26,60.4615851 L26,58.5384149 C26,57.6730186 26.6730186,57 27.5384149,57" id="Fill-185" fill="#FCFCFC"></path>
                    </g>
                    <g id="트럭" transform="translate(155.000000, 118.000000)">
                        <path d="M16.75,40.437 C16.75,41.231 13.896,41.874 10.375,41.874 C6.854,41.874 4,41.231 4,40.437 C4,39.643 6.854,39 10.375,39 C13.896,39 16.75,39.643 16.75,40.437" id="Fill-1" fill="#000000" opacity="0.2"></path>
                        <path d="M47.75,40.437 C47.75,41.231 44.896,41.874 41.375,41.874 C37.854,41.874 35,41.231 35,40.437 C35,39.643 37.854,39 41.375,39 C44.896,39 47.75,39.643 47.75,40.437" id="Fill-3" fill="#000000" opacity="0.2"></path>
                        <path d="M53.644,4.29 C53.644,2.474 52.171,1 50.354,1 L22.933,1 C21.117,1 19.643,2.474 19.643,4.29 L19.643,10.892 L8.773,10.892 C6.519,10.892 4.537,12.382 3.911,14.547 L1.833,21.725 L1.833,30.591 L1,30.591 L1,34.309 L5.488,34.309 C5.5,37.199 7.846,39.539 10.739,39.539 C13.633,39.539 15.976,37.199 15.989,34.309 L36.318,34.309 C36.331,37.199 38.677,39.539 41.57,39.539 C44.463,39.539 46.809,37.199 46.821,34.309 L53.64,34.309 L53.64,30.592 L53.644,30.592 L53.644,4.29 Z" id="Fill-5" fill="#ACB3BA"></path>
                        <path d="M53.644,3.62042702 C53.644,1.76993116 52.1430196,0.267931768 50.2915047,0.267931768 L22.3496287,0.267931768 C20.4991328,0.267931768 18.9971334,1.76993116 18.9971334,3.62042702 L18.9971334,10.3478354 L7.92065215,10.3478354 C5.62383626,10.3478354 3.60418714,11.8661387 2.96629595,14.072264 L0.848823266,21.3866139 L0.848823266,30.4210281 L0,30.4210281 L0,34.2096534 L4.57325188,34.2096534 C4.58547983,37.1545505 6.97604331,39.539 9.92399734,39.539 C12.8729704,39.539 15.2604769,37.1545505 15.2737238,34.2096534 L35.9888837,34.2096534 C36.0021306,37.1545505 38.3926941,39.539 41.3406481,39.539 C44.2886022,39.539 46.6791656,37.1545505 46.6913936,34.2096534 L53.639924,34.2096534 L53.639924,30.4220471 L53.644,30.4220471 L53.644,3.62042702 Z" id="Stroke-7" stroke="#204453" stroke-width="2" stroke-linejoin="round"></path>
                        <path d="M8.76927769,11 C6.4415116,11 4.3927055,12.5126136 3.74593161,14.7094564 L1.6000061,21.9974113 L1.6000061,31 L20,31 L20,11 L8.76927769,11" id="Fill-9" fill="#519FE0"></path>
                        <path d="M16.735,22.269 L16.735,14 L8.339,14 C7.193,14 6.17,14.77 5.851,15.871 L4,22.269 L16.735,22.269 Z" id="Fill-11" fill="#84DBFF"></path>
                        <polygon id="Fill-13" fill="#CDD6E0" points="16.742 14 16.742 22.269 4 22.269"></polygon>
                        <path d="M16.735,14 L8.339,14 C7.193,14 6.17,14.77 5.851,15.87 L4,22.269 L16.735,14 Z" id="Fill-15" fill="#F2F2F2"></path>
                        <path d="M49.8077619,1 C51.5713223,1 53.001,2.48995396 53.001,4.3256096 L53.001,30.9122915 L20,30.9122915 L20,4.3256096 C20,2.48995396 21.4306483,1 23.1932381,1 L49.8077619,1" id="Fill-17" fill="#D9D9D9"></path>
                        <polygon id="Fill-19" fill="#F2F2F2" points="41.574 1 41.574 9.709 40.287 8.421 38.955 9.755 37.605 8.421 36.271 9.755 34.938 8.421 33.606 9.755 32.272 8.421 31 9.693 31 1"></polygon>
                        <path d="M3.58568098,30.6220932 C4.86399732,28.4600977 7.29022989,27 10.0859295,27 C12.881629,27 15.3068737,28.4600977 16.5743234,30.6220932 L34.5730919,30.6220932 C35.8514083,28.4600977 38.2894954,27 41.0733404,27 C43.8680521,27 46.3061392,28.4600977 47.5735889,30.6220932 L53.001,30.6220932 L53.001,34.11 L1,34.11 L1,30.6220932 L3.58568098,30.6220932 Z" id="Fill-21" fill="#334A5E"></path>
                        <g id="Group-8" transform="translate(4.699997, 28.500000)">
                            <path d="M0,5.254 C0,2.353 2.351,0 5.254,0 C8.155,0 10.506,2.353 10.506,5.254 C10.506,8.155 8.156,10.508 5.254,10.508 C2.352,10.508 0,8.155 0,5.254" id="Fill-23" fill="#40596B"></path>
                            <path d="M3,5.11000079 C3,3.94400079 3.945,2.99900079 5.11,3.00000079 C6.276,3.00000079 7.222,3.94400079 7.222,5.11000079 C7.222,6.27600079 6.275,7.22000079 5.11,7.22000079 C3.945,7.22000079 3,6.27600079 3,5.11000079" id="Fill-25" fill="#ACB3BA"></path>
                        </g>
                        <g id="Group-10" transform="translate(36.000000, 28.500000)">
                            <path d="M0,5.254 C0,2.353 2.354,0 5.254,0 C8.156,0 10.508,2.353 10.508,5.254 C10.508,8.155 8.156,10.508 5.254,10.508 C2.354,10.508 0,8.155 0,5.254" id="Fill-27" fill="#40596B"></path>
                            <path d="M3,5.11 C3,3.944 3.944,3 5.11,3 C6.276,3 7.221,3.944 7.221,5.11 C7.221,6.276 6.276,7.22 5.11,7.22 C3.944,7.22 3,6.276 3,5.11" id="Fill-29" fill="#ACB3BA"></path>
                        </g>
                    </g>
                    <g id="Group-4" transform="translate(129.000000, 137.000000)">
                        <g id="Group-9" transform="translate(3.000000, 8.000000)" opacity="0.2">
                            <g id="Group-5">
                                <path d="M12.5883,4.731 C12.3293,4.517 12.1713,4.313 12.0143,4.108 L11.7543,3.894 C12.8043,3.419 13.5983,2.856 14.0883,2.266 C14.4313,1.853 14.4193,1.472 14.1563,1.13 C13.8903,0.663 13.2743,0.352 12.4583,0.151 C11.9993,0.046 11.4913,-5.55111512e-17 11.0363,0.022 C10.7843,0.062 10.4313,0.093 10.1793,0.134 C9.5733,0.206 8.9193,0.336 8.2153,0.527 C7.5123,0.716 6.9133,1.043 6.5193,1.387 C6.0263,1.85 5.6863,2.39 5.7003,2.899 C5.7043,3.026 5.6593,3.212 5.7643,3.349 L5.2113,3.489 C4.8613,3.647 4.4093,3.796 3.9583,3.946 C2.5593,4.58 1.6703,5.387 1.5413,6.2 C1.4123,7.013 2.0933,7.773 3.4203,8.148 C3.8293,8.312 4.2883,8.418 4.7963,8.463 C5.3043,8.509 5.8593,8.497 6.4163,8.484 C8.4883,8.355 10.4453,7.709 11.6353,6.801 C12.5263,6.122 12.8103,5.386 12.5883,4.731" id="Fill-1" fill="#000000"></path>
                                <path d="M12.5883,4.731 C12.3293,4.517 12.1713,4.313 12.0143,4.108 L11.7543,3.894 C12.8043,3.419 13.5983,2.856 14.0883,2.266 C14.4313,1.853 14.4193,1.472 14.1563,1.13 C13.8903,0.663 13.2743,0.352 12.4583,0.151 C11.9993,0.046 11.4913,-5.55111512e-17 11.0363,0.022 C10.7843,0.062 10.4313,0.093 10.1793,0.134 C9.5733,0.206 8.9193,0.336 8.2153,0.527 C7.5123,0.716 6.9133,1.043 6.5193,1.387 C6.0263,1.85 5.6863,2.39 5.7003,2.899 C5.7043,3.026 5.6593,3.212 5.7643,3.349 L5.2113,3.489 C4.8613,3.647 4.4093,3.796 3.9583,3.946 C2.5593,4.58 1.6703,5.387 1.5413,6.2 C1.4123,7.013 2.0933,7.773 3.4203,8.148 C3.8293,8.312 4.2883,8.418 4.7963,8.463 C5.3043,8.509 5.8593,8.497 6.4163,8.484 C8.4883,8.355 10.4453,7.709 11.6353,6.801 C12.5263,6.122 12.8103,5.386 12.5883,4.731 Z" id="Stroke-3" stroke="#000000" stroke-width="0.963"></path>
                                <path d="M4.8627,9.0406 L3.9497,8.9576 C3.0357,8.8746 1.9817,9.2226 1.5417,9.7536 L0.7587,10.6966 C0.3177,11.2286 0.6857,11.7056 1.5997,11.7886 L2.4117,11.8626 C3.3257,11.9456 4.3797,11.5976 4.9217,11.0756 L5.7047,10.1326 C6.1447,9.6016 5.7767,9.1236 4.8627,9.0406" id="Fill-5" fill="#000000"></path>
                                <path d="M4.8627,9.0406 L3.9497,8.9576 C3.0357,8.8746 1.9817,9.2226 1.5417,9.7536 L0.7587,10.6966 C0.3177,11.2286 0.6857,11.7056 1.5997,11.7886 L2.4117,11.8626 C3.3257,11.9456 4.3797,11.5976 4.9217,11.0756 L5.7047,10.1326 C6.1447,9.6016 5.7767,9.1236 4.8627,9.0406 Z" id="Stroke-7" stroke="#000000" stroke-width="0.963"></path>
                            </g>
                        </g>
                        <g id="Group-13">
                            <path d="M5.5727,14.6998 C6.0727,14.6998 6.5727,14.5998 7.0727,14.4998 C8.8727,13.9998 10.1727,12.6998 10.5727,11.0998 C10.8727,9.8998 10.5727,8.6998 9.8727,7.6998 C9.4727,7.3998 9.1727,7.0998 8.8727,6.8008 L8.4727,6.4998 C9.0727,5.5998 9.3727,4.5998 9.3727,3.5998 C9.3727,2.8998 9.0727,2.3008 8.5727,1.8008 C7.9727,1.0998 7.1727,0.6998 6.2727,0.4998 C5.7727,0.3998 5.2727,0.3998 4.8727,0.4998 C4.6727,0.5998 4.3727,0.6998 4.1727,0.8008 C3.6727,0.9998 3.1727,1.3008 2.6727,1.6998 C2.1727,2.0998 1.8727,2.6998 1.7727,3.3008 C1.6727,4.0998 1.7727,4.9998 2.1727,5.8008 C2.2727,5.9998 2.3727,6.3008 2.5727,6.4998 L2.1727,6.8008 C1.9727,7.0998 1.6727,7.3998 1.3727,7.6998 C0.5727,8.8998 0.3727,10.3008 0.8727,11.5998 C1.3727,12.8998 2.5727,13.9998 4.0727,14.3998 C4.5727,14.5998 5.0727,14.6998 5.5727,14.6998" id="Fill-10" fill="#BBDB8D"></path>
                            <path d="M5.5727,14.6998 C6.0727,14.6998 6.5727,14.5998 7.0727,14.4998 C8.8727,13.9998 10.1727,12.6998 10.5727,11.0998 C10.8727,9.8998 10.5727,8.6998 9.8727,7.6998 C9.4727,7.3998 9.1727,7.0998 8.8727,6.8008 L8.4727,6.4998 C9.0727,5.5998 9.3727,4.5998 9.3727,3.5998 C9.3727,2.8998 9.0727,2.3008 8.5727,1.8008 C7.9727,1.0998 7.1727,0.6998 6.2727,0.4998 C5.7727,0.3998 5.2727,0.3998 4.8727,0.4998 C4.6727,0.5998 4.3727,0.6998 4.1727,0.8008 C3.6727,0.9998 3.1727,1.3008 2.6727,1.6998 C2.1727,2.0998 1.8727,2.6998 1.7727,3.3008 C1.6727,4.0998 1.7727,4.9998 2.1727,5.8008 C2.2727,5.9998 2.3727,6.3008 2.5727,6.4998 L2.1727,6.8008 C1.9727,7.0998 1.6727,7.3998 1.3727,7.6998 C0.5727,8.8998 0.3727,10.3008 0.8727,11.5998 C1.3727,12.8998 2.5727,13.9998 4.0727,14.3998 C4.5727,14.5998 5.0727,14.6998 5.5727,14.6998" id="Stroke-12" stroke="#204453" stroke-width="1.2"></path>
                        </g>
                        <path d="M5.5727,6.1002 L5.5727,15.6002" id="Stroke-14" stroke="#204453" stroke-width="1.2"></path>
                        <path d="M3.5727,8.9996 C3.5727,8.9996 4.0727,11.8006 5.5727,11.8996" id="Stroke-16" stroke="#204453" stroke-width="1.2"></path>
                        <path d="M7.5727,7.1002 C7.4727,7.6002 6.6727,8.1002 5.5727,8.1002" id="Stroke-18" stroke="#204453" stroke-width="1.2"></path>
                        <path d="M7.5727,9.9 C7.5727,9.9 7.1727,12.8 5.5727,12.8" id="Stroke-20" stroke="#204453" stroke-width="1.2"></path>
                        <path d="M5.1723,15.6002 L6.0723,15.6002 C6.9733,15.6002 7.6723,16.3002 7.6723,17.2002 L7.6723,18.8002 C7.5723,19.7002 6.8723,20.4002 5.9733,20.4002 L5.1723,20.4002 C4.2733,20.4002 3.5723,19.7002 3.5723,18.8002 L3.5723,17.2002 C3.5723,16.3002 4.2733,15.6002 5.1723,15.6002" id="Fill-22" fill="#ECECEC"></path>
                        <path d="M5.1723,15.6002 L6.0723,15.6002 C6.9733,15.6002 7.6723,16.3002 7.6723,17.2002 L7.6723,18.8002 C7.5723,19.7002 6.8723,20.4002 5.9733,20.4002 L5.1723,20.4002 C4.2733,20.4002 3.5723,19.7002 3.5723,18.8002 L3.5723,17.2002 C3.5723,16.3002 4.2733,15.6002 5.1723,15.6002 Z" id="Stroke-24" stroke="#204453" stroke-width="1.2"></path>
                    </g>
                </g>
            </g>
        </g>
    </g>
</svg>