<?xml version="1.0" encoding="UTF-8"?>
<svg width="213px" height="164px" viewBox="0 0 213 164" version="1.1" xmlns="http://www.w3.org/2000/svg" xmlns:xlink="http://www.w3.org/1999/xlink">
    <!-- Generator: Sketch 50.2 (55047) - http://www.bohemiancoding.com/sketch -->
    <title>service-big1 copy</title>
    <desc>Created with Sketch.</desc>
    <defs>
        <linearGradient x1="15.7441762%" y1="84.5577893%" x2="89.418027%" y2="18.1581539%" id="linearGradient-1">
            <stop stop-color="#DAEAEE" offset="0%"></stop>
            <stop stop-color="#E5E0FB" offset="100%"></stop>
        </linearGradient>
    </defs>
    <g id="service-big1-copy" stroke="none" stroke-width="1" fill="none" fill-rule="evenodd">
        <g id="Group-6" transform="translate(29.000000, 10.000000)">
            <circle id="Oval" fill="url(#linearGradient-1)" cx="77" cy="77" r="77"></circle>
            <circle id="Oval-2" fill="#2D1943" cx="19" cy="40" r="1"></circle>
            <circle id="Oval-2-Copy-6" fill="#6CE3C8" cx="94" cy="139" r="1"></circle>
            <circle id="Oval-2-Copy-5" fill="#589BA6" cx="130" cy="49" r="1"></circle>
            <circle id="Oval-2-Copy" fill="#A99DDF" cx="52" cy="133" r="2"></circle>
            <circle id="Oval-2-Copy-3" fill="#E5E0FB" cx="144" cy="19" r="2"></circle>
            <circle id="Oval-2-Copy-4" fill="#BDB2EE" cx="142" cy="77" r="2"></circle>
            <circle id="Oval-2-Copy-2" fill="#E5E5E5" cx="9.5" cy="125.5" r="1.5"></circle>
        </g>
        <g id="Group" transform="translate(49.000000, 10.000000)">
            <path d="M113.470603,93.0463539 C111.469124,84.4097835 103.993986,77.6056752 95.5568112,75.5928799 C87.8632798,73.7562562 80.2208912,71.6616173 72.5605335,69.6890502 C72.0767505,69.562817 71.5915853,69.4379709 71.1064201,69.3145121 L71.0967445,69.1078226 L70.6406062,69.1938276 C70.1333253,69.0634329 69.6260443,68.931651 69.1187633,68.8012562 C75.2088997,65.4678674 79.7854865,59.6999811 81.596217,52.8334499 L86.826602,52.8334499 C90.5959624,52.8334499 93.6797333,49.6151968 93.6797333,45.6825471 L93.6797333,36.1484724 C93.6797333,32.7263042 91.3409882,29.8465226 88.2475417,29.1584823 C86.1963019,12.7010021 72.9931737,0 57.0006911,0 C41.0068263,0 27.8036981,12.7010021 25.7510761,29.1584823 C22.6590118,29.8465226 20.3188845,32.7263042 20.3188845,36.1484724 L20.3188845,45.6825471 C20.3188845,49.6151968 23.4040376,52.8334499 27.173398,52.8334499 L32.403783,52.8334499 C34.2145135,59.6999811 38.7911003,65.4678674 44.8812367,68.8012562 C44.3739557,68.931651 43.8666747,69.0634329 43.3580115,69.1938276 L42.9018733,69.1078226 L42.8921976,69.3145121 C42.4084147,69.4379709 41.9232495,69.562817 41.4380843,69.6890502 C33.7791088,71.6616173 26.1367202,73.7562562 18.4431888,75.5928799 C10.0060139,77.6056752 2.53087602,84.4097835 0.529396787,93.0463539 C0.174161867,94.5777985 0,96.1494712 0,97.7225311 L0,125 L57.0006911,125 L114,125 L114,97.7225311 C114,96.1494712 113.825838,94.5777985 113.470603,93.0463539 Z" id="Stroke-1" stroke="#002077" stroke-width="2.5" stroke-linejoin="round"></path>
            <path d="M113.470603,93.2201567 C111.469124,84.6305624 103.993986,77.8634631 95.5568112,75.8602362 C87.8632798,74.0349819 80.2208912,71.9517362 72.5605335,69.9885186 C67.3729979,68.6599322 62.1868445,67.3299661 57.0006911,66 C51.8131555,67.3299661 46.6256199,68.6599322 41.4380843,69.9885186 C33.7791088,71.9517362 26.1367202,74.0349819 18.4431888,75.8602362 C10.0060139,77.8634631 2.53087602,84.6305624 0.529396787,93.2201567 C0.174161867,94.7432714 0,96.3063954 0,97.8708991 L0,125 L57.0006911,125 L114,125 L114,97.8708991 C114,96.3063954 113.825838,94.7432714 113.470603,93.2201567" id="Fill-3" fill="#FFFFFF"></path>
            <path d="M113.470603,93.2201567 C111.469124,84.6305624 103.993986,77.8634631 95.5568112,75.8602362 C87.8632798,74.0349819 80.2208912,71.9517362 72.5605335,69.9885186 C67.3729979,68.6599322 62.1868445,67.3299661 57.0006911,66 C51.8131555,67.3299661 46.6256199,68.6599322 41.4380843,69.9885186 C33.7791088,71.9517362 26.1367202,74.0349819 18.4431888,75.8602362 C10.0060139,77.8634631 2.53087602,84.6305624 0.529396787,93.2201567 C0.174161867,94.7432714 0,96.3063954 0,97.8708991 L0,125 L57.0006911,125 L114,125 L114,97.8708991 C114,96.3063954 113.825838,94.7432714 113.470603,93.2201567 Z" id="Stroke-5" stroke="#002077" stroke-width="1.5" stroke-linejoin="round"></path>
            <path d="M36.4745996,114 L19.5240227,114 C17.5856725,114 16,112.40336 16,110.450216 L16,108.548397 C16,106.59664 17.5856725,105 19.5240227,105 L36.4745996,105 C38.4129499,105 40,106.59664 40,108.548397 L40,110.450216 C40,112.40336 38.4129499,114 36.4745996,114" id="Fill-7" fill="#C4CACE"></path>
            <path d="M36.4745996,114 L19.5240227,114 C17.5856725,114 16,112.40336 16,110.450216 L16,108.548397 C16,106.59664 17.5856725,105 19.5240227,105 L36.4745996,105 C38.4129499,105 40,106.59664 40,108.548397 L40,110.450216 C40,112.40336 38.4129499,114 36.4745996,114 Z" id="Stroke-9" stroke="#002077" stroke-width="1.5" stroke-linejoin="round"></path>
            <path d="M26.2319628,38 C26.0787017,36.645102 26,35.2664584 26,33.8668627 C26,15.1622863 40.1027878,0 57.5,0 C74.8972122,0 89,15.1622863 89,33.8668627 C89,35.035986 88.9447708,36.1911413 88.8370737,37.329535" id="Stroke-11" stroke="#002077" stroke-width="1.5" stroke-linejoin="round"></path>
            <g id="Group-16" transform="translate(20.000000, 28.000000)">
                <path d="M17.2374214,24.6191667 L7.01949286,24.6191667 C3.31856429,24.6191667 0.289421429,21.3983333 0.289421429,17.4608333 L0.289421429,7.915 C0.289421429,3.9775 3.31856429,0.755277778 7.01949286,0.755277778 L17.2374214,0.755277778" id="Fill-13" fill="#668EDD"></path>
                <path d="M17.2374214,24.6191667 L7.01949286,24.6191667 C3.31856429,24.6191667 0.289421429,21.3983333 0.289421429,17.4608333 L0.289421429,7.915 C0.289421429,3.9775 3.31856429,0.755277778 7.01949286,0.755277778 L17.2374214,0.755277778" id="Stroke-15" stroke="#002077" stroke-width="1.5" stroke-linejoin="round"></path>
            </g>
            <g id="Group-20" transform="translate(76.000000, 28.000000)">
                <path d="M0.7277,0.755694444 L10.9456286,0.755694444 C14.6479143,0.755694444 17.6757,3.97652778 17.6757,7.91402778 L17.6757,17.4598611 C17.6757,21.3973611 14.6479143,24.6195833 10.9456286,24.6195833 L0.7277,24.6195833" id="Fill-17" fill="#668EDD"></path>
                <path d="M0.7277,0.755694444 L10.9456286,0.755694444 C14.6479143,0.755694444 17.6757,3.97652778 17.6757,7.91402778 L17.6757,17.4598611 C17.6757,21.3973611 14.6479143,24.6195833 10.9456286,24.6195833 L0.7277,24.6195833" id="Stroke-19" stroke="#002077" stroke-width="1.5" stroke-linejoin="round"></path>
            </g>
            <polygon id="Fill-21" fill="#FFFFFF" points="42.6903003 69 42 84 57 71.688785"></polygon>
            <polygon id="Stroke-23" stroke="#002077" stroke-width="1.5" stroke-linejoin="round" points="42.6903003 69 42 84 57 71.688785"></polygon>
            <polygon id="Fill-25" fill="#FFFFFF" points="71.3096997 69 72 84 57 71.688785"></polygon>
            <polygon id="Stroke-27" stroke="#002077" stroke-width="1.5" stroke-linejoin="round" points="71.3096997 69 72 84 57 71.688785"></polygon>
            <path d="M57.5,71 C43.4745156,71 32,59.5910423 32,45.6487482 L32,34.3512518 C32,20.4075817 43.4745156,9 57.5,9 C71.5254844,9 83,20.4075817 83,34.3512518 L83,45.6487482 C83,59.5910423 71.5254844,71 57.5,71" id="Fill-29" fill="#FFFFFF"></path>
            <path d="M57.5,71 C43.4745156,71 32,59.5910423 32,45.6487482 L32,34.3512518 C32,20.4075817 43.4745156,9 57.5,9 C71.5254844,9 83,20.4075817 83,34.3512518 L83,45.6487482 C83,59.5910423 71.5254844,71 57.5,71 Z" id="Stroke-31" stroke="#002077" stroke-width="1.5" stroke-linejoin="round"></path>
            <path d="M59.8615172,63 L54.1384828,63 C52.4117647,63 51,61.5335055 51,59.7398479 L51,56.261587 C51,54.4679294 52.4117647,53 54.1384828,53 L59.8615172,53 C61.5882353,53 63,54.4679294 63,56.261587 L63,59.7398479 C63,61.5335055 61.5882353,63 59.8615172,63" id="Fill-33" fill="#D0DEF4"></path>
            <path d="M59.8615172,63 L54.1384828,63 C52.4117647,63 51,61.5335055 51,59.7398479 L51,56.261587 C51,54.4679294 52.4117647,53 54.1384828,53 L59.8615172,53 C61.5882353,53 63,54.4679294 63,56.261587 L63,59.7398479 C63,61.5335055 61.5882353,63 59.8615172,63 Z" id="Stroke-35" stroke="#002077" stroke-width="1.5" stroke-linejoin="round"></path>
            <path d="M80,58.048 L63,58" id="Stroke-37" stroke="#002077" stroke-width="1.5" stroke-linejoin="round"></path>
            <g id="Group-42" transform="translate(56.000000, 97.000000)">
                <path d="M0.7311,27.65028 L0.7311,0.12068" id="Fill-39" fill="#FFFFFF"></path>
                <path d="M0.7311,27.65028 L0.7311,0.12068" id="Stroke-41" stroke="#002077" stroke-width="1.5" stroke-linejoin="round"></path>
            </g>
            <g id="Group-46" transform="translate(56.000000, 90.000000)">
                <path d="M0.7311,3.66693333 L0.7311,0.9256" id="Fill-43" fill="#FFFFFF"></path>
                <path d="M0.7311,3.66693333 L0.7311,0.9256" id="Stroke-45" stroke="#002077" stroke-width="1.5" stroke-linejoin="round"></path>
            </g>
            <path d="M32,39 C32,39 60.597704,36.6477233 70.2866797,31 C70.2866797,31 76.336753,36.6477233 83,38.7656195" id="Stroke-47" stroke="#002077" stroke-width="1.5" stroke-linejoin="round"></path>
        </g>
    </g>
</svg>