<?xml version="1.0" encoding="UTF-8"?>
<svg width="213px" height="164px" viewBox="0 0 213 164" version="1.1" xmlns="http://www.w3.org/2000/svg" xmlns:xlink="http://www.w3.org/1999/xlink">
    <!-- Generator: Sketch 50.2 (55047) - http://www.bohemiancoding.com/sketch -->
    <title>service-big1</title>
    <desc>Created with Sketch.</desc>
    <defs>
        <linearGradient x1="15.7441762%" y1="84.5577893%" x2="89.418027%" y2="18.1581539%" id="linearGradient-1">
            <stop stop-color="#DAEAEE" offset="0%"></stop>
            <stop stop-color="#E5E0FB" offset="100%"></stop>
        </linearGradient>
    </defs>
    <g id="service-big1" stroke="none" stroke-width="1" fill="none" fill-rule="evenodd">
        <g id="Group-6">
            <circle id="Oval" fill="url(#linearGradient-1)" cx="106" cy="87" r="77"></circle>
            <g id="Group-2" transform="translate(34.000000, 0.000000)">
                <g id="Group-37">
                    <path d="M18.2202,81.9746 C19.1762,74.6736 21.6502,67.4106 25.7492,60.6636 C40.0452,37.1396 69.0352,28.2626 92.5312,39.3556 L84.2582,28.5706" id="Stroke-1" stroke="#B2C9F9" stroke-width="2" stroke-linejoin="round"></path>
                    <path d="M92.5527,39.3496 L80.7027,45.4366" id="Stroke-3" stroke="#B2C9F9" stroke-width="2" stroke-linejoin="round"></path>
                    <path d="M100.8672,45.7539 C106.8462,49.6599 112.0722,54.9349 116.0702,61.4749 C130.0142,84.2819 124.0862,114.3919 103.1712,131.1929 L116.5952,128.1369" id="Stroke-5" stroke="#668EDD" stroke-width="2" stroke-linejoin="round"></path>
                    <path d="M103.1655,131.2158 L103.4225,117.8868" id="Stroke-7" stroke="#668EDD" stroke-width="2" stroke-linejoin="round"></path>
                    <path d="M90.0322,138.2686 C83.3342,141.2166 75.9662,142.8006 68.2882,142.6746 C41.5162,142.2346 20.4902,121.1556 19.1162,94.5646 L13.7072,107.5036" id="Stroke-9" stroke="#506CA5" stroke-width="2" stroke-linejoin="round"></path>
                    <path d="M19.1016,94.5479 L29.8026,101.8859" id="Stroke-11" stroke="#506CA5" stroke-width="2" stroke-linejoin="round"></path>
                    <path d="M66,33 C66,51.226 51.226,66 33,66 C14.774,66 0,51.226 0,33 C0,14.774 14.774,0 33,0 C51.226,0 66,14.774 66,33" id="Fill-13" fill="#FFFFFF"></path>
                    <path d="M66,33 C66,51.226 51.226,66 33,66 C14.774,66 0,51.226 0,33 C0,14.774 14.774,0 33,0 C51.226,0 66,14.774 66,33 Z" id="Stroke-15" stroke="#002077" stroke-width="2" stroke-linejoin="round"></path>
                    <path d="M11.9165,51 C11.9165,51 13.3425,32.917 24.7495,32.917 C36.1575,32.917 37.5835,51 37.5835,51 L11.9165,51 Z" id="Fill-17" fill="#FFFFFF"></path>
                    <path d="M11.9165,51 C11.9165,51 13.3425,32.917 24.7495,32.917 C36.1575,32.917 37.5835,51 37.5835,51 L11.9165,51 Z" id="Stroke-19" stroke="#002077" stroke-width="2" stroke-linejoin="round"></path>
                    <path d="M33.3057,26.2129 C33.3057,30.9389 29.4747,34.7689 24.7497,34.7689 C20.0247,34.7689 16.1947,30.9389 16.1947,26.2129 C16.1947,21.4879 20.0247,17.6569 24.7497,17.6569 C29.4747,17.6569 33.3057,21.4879 33.3057,26.2129" id="Fill-21" fill="#FFFFFF"></path>
                    <path d="M33.3057,26.2129 C33.3057,30.9389 29.4747,34.7689 24.7497,34.7689 C20.0247,34.7689 16.1947,30.9389 16.1947,26.2129 C16.1947,21.4879 20.0247,17.6569 24.7497,17.6569 C29.4747,17.6569 33.3057,21.4879 33.3057,26.2129 Z" id="Stroke-23" stroke="#002077" stroke-width="2" stroke-linejoin="round"></path>
                    <path d="M47.6665,17.417 L43.0835,17.417 C40.0585,17.417 37.5835,19.892 37.5835,22.917 C37.5835,24.305 38.1085,25.573 38.9645,26.544 L38.4995,29.333 L41.3265,28.122 C41.8795,28.31 42.4695,28.417 43.0835,28.417 L47.6665,28.417 C50.6915,28.417 53.1665,25.941 53.1665,22.917 C53.1665,19.892 50.6915,17.417 47.6665,17.417" id="Fill-25" fill="#D0DEF4"></path>
                    <path d="M47.6665,17.417 L43.0835,17.417 C40.0585,17.417 37.5835,19.892 37.5835,22.917 C37.5835,24.305 38.1085,25.573 38.9645,26.544 L38.4995,29.333 L41.3265,28.122 C41.8795,28.31 42.4695,28.417 43.0835,28.417 L47.6665,28.417 C50.6915,28.417 53.1665,25.941 53.1665,22.917 C53.1665,19.892 50.6915,17.417 47.6665,17.417 Z" id="Stroke-27" stroke="#002077" stroke-width="2" stroke-linejoin="round"></path>
                    <path d="M153,77 C153,90.807 141.807,102 128,102 C114.193,102 103,90.807 103,77 C103,63.193 114.193,52 128,52 C141.807,52 153,63.193 153,77" id="Fill-29" fill="#FFFFFF"></path>
                    <path d="M153,77 C153,90.807 141.807,102 128,102 C114.193,102 103,90.807 103,77 C103,63.193 114.193,52 128,52 C141.807,52 153,63.193 153,77 Z" id="Stroke-31" stroke="#002077" stroke-width="2" stroke-linejoin="round"></path>
                    <path d="M70,136 C70,148.702 59.703,159 47,159 C34.297,159 24,148.702 24,136 C24,123.298 34.297,113 47,113 C59.703,113 70,123.298 70,136" id="Fill-33" fill="#FFFFFF"></path>
                    <path d="M70,136 C70,148.702 59.703,159 47,159 C34.297,159 24,148.702 24,136 C24,123.298 34.297,113 47,113 C59.703,113 70,123.298 70,136 Z" id="Stroke-35" stroke="#002077" stroke-width="2" stroke-linejoin="round"></path>
                </g>
                <g id="Group-53" transform="translate(38.000000, 122.000000)">
                    <path d="M16.0762,30 L1.9092,30 C1.2162,30 0.6492,29.433 0.6492,28.74 L0.6492,1.26 C0.6492,0.567 1.2162,0 1.9092,0 L16.0762,0 C16.7692,0 17.3362,0.567 17.3362,1.26 L17.3362,28.74 C17.3362,29.433 16.7692,30 16.0762,30" id="Fill-39" fill="#FFFFFF"></path>
                    <path d="M16.0762,30 L1.9092,30 C1.2162,30 0.6492,29.433 0.6492,28.74 L0.6492,1.26 C0.6492,0.567 1.2162,0 1.9092,0 L16.0762,0 C16.7692,0 17.3362,0.567 17.3362,1.26 L17.3362,28.74 C17.3362,29.433 16.7692,30 16.0762,30 Z" id="Stroke-41" stroke="#002077" stroke-width="2" stroke-linejoin="round"></path>
                    <path d="M16.0762,0 L1.9092,0 C1.2162,0 0.6492,0.567 0.6492,1.26 L0.6492,3.863 L17.3362,3.863 L17.3362,1.26 C17.3362,0.567 16.7692,0 16.0762,0" id="Fill-43" fill="#C4CACE"></path>
                    <path d="M16.0762,0 L1.9092,0 C1.2162,0 0.6492,0.567 0.6492,1.26 L0.6492,3.863 L17.3362,3.863 L17.3362,1.26 C17.3362,0.567 16.7692,0 16.0762,0 Z" id="Stroke-45" stroke="#002077" stroke-width="2" stroke-linejoin="round"></path>
                    <path d="M0.6494,24.334 L0.6494,28.74 C0.6494,29.433 1.2164,30 1.9094,30 L16.0764,30 C16.7694,30 17.3364,29.433 17.3364,28.74 L17.3364,24.334 L0.6494,24.334 Z" id="Fill-47" fill="#C4CACE"></path>
                    <path d="M0.6494,24.334 L0.6494,28.74 C0.6494,29.433 1.2164,30 1.9094,30 L16.0764,30 C16.7694,30 17.3364,29.433 17.3364,28.74 L17.3364,24.334 L0.6494,24.334 Z" id="Stroke-49" stroke="#002077" stroke-width="2" stroke-linejoin="round"></path>
                    <path d="M10.5435,27.7559 L7.4415,27.7559 C7.1905,27.7559 6.9855,27.5509 6.9855,27.2999 L6.9855,27.1749 C6.9855,26.9239 7.1905,26.7189 7.4415,26.7189 L10.5435,26.7189 C10.7945,26.7189 11.0005,26.9239 11.0005,27.1749 L11.0005,27.2999 C11.0005,27.5509 10.7945,27.7559 10.5435,27.7559" id="Fill-51" fill="#002077"></path>
                </g>
                <text id="D" font-family="FrutigerLTStd-Black, Frutiger LT Std" font-size="12" font-weight="700" line-spacing="11" fill="#002077">
                    <tspan x="42.5" y="138.5">D</tspan>
                </text>
            </g>
            <circle id="Oval-2" fill="#D8D8D8" cx="17" cy="44" r="1"></circle>
            <circle id="Oval-2-Copy-5" fill="#D8D8D8" cx="199" cy="96" r="1"></circle>
            <circle id="Oval-2-Copy" fill="#E5E0FB" cx="2" cy="66" r="2"></circle>
            <circle id="Oval-2-Copy-3" fill="#E5E0FB" cx="189" cy="29" r="2"></circle>
            <circle id="Oval-2-Copy-4" fill="#BDB2EE" cx="211" cy="64" r="2"></circle>
            <circle id="Oval-2-Copy-2" fill="#42177F" cx="20" cy="102" r="2"></circle>
        </g>
        <g id="Group" transform="translate(153.000000, 62.000000)" stroke="#002077" stroke-linecap="round" stroke-linejoin="round" stroke-width="2">
            <polygon id="Stroke-1" points="9.02360574 0.0795786492 9.02360574 0 9 0.0397893246 8.97639426 0 8.97639426 0.0795786492 0 15.4023192 8.97639426 28.929406 8.97639426 29 9 28.9640613 9.02360574 29 9.02360574 28.929406 18 15.4023192"></polygon>
            <polyline id="Stroke-2" points="0.217659274 15.4335748 9.02360574 19 17.9191136 15.4335748"></polyline>
        </g>
    </g>
</svg>